<?xml version="1.0" encoding="utf-8"?>
<svg width="256px" height="256px" fill="currentColor" class="bi bi-chat-left-text-fill" viewBox="0 0 16 16" xmlns="http://www.w3.org/2000/svg" xmlns:bx="https://boxy-svg.com">
  <defs>
    <bx:guide x="2.02" y="0.378" angle="0"/>
    <bx:guide x="6.035" y="8.015" angle="90"/>
    <bx:guide x="14.013" y="0.425" angle="0"/>
  </defs>
  <rect width="12" height="12" style="stroke: rgb(0, 0, 0); stroke-width: 0px; paint-order: fill; fill: rgb(0, 0, 0);" rx="2.723" ry="2.723" x="1.987" y="2"/>
  <g transform="matrix(1, 0, 0, 1, 3.427, 9.439035)">
    <path d="M 7.854 -4.765 C 8.143 -4.765 8.376 -4.531 8.376 -4.243 L 8.376 -0.065 C 8.376 0.223 8.143 0.457 7.854 0.457 L 2.848 0.457 C 2.571 0.457 2.306 0.567 2.11 0.763 L 1.065 1.808 L 1.065 -4.243 C 1.065 -4.531 1.299 -4.765 1.588 -4.765 L 7.854 -4.765 Z M 1.588 -5.287 C 1.011 -5.287 0.543 -4.82 0.543 -4.243 L 0.543 2.438 C 0.543 2.639 0.761 2.764 0.935 2.664 C 0.955 2.653 0.973 2.638 0.989 2.622 L 2.479 1.132 C 2.577 1.034 2.71 0.979 2.848 0.979 L 7.854 0.979 C 8.431 0.979 8.899 0.512 8.899 -0.065 L 8.899 -4.243 C 8.899 -4.82 8.431 -5.287 7.854 -5.287 L 1.588 -5.287 Z" style="fill: rgb(255, 255, 255);"/>
    <path d="M 3.154 -2.154 C 3.154 -1.752 2.719 -1.501 2.371 -1.702 C 2.209 -1.795 2.11 -1.967 2.11 -2.154 C 2.11 -2.556 2.545 -2.807 2.893 -2.606 C 3.055 -2.513 3.154 -2.34 3.154 -2.154 Z M 5.243 -2.154 C 5.243 -1.752 4.808 -1.501 4.46 -1.702 C 4.298 -1.795 4.199 -1.967 4.199 -2.154 C 4.199 -2.556 4.634 -2.807 4.982 -2.606 C 5.144 -2.513 5.243 -2.34 5.243 -2.154 Z M 7.332 -2.154 C 7.332 -1.752 6.897 -1.501 6.549 -1.702 C 6.387 -1.795 6.288 -1.967 6.288 -2.154 C 6.288 -2.556 6.723 -2.807 7.071 -2.606 C 7.232 -2.513 7.332 -2.34 7.332 -2.154 Z" style="fill: rgb(255, 255, 255);"/>
  </g>
</svg>