<?xml version="1.0" encoding="utf-8"?>
<!-- Generator: Adobe Illustrator 17.0.0, SVG Export Plug-In . SVG Version: 6.00 Build 0)  -->
<!DOCTYPE svg PUBLIC "-//W3C//DTD SVG 1.1//EN" "http://www.w3.org/Graphics/SVG/1.1/DTD/svg11.dtd">
<svg version="1.1" id="Layer_1" xmlns="http://www.w3.org/2000/svg" xmlns:xlink="http://www.w3.org/1999/xlink" x="0px" y="0px"
	 width="600px" height="200px" viewBox="0 0 600 200" enable-background="new 0 0 600 200" xml:space="preserve">
<g>
	<path fill="#454545" d="M18.484,118.038V69.505h6.84L40.877,94.06c3.601,5.688,6.409,10.801,8.713,15.77l0.144-0.072
		c-0.576-6.48-0.72-12.385-0.72-19.946V69.505h5.905v48.533h-6.336l-15.41-24.626c-3.384-5.4-6.625-10.945-9.073-16.202
		l-0.216,0.072c0.36,6.121,0.504,11.953,0.504,20.018v20.738H18.484z"/>
	<path fill="#454545" d="M97.182,100.324c0,12.89-8.929,18.506-17.354,18.506c-9.433,0-16.706-6.913-16.706-17.93
		c0-11.665,7.633-18.505,17.281-18.505C90.413,82.395,97.182,89.667,97.182,100.324z M69.531,100.684
		c0,7.633,4.392,13.393,10.584,13.393c6.049,0,10.585-5.688,10.585-13.537c0-5.904-2.952-13.393-10.441-13.393
		C72.772,87.147,69.531,94.06,69.531,100.684z"/>
	<path fill="#454545" d="M127.49,73.394c0.072,2.16-1.512,3.889-4.032,3.889c-2.232,0-3.816-1.729-3.816-3.889
		c0-2.232,1.656-3.96,3.96-3.96C125.978,69.434,127.49,71.162,127.49,73.394z M120.434,118.038V83.187h6.336v34.852H120.434z"/>
	<path fill="#454545" d="M137.281,92.62c0-3.601-0.072-6.553-0.288-9.433h5.544l0.288,5.617h0.216
		c1.944-3.312,5.184-6.409,10.945-6.409c4.752,0,8.353,2.88,9.865,6.984h0.144c1.08-1.944,2.448-3.456,3.888-4.536
		c2.088-1.584,4.393-2.448,7.705-2.448c4.608,0,11.449,3.024,11.449,15.121v20.522h-6.192v-19.73c0-6.697-2.448-10.729-7.561-10.729
		c-3.601,0-6.409,2.664-7.489,5.76c-0.288,0.864-0.504,2.016-0.504,3.168v21.53h-6.193V97.156c0-5.544-2.448-9.577-7.272-9.577
		c-3.96,0-6.841,3.168-7.849,6.336c-0.36,0.936-0.504,2.016-0.504,3.096v21.026h-6.193V92.62z"/>
	<path fill="#454545" d="M216.627,118.038l-0.504-4.393h-0.216c-1.944,2.736-5.688,5.185-10.657,5.185
		c-7.057,0-10.657-4.969-10.657-10.009c0-8.425,7.489-13.034,20.954-12.961v-0.72c0-2.88-0.792-8.065-7.92-8.065
		c-3.241,0-6.625,1.008-9.073,2.592l-1.44-4.176c2.88-1.872,7.057-3.096,11.449-3.096c10.657,0,13.249,7.272,13.249,14.257v13.034
		c0,3.023,0.145,5.977,0.576,8.353H216.627z M215.691,100.252c-6.913-0.144-14.761,1.08-14.761,7.849
		c0,4.104,2.736,6.049,5.976,6.049c4.537,0,7.417-2.88,8.425-5.832c0.216-0.648,0.36-1.368,0.36-2.017V100.252z"/>
	<path fill="#454545" d="M262.059,83.187c-0.145,2.521-0.288,5.329-0.288,9.577v20.234c0,7.993-1.584,12.89-4.969,15.913
		c-3.384,3.169-8.28,4.177-12.673,4.177c-4.177,0-8.785-1.008-11.593-2.88l1.584-4.824c2.304,1.439,5.904,2.735,10.225,2.735
		c6.48,0,11.233-3.384,11.233-12.169v-3.888h-0.145c-1.944,3.24-5.688,5.832-11.089,5.832c-8.641,0-14.833-7.345-14.833-16.994
		c0-11.809,7.704-18.505,15.697-18.505c6.049,0,9.36,3.168,10.873,6.048h0.144l0.288-5.256H262.059z M255.507,96.94
		c0-1.08-0.072-2.016-0.36-2.88c-1.151-3.672-4.248-6.697-8.856-6.697c-6.049,0-10.369,5.113-10.369,13.177
		c0,6.841,3.457,12.529,10.297,12.529c3.889,0,7.417-2.448,8.785-6.48c0.36-1.081,0.504-2.305,0.504-3.385V96.94z"/>
	<path fill="#454545" d="M275.809,101.764c0.144,8.569,5.616,12.097,11.953,12.097c4.536,0,7.272-0.792,9.648-1.8l1.08,4.536
		c-2.232,1.008-6.049,2.16-11.593,2.16c-10.729,0-17.138-7.057-17.138-17.57c0-10.513,6.192-18.793,16.346-18.793
		c11.377,0,14.4,10.009,14.4,16.417c0,1.296-0.144,2.304-0.216,2.952H275.809z M294.386,97.228
		c0.072-4.033-1.656-10.297-8.785-10.297c-6.408,0-9.217,5.905-9.721,10.297H294.386z"/>
	<path fill="#454545" d="M342.912,118.038l-0.504-4.393h-0.216c-1.944,2.736-5.688,5.185-10.657,5.185
		c-7.057,0-10.656-4.969-10.656-10.009c0-8.425,7.488-13.034,20.953-12.961v-0.72c0-2.88-0.792-8.065-7.92-8.065
		c-3.24,0-6.625,1.008-9.073,2.592l-1.44-4.176c2.881-1.872,7.057-3.096,11.449-3.096c10.657,0,13.249,7.272,13.249,14.257v13.034
		c0,3.023,0.145,5.977,0.576,8.353H342.912z M341.976,100.252c-6.913-0.144-14.762,1.08-14.762,7.849
		c0,4.104,2.736,6.049,5.977,6.049c4.537,0,7.417-2.88,8.425-5.832c0.216-0.648,0.36-1.368,0.36-2.017V100.252z"/>
	<path fill="#454545" d="M360.191,83.187l6.84,19.586c1.152,3.168,2.089,6.049,2.809,8.929h0.216
		c0.792-2.88,1.801-5.761,2.952-8.929l6.769-19.586h6.625l-13.682,34.852h-6.048l-13.249-34.852H360.191z"/>
	<path fill="#454545" d="M411.384,118.038l-0.504-4.393h-0.216c-1.944,2.736-5.688,5.185-10.657,5.185
		c-7.057,0-10.656-4.969-10.656-10.009c0-8.425,7.488-13.034,20.953-12.961v-0.72c0-2.88-0.792-8.065-7.92-8.065
		c-3.24,0-6.625,1.008-9.073,2.592l-1.44-4.176c2.881-1.872,7.057-3.096,11.449-3.096c10.657,0,13.249,7.272,13.249,14.257v13.034
		c0,3.023,0.145,5.977,0.576,8.353H411.384z M410.448,100.252c-6.913-0.144-14.762,1.08-14.762,7.849
		c0,4.104,2.736,6.049,5.977,6.049c4.537,0,7.417-2.88,8.425-5.832c0.216-0.648,0.36-1.368,0.36-2.017V100.252z"/>
	<path fill="#454545" d="M433.846,73.394c0.071,2.16-1.513,3.889-4.033,3.889c-2.231,0-3.815-1.729-3.815-3.889
		c0-2.232,1.655-3.96,3.96-3.96C432.334,69.434,433.846,71.162,433.846,73.394z M426.79,118.038V83.187h6.336v34.852H426.79z"/>
	<path fill="#454545" d="M443.637,66.913h6.336v51.125h-6.336V66.913z"/>
	<path fill="#454545" d="M479.926,118.038l-0.504-4.393h-0.216c-1.944,2.736-5.688,5.185-10.657,5.185
		c-7.057,0-10.656-4.969-10.656-10.009c0-8.425,7.488-13.034,20.953-12.961v-0.72c0-2.88-0.792-8.065-7.92-8.065
		c-3.24,0-6.625,1.008-9.073,2.592l-1.44-4.176c2.881-1.872,7.057-3.096,11.449-3.096c10.657,0,13.249,7.272,13.249,14.257v13.034
		c0,3.023,0.145,5.977,0.576,8.353H479.926z M478.99,100.252c-6.913-0.144-14.762,1.08-14.762,7.849
		c0,4.104,2.736,6.049,5.977,6.049c4.537,0,7.417-2.88,8.425-5.832c0.216-0.648,0.36-1.368,0.36-2.017V100.252z"/>
	<path fill="#454545" d="M495.045,118.038c0.144-2.376,0.288-5.904,0.288-9.001V66.913h6.264v21.89h0.145
		c2.232-3.889,6.265-6.409,11.881-6.409c8.641,0,14.762,7.201,14.689,17.786c0,12.458-7.849,18.65-15.625,18.65
		c-5.041,0-9.073-1.944-11.665-6.553h-0.217l-0.288,5.761H495.045z M501.596,104.068c0,0.792,0.145,1.584,0.288,2.305
		c1.225,4.393,4.896,7.416,9.505,7.416c6.625,0,10.585-5.4,10.585-13.393c0-6.984-3.6-12.961-10.368-12.961
		c-4.32,0-8.354,2.952-9.649,7.776c-0.144,0.72-0.36,1.584-0.36,2.592V104.068z"/>
	<path fill="#454545" d="M536.3,66.913h6.336v51.125H536.3V66.913z"/>
	<path fill="#454545" d="M556.819,101.764c0.144,8.569,5.616,12.097,11.953,12.097c4.536,0,7.272-0.792,9.648-1.8l1.08,4.536
		c-2.232,1.008-6.049,2.16-11.593,2.16c-10.729,0-17.138-7.057-17.138-17.57c0-10.513,6.192-18.793,16.346-18.793
		c11.377,0,14.4,10.009,14.4,16.417c0,1.296-0.144,2.304-0.216,2.952H556.819z M575.396,97.228
		c0.072-4.033-1.656-10.297-8.785-10.297c-6.408,0-9.217,5.905-9.721,10.297H575.396z"/>
</g>
</svg>
