<?xml version="1.0" encoding="UTF-8" standalone="no"?>
<svg width="800px" height="450px" viewBox="0 0 800 450" version="1.1" xmlns="http://www.w3.org/2000/svg" xmlns:xlink="http://www.w3.org/1999/xlink">
    <title>Video Loading</title>
    <defs>
        <linearGradient x1="0%" y1="0%" x2="100%" y2="100%" id="linearGradient">
            <stop stop-color="#1a1a1a" offset="0%"></stop>
            <stop stop-color="#2a2a2a" offset="100%"></stop>
        </linearGradient>
    </defs>
    <g id="Page-1" stroke="none" stroke-width="1" fill="none" fill-rule="evenodd">
        <rect id="Background" fill="url(#linearGradient)" x="0" y="0" width="800" height="450"></rect>
        <g id="Video-Icon" transform="translate(350.000000, 175.000000)" fill="#FFFFFF" fill-opacity="0.8">
            <path d="M50,0 C77.6142375,0 100,22.3857625 100,50 C100,77.6142375 77.6142375,100 50,100 C22.3857625,100 0,77.6142375 0,50 C0,22.3857625 22.3857625,0 50,0 Z M50,10 C27.90861,10 10,27.90861 10,50 C10,72.09139 27.90861,90 50,90 C72.09139,90 90,72.09139 90,50 C90,27.90861 72.09139,10 50,10 Z" id="Circle" fill-rule="nonzero"></path>
            <path d="M40,35 L70,50 L40,65 L40,35 Z" id="Play-Button"></path>
        </g>
        <text id="Loading-Video" font-family="Helvetica" font-size="24" font-weight="normal" fill="#FFFFFF" text-anchor="middle" x="400" y="300">
            Loading Video...
        </text>
    </g>
</svg>