<svg width="1473" height="819" xmlns="http://www.w3.org/2000/svg" xmlns:xlink="http://www.w3.org/1999/xlink" xml:space="preserve" overflow="hidden"><g transform="translate(-64 -1429)"><g><g><g><g><path d="M0 0 1383.9 0 1383.9 816.963 0 816.963Z" fill="#FFFFFF" fill-rule="evenodd" fill-opacity="1" transform="matrix(1.06366 0 0 1 65 1430)"/><path d="M28.2166 12.8257 1347.99 12.8257C1347.99 12.8257 1363.38 12.8257 1363.38 28.2166L1363.38 781.049C1363.38 781.049 1363.38 796.44 1347.99 796.44L28.2166 796.44C28.2166 796.44 12.8257 796.44 12.8257 781.049L12.8257 28.2166C12.8257 28.2166 12.8257 12.8257 28.2166 12.8257" fill="#F5F5F5" fill-rule="evenodd" fill-opacity="1" transform="matrix(1.06366 0 0 1 69.0927 1433.85)"/><path d="M28.2166 12.8245 373.935 12.8245C373.935 12.8245 389.325 12.8245 389.325 28.2154L389.325 720.806C389.325 720.806 389.325 736.197 373.935 736.197L28.2166 736.197C28.2166 736.197 12.8257 736.197 12.8257 720.806L12.8257 28.2154C12.8257 28.2154 12.8257 12.8245 28.2166 12.8245" fill="#FFF2E5" fill-rule="evenodd" fill-opacity="1" transform="matrix(1.06366 0 0 1 1073.84 1463.31)"/><path d="M28.2166 12.8257 371.357 12.8257C371.357 12.8257 386.748 12.8257 386.748 28.2166L386.748 719.96C386.748 719.96 386.748 735.351 371.357 735.351L28.2166 735.351C28.2166 735.351 12.8257 735.351 12.8257 719.96L12.8257 28.2166C12.8257 28.2166 12.8257 12.8257 28.2166 12.8257" fill="#F4FFDC" fill-rule="evenodd" fill-opacity="1" transform="matrix(1.06366 0 0 1 103.141 1463.73)"/><path d="M28.2166 12.8257 474.553 12.8257C474.553 12.8257 489.943 12.8257 489.943 28.2166L489.943 413.092C489.943 413.092 489.943 428.482 474.553 428.482L28.2166 428.482C28.2166 428.482 12.8257 428.482 12.8257 413.092L12.8257 28.2166C12.8257 28.2166 12.8257 12.8257 28.2166 12.8257" fill="#EDF4FF" fill-rule="evenodd" fill-opacity="1" transform="matrix(1.06366 0 0 1 533.609 1463.21)"/><path d="M28.2166 12.8257 478.067 12.8257C478.067 12.8257 493.458 12.8257 493.458 28.2166L493.458 278.331C493.458 278.331 493.458 293.722 478.067 293.722L28.2166 293.722C28.2166 293.722 12.8257 293.722 12.8257 278.331L12.8257 28.2166C12.8257 28.2166 12.8257 12.8257 28.2166 12.8257" fill="#FFECEB" fill-rule="evenodd" fill-opacity="1" transform="matrix(1.06366 0 0 1 531.737 1905.78)"/><text fill="#000000" fill-opacity="1" font-family="Roboto,Roboto_MSFontService,sans-serif" font-style="normal" font-variant="normal" font-weight="400" font-stretch="normal" font-size="20" text-anchor="start" direction="ltr" writing-mode="lr-tb" unicode-bidi="normal" text-decoration="none" transform="matrix(1.36423 0 0 1.28257 1272.81 1605)">...</text><text fill="#000000" fill-opacity="1" font-family="Roboto,Roboto_MSFontService,sans-serif" font-style="normal" font-variant="normal" font-weight="400" font-stretch="normal" font-size="20" text-anchor="start" direction="ltr" writing-mode="lr-tb" unicode-bidi="normal" text-decoration="none" transform="matrix(1.36423 0 0 1.28257 1267.28 1717)">...</text><text fill="#000000" fill-opacity="1" font-family="Roboto,Roboto_MSFontService,sans-serif" font-style="normal" font-variant="normal" font-weight="400" font-stretch="normal" font-size="20" text-anchor="start" direction="ltr" writing-mode="lr-tb" unicode-bidi="normal" text-decoration="none" transform="matrix(1.36423 0 0 1.28257 1272.72 1825)">...</text><text fill="#000000" fill-opacity="1" font-family="Roboto,Roboto_MSFontService,sans-serif" font-style="normal" font-variant="normal" font-weight="400" font-stretch="normal" font-size="20" text-anchor="start" direction="ltr" writing-mode="lr-tb" unicode-bidi="normal" text-decoration="none" transform="matrix(1.36423 0 0 1.28257 1267.37 2152)">...</text><text fill="#000000" fill-opacity="1" font-family="Roboto,Roboto_MSFontService,sans-serif" font-style="normal" font-variant="normal" font-weight="400" font-stretch="normal" font-size="20" text-anchor="start" direction="ltr" writing-mode="lr-tb" unicode-bidi="normal" text-decoration="none" transform="matrix(1.36423 0 0 1.28257 1267.28 1936)">...</text><text fill="#000000" fill-opacity="1" font-family="Roboto,Roboto_MSFontService,sans-serif" font-style="normal" font-variant="normal" font-weight="400" font-stretch="normal" font-size="20" text-anchor="start" direction="ltr" writing-mode="lr-tb" unicode-bidi="normal" text-decoration="none" transform="matrix(1.36423 0 0 1.28257 1272.72 2044)">...</text><path d="M28.2166 12.8257 1347.99 12.8257C1347.99 12.8257 1363.38 12.8257 1363.38 28.2166L1363.38 781.049C1363.38 781.049 1363.38 796.44 1347.99 796.44L28.2166 796.44C28.2166 796.44 12.8257 796.44 12.8257 781.049L12.8257 28.2166C12.8257 28.2166 12.8257 12.8257 28.2166 12.8257" stroke="#969696" stroke-width="2.56515" stroke-linecap="round" stroke-linejoin="round" stroke-miterlimit="4" stroke-opacity="1" fill="none" fill-rule="evenodd" transform="matrix(1.06366 0 0 1 69.0927 1433.85)"/><path d="M28.2166 12.8245 373.935 12.8245C373.935 12.8245 389.325 12.8245 389.325 28.2154L389.325 720.806C389.325 720.806 389.325 736.197 373.935 736.197L28.2166 736.197C28.2166 736.197 12.8257 736.197 12.8257 720.806L12.8257 28.2154C12.8257 28.2154 12.8257 12.8245 28.2166 12.8245" stroke="#DE8431" stroke-width="2.56515" stroke-linecap="round" stroke-linejoin="round" stroke-miterlimit="4" stroke-opacity="1" fill="none" fill-rule="evenodd" transform="matrix(1.06366 0 0 1 1073.84 1463.31)"/><path d="M28.2166 12.8257 371.357 12.8257C371.357 12.8257 386.748 12.8257 386.748 28.2166L386.748 719.96C386.748 719.96 386.748 735.351 371.357 735.351L28.2166 735.351C28.2166 735.351 12.8257 735.351 12.8257 719.96L12.8257 28.2166C12.8257 28.2166 12.8257 12.8257 28.2166 12.8257" stroke="#92BD39" stroke-width="2.56515" stroke-linecap="round" stroke-linejoin="round" stroke-miterlimit="4" stroke-opacity="1" fill="none" fill-rule="evenodd" transform="matrix(1.06366 0 0 1 103.141 1463.73)"/><path d="M28.2166 12.8257 474.553 12.8257C474.553 12.8257 489.943 12.8257 489.943 28.2166L489.943 413.092C489.943 413.092 489.943 428.482 474.553 428.482L28.2166 428.482C28.2166 428.482 12.8257 428.482 12.8257 413.092L12.8257 28.2166C12.8257 28.2166 12.8257 12.8257 28.2166 12.8257" stroke="#4E88E7" stroke-width="2.56515" stroke-linecap="round" stroke-linejoin="round" stroke-miterlimit="4" stroke-opacity="1" fill="none" fill-rule="evenodd" transform="matrix(1.06366 0 0 1 533.609 1463.21)"/><path d="M28.2166 12.8257 478.067 12.8257C478.067 12.8257 493.458 12.8257 493.458 28.2166L493.458 278.331C493.458 278.331 493.458 293.722 478.067 293.722L28.2166 293.722C28.2166 293.722 12.8257 293.722 12.8257 278.331L12.8257 28.2166C12.8257 28.2166 12.8257 12.8257 28.2166 12.8257" stroke="#E55753" stroke-width="2.56515" stroke-linecap="round" stroke-linejoin="round" stroke-miterlimit="4" stroke-opacity="1" fill="none" fill-rule="evenodd" transform="matrix(1.06366 0 0 1 531.737 1905.78)"/><path d="M12.8257 12.8257 161.617 12.8257 161.617 82.0848 12.8257 82.0848Z" stroke="#000000" stroke-width="2.56515" stroke-linecap="round" stroke-linejoin="round" stroke-miterlimit="4" stroke-opacity="1" fill="none" fill-rule="evenodd" transform="matrix(1.06366 0 0 1 1188.1 2089.51)"/><path d="M12.8199 12.8257 161.611 12.8257 161.611 82.0848 12.8199 82.0848Z" stroke="#000000" stroke-width="2.56515" stroke-linecap="round" stroke-linejoin="round" stroke-miterlimit="4" stroke-opacity="1" fill="none" fill-rule="evenodd" transform="matrix(1.06366 0 0 1 1188 1981.43)"/><path d="M12.8257 12.8257 161.617 12.8257 161.617 82.0848 12.8257 82.0848Z" stroke="#000000" stroke-width="2.56515" stroke-linecap="round" stroke-linejoin="round" stroke-miterlimit="4" stroke-opacity="1" fill="none" fill-rule="evenodd" transform="matrix(1.06366 0 0 1 1188 1874.04)"/><path d="M12.8259 12.8257 161.617 12.8257 161.617 82.0848 12.8259 82.0848Z" stroke="#000000" stroke-width="2.56515" stroke-linecap="round" stroke-linejoin="round" stroke-miterlimit="4" stroke-opacity="1" fill="none" fill-rule="evenodd" transform="matrix(1.06366 0 0 1 1188 1762.46)"/><path d="M12.8257 12.8257 161.617 12.8257 161.617 82.0848 12.8257 82.0848Z" stroke="#000000" stroke-width="2.56515" stroke-linecap="round" stroke-linejoin="round" stroke-miterlimit="4" stroke-opacity="1" fill="none" fill-rule="evenodd" transform="matrix(1.06366 0 0 1 1188 1654.4)"/><path d="M12.8199 12.8257 161.611 12.8257 161.611 82.0848 12.8199 82.0848Z" stroke="#000000" stroke-width="2.56515" stroke-linecap="round" stroke-linejoin="round" stroke-miterlimit="4" stroke-opacity="1" fill="none" fill-rule="evenodd" transform="matrix(1.06366 0 0 1 1188.1 1543.14)"/><path d="M41.4443 43.7337 16.26 43.7337C16.26 43.7337 13.9704 43.7337 13.9704 41.4443L13.9704 16.26C13.9704 16.26 13.9704 13.9704 16.26 13.9704L41.4443 13.9704C41.4443 13.9704 43.7337 13.9704 43.7337 16.26L43.7337 41.4443C43.7337 41.4443 43.7337 43.7337 41.4443 43.7337M13.9704 38.0101 43.7337 38.0101M21.6174 38.0101 33.5456 26.8374C33.97 26.4839 34.5864 26.4839 35.0108 26.8374L43.7337 33.0877M19.6942 23.1284C19.6942 25.0251 21.2317 26.5626 23.1284 26.5626 25.0251 26.5626 26.5626 25.0251 26.5626 23.1284 26.5626 21.2317 25.0251 19.6942 23.1284 19.6942 21.2317 19.6942 19.6942 21.2317 19.6942 23.1284" stroke="#484848" stroke-width="2.56515" stroke-linecap="round" stroke-linejoin="round" stroke-miterlimit="4" stroke-opacity="1" fill="none" fill-rule="evenodd" transform="matrix(1.06366 0 0 1 866.712 1562.04)"/><path d="M23.1321 23.1321C23.1321 28.0653 27.1312 32.0644 32.0644 32.0644 36.9975 32.0644 40.9966 28.0653 40.9966 23.1321 40.9966 18.199 36.9975 14.1999 32.0644 14.1999 27.1312 14.1999 23.1321 18.199 23.1321 23.1321M49.0494 49.9288C46.6819 42.5465 39.817 37.5386 32.0644 37.5386 24.3117 37.5386 17.4469 42.5465 15.0794 49.9288Z" stroke="#484848" stroke-width="2.56515" stroke-linecap="round" stroke-linejoin="round" stroke-miterlimit="4" stroke-opacity="1" fill="none" fill-rule="evenodd" transform="matrix(1.06366 0 0 1 1204.47 1558.53)"/><path d="M12.8257 12.8257 107.48 12.8257 202.262 12.8257" stroke="#484848" stroke-width="2.56515" stroke-linecap="round" stroke-linejoin="round" stroke-miterlimit="4" stroke-opacity="1" fill="none" fill-rule="evenodd" transform="matrix(1.06366 0 0 1 365.032 1578.88)"/><path d="M12.8257 12.954 51.6878 12.954 90.5498 12.8257" stroke="#484848" stroke-width="2.56515" stroke-linecap="round" stroke-linejoin="round" stroke-miterlimit="4" stroke-opacity="1" fill="none" fill-rule="evenodd" transform="matrix(1.06366 0 0 1 702.5 1578.74)"/><path d="M12.8257 12.8257 12.8257 67.7199 12.8257 122.742" stroke="#484848" stroke-width="2.56515" stroke-linecap="round" stroke-linejoin="round" stroke-miterlimit="4" stroke-opacity="1" fill="none" fill-rule="evenodd" transform="matrix(1.06366 0 0 1 785.141 1578.74)"/><path d="M12.8257 12.8257 32.0644 12.8257 51.1747 12.8257 51.1747 25.5232 51.1747 38.2207" stroke="#484848" stroke-width="2.56515" stroke-linecap="round" stroke-linejoin="round" stroke-miterlimit="4" stroke-opacity="1" fill="none" fill-rule="evenodd" transform="matrix(1.06366 0 0 1 1346.36 1577.77)"/><path d="M13.5103 24.4634 45.0004 24.4634 45.0004 40.8931C45.0004 42.4054 43.7745 43.6313 42.2622 43.6313L16.2486 43.6313C14.7363 43.6313 13.5103 42.4054 13.5103 40.8931L13.5103 24.4634ZM16.2486 14.8794 42.2622 14.8794C43.7745 14.8794 45.0004 16.1054 45.0004 17.6177L45.0004 21.7251 13.5103 21.7251 13.5103 17.6177C13.5103 16.1054 14.7363 14.8794 16.2486 14.8794ZM25.7175 29.1184C25.4405 28.9973 25.1211 29.0241 24.8682 29.1899 24.6153 29.3556 24.4631 29.6376 24.4634 29.9399L24.4634 38.1548C24.4631 38.4571 24.6153 38.7391 24.8682 38.9048 25.1211 39.0706 25.4405 39.0974 25.7175 38.9763L34.7895 35.0057C35.1702 34.8392 35.4164 34.463 35.4164 34.0474 35.4164 33.6317 35.1702 33.2555 34.7895 33.089ZM18.9868 21.7251 25.8326 14.8794M25.8326 21.7251 32.6782 14.8794M32.6782 21.7251 39.5239 14.8794M39.5239 21.7251 44.7581 16.491M13.5103 20.356 18.9868 14.8794" stroke="#484848" stroke-width="2.56515" stroke-linecap="round" stroke-linejoin="round" stroke-miterlimit="4" stroke-opacity="1" fill="none" fill-rule="evenodd" transform="matrix(1.06366 0 0 1 865.552 1603.71)"/><path d="M21.2793 14.2347 43.8224 14.2347C45.5131 14.2347 46.6402 15.3618 46.6402 17.0526L46.6402 48.0491C46.6402 49.7399 45.5131 50.867 43.8224 50.867L21.2793 50.867C19.5886 50.867 18.4615 49.7399 18.4615 48.0491L18.4615 17.0526C18.4615 15.3618 19.5886 14.2347 21.2793 14.2347ZM25.788 21.2793C25.788 21.5906 26.0402 21.8429 26.3515 21.8429 26.6628 21.8429 26.9151 21.5906 26.9151 21.2793 26.9151 20.9682 26.6628 20.7158 26.3515 20.7158 26.0402 20.7158 25.788 20.9682 25.788 21.2793M25.788 28.0422C25.788 28.3535 26.0402 28.6058 26.3515 28.6058 26.6628 28.6058 26.9151 28.3535 26.9151 28.0422 26.9151 27.7311 26.6628 27.4786 26.3515 27.4786 26.0402 27.4786 25.788 27.7311 25.788 28.0422M25.788 35.3687C25.788 35.6799 26.0402 35.9324 26.3515 35.9324 26.6628 35.9324 26.9151 35.6799 26.9151 35.3687 26.9151 35.0575 26.6628 34.8051 26.3515 34.8051 26.0402 34.8051 25.788 35.0575 25.788 35.3687" stroke="#484848" stroke-width="2.56515" stroke-linecap="round" stroke-linejoin="round" stroke-miterlimit="4" stroke-opacity="1" fill="none" fill-rule="evenodd" transform="matrix(1.06366 0 0 1 1370.85 1612.88)"/><path d="M13.2105 12.8257 13.2105 54.7659 13.2105 96.8344 12.954 96.8344 12.8257 96.8344 12.8257 138.775 12.8257 180.843" stroke="#484848" stroke-width="2.56515" stroke-linecap="round" stroke-linejoin="round" stroke-miterlimit="4" stroke-opacity="1" fill="none" fill-rule="evenodd" transform="matrix(1.06366 0 0 1 301.663 1638.2)"/><path d="M36.402 30.1953C36.4064 27.6833 38.0364 25.4631 40.4318 24.7065 39.5171 23.0217 37.9282 21.8061 36.0628 21.364 34.1973 20.922 32.2319 21.2954 30.6584 22.3905 29.942 22.8043 29.059 22.8043 28.3426 22.3905 26.6398 21.3106 24.5605 20.9991 22.616 21.5326 20.6715 22.0661 19.0424 23.3952 18.1292 25.1928 16.839 27.5688 16.398 30.3138 16.8787 32.9743 17.269 36.6285 18.8473 40.0538 21.3715 42.7245 23.0901 44.3548 25.736 44.5017 27.6246 43.0719L27.6246 43.0719C28.7049 42.2728 30.1803 42.2728 31.2606 43.0719 33.0726 44.5357 35.6769 44.477 37.421 42.9329 39.3277 41.0081 40.6867 38.6099 41.3582 35.9851 38.4792 35.5871 36.3511 33.1012 36.402 30.1953ZM31.7701 17.4576 35.244 13.9837" stroke="#484848" stroke-width="2.56515" stroke-linecap="round" stroke-linejoin="round" stroke-miterlimit="4" stroke-opacity="1" fill="none" fill-rule="evenodd" transform="matrix(1.06366 0 0 1 572.871 1631.79)"/><path d="M14.6787 16.7681 38.3327 14.0479C38.6118 14.0076 38.8946 14.0913 39.1069 14.277 39.319 14.4626 39.4396 14.7318 39.4366 15.0137L39.4366 38.3131C39.4346 38.6007 39.3069 38.8732 39.0871 39.0589 38.8673 39.2446 38.5774 39.325 38.2933 39.279L14.6392 35.652C14.1615 35.5663 13.8132 35.1516 13.8113 34.6663L13.8113 17.6748C13.8459 17.2038 14.2096 16.8235 14.6787 16.7681ZM24.6528 15.546 24.6528 37.1895M39.4366 26.1509 13.8113 26.1509" stroke="#484848" stroke-width="2.56515" stroke-linecap="round" stroke-linejoin="round" stroke-miterlimit="4" stroke-opacity="1" fill="none" fill-rule="evenodd" transform="matrix(1.06366 0 0 1 619.555 1636.62)"/><path d="M38.9964 42.1121C35.8993 42.1121 33.3885 39.6012 33.3885 36.504L33.3885 20.5972C33.4479 16.9946 30.7826 13.9265 27.2071 13.4813 25.2815 13.2913 23.3652 13.9241 21.9314 15.2236 20.4975 16.523 19.6798 18.368 19.68 20.3032 19.68 20.3032 16.5644 21.5493 16.5644 23.4187 18.6639 23.4289 20.7603 23.5813 22.8392 23.8747 25.3126 24.2086 27.1579 26.3202 27.1574 28.816L27.1574 29.6659C27.1574 29.6659 25.7964 29.3706 23.8449 31.3221 22.8824 32.2574 22.1297 33.3866 21.6365 34.6346 21.6365 34.6346 23.8324 34.2682 25.8413 34.1361 26.1838 34.117 26.5189 34.2397 26.768 34.4756 27.017 34.7113 27.1579 35.0394 27.1574 35.3824L27.1574 42.1121ZM19.3447 26.6937C18.7379 28.8734 18.4315 31.1258 18.4338 33.3885 18.32 36.4066 18.9626 39.4054 20.3032 42.1121M27.1574 42.1121 17.8106 42.1121M24.5902 18.9348C24.5902 19.1068 24.7296 19.2463 24.9017 19.2463 25.0737 19.2463 25.2132 19.1068 25.2132 18.9348 25.2132 18.7627 25.0737 18.6232 24.9017 18.6232 24.7296 18.6232 24.5902 18.7627 24.5902 18.9348Z" stroke="#484848" stroke-width="2.56515" stroke-linecap="round" stroke-linejoin="round" stroke-miterlimit="4" stroke-opacity="1" fill="none" fill-rule="evenodd" transform="matrix(1.06366 0 0 1 663.783 1635.46)"/><path d="M14.8549 13.5008 43.2635 13.5008C43.2635 13.5008 44.6164 13.5008 44.6164 14.8536L44.6164 43.2623C44.6164 43.2623 44.6164 44.615 43.2635 44.615L14.8549 44.615C14.8549 44.615 13.5022 44.615 13.5022 43.2623L13.5022 14.8536C13.5022 14.8536 13.5022 13.5008 14.8549 13.5008M24.3245 31.0885C24.3245 32.5827 23.1131 33.794 21.6189 33.794L18.9134 33.794 18.9134 28.3829 21.6189 28.3829C23.1131 28.3829 24.3245 29.5943 24.3245 31.0885ZM18.9134 39.2038 18.9134 33.7926M27.0301 28.3829C30.0185 28.3829 32.4413 30.8055 32.4413 33.794 32.4413 36.7826 30.0185 39.2052 27.0301 39.2052ZM35.1469 39.2052 35.1469 30.412C35.1469 29.2913 36.0554 28.3829 37.1761 28.3829L40.558 28.3829M35.1469 33.7926 38.5288 33.7926" stroke="#484848" stroke-width="2.56515" stroke-linecap="round" stroke-linejoin="round" stroke-miterlimit="4" stroke-opacity="1" fill="none" fill-rule="evenodd" transform="matrix(1.06366 0 0 1 865.771 1645.27)"/><path d="M16.0528 13.9014 61.2322 13.9014C61.2322 13.9014 63.3835 13.9014 63.3835 16.0528L63.3835 61.2322C63.3835 61.2322 63.3835 63.3835 61.2322 63.3835L16.0528 63.3835C16.0528 63.3835 13.9014 63.3835 13.9014 61.2322L13.9014 16.0528C13.9014 16.0528 13.9014 13.9014 16.0528 13.9014M46.1724 51.5509C46.1724 54.5213 48.5805 56.9294 51.5509 56.9294 54.5213 56.9294 56.9294 54.5213 56.9294 51.5509 56.9294 48.582 54.778 47.2481 51.5509 46.1724 48.3238 45.0967 46.1724 43.7629 46.1724 40.7938 46.1724 37.8234 48.5805 35.4153 51.5509 35.4153 54.5213 35.4153 56.9294 37.8234 56.9294 40.7938M26.8098 50.4752C26.8098 54.0397 29.6994 56.9294 33.264 56.9294 36.8286 56.9294 39.7183 54.0397 39.7183 50.4752L39.7183 35.4153" stroke="#484848" stroke-width="2.56515" stroke-linecap="round" stroke-linejoin="round" stroke-miterlimit="4" stroke-opacity="1" fill="none" fill-rule="evenodd" transform="matrix(1.06366 0 0 1 274.542 1565.58)"/><path d="M47.1804 38.9352C47.1804 30.6902 40.4194 25.1935 32.0644 25.1935 23.7093 25.1935 16.9483 30.6902 16.9483 38.9352L16.9483 49.9288 47.1804 49.9288ZM32.0644 25.1935 32.0644 14.1999M16.9483 41.6837 47.1804 41.6837M26.5676 41.6837 26.5676 49.9288M37.5611 41.6837 37.5611 49.9288M25.1935 34.8128C25.1935 35.5717 25.8087 36.1869 26.5676 36.1869 27.3265 36.1869 27.9418 35.5717 27.9418 34.8128 27.9418 34.0538 27.3265 33.4385 26.5676 33.4385 25.8087 33.4385 25.1935 34.0538 25.1935 34.8128M36.1869 34.8128C36.1869 35.5717 36.8022 36.1869 37.5611 36.1869 38.32 36.1869 38.9352 35.5717 38.9352 34.8128 38.9352 34.0538 38.32 33.4385 37.5611 33.4385 36.8022 33.4385 36.1869 34.0538 36.1869 34.8128" stroke="#484848" stroke-width="2.56515" stroke-linecap="round" stroke-linejoin="round" stroke-miterlimit="4" stroke-opacity="1" fill="none" fill-rule="evenodd" transform="matrix(1.06366 0 0 1 1288.97 1669.79)"/><path d="M51.303 12.8257 51.303 27.3188 51.303 41.8119 32.0644 41.8119 12.8257 41.8119" stroke="#484848" stroke-width="2.56515" stroke-linecap="round" stroke-linejoin="round" stroke-miterlimit="4" stroke-opacity="1" fill="none" fill-rule="evenodd" transform="matrix(1.06366 0 0 1 1346.26 1660.08)"/><path d="M48.5018 28.6818C48.5018 26.4926 46.7271 24.7178 44.5379 24.7178L31.3244 24.7178 27.519 16.7898 18.1111 16.7898C15.9219 16.7898 14.1471 18.5645 14.1471 20.7537L14.1471 41.8952C14.1471 44.0844 15.9219 45.8592 18.1111 45.8592L44.5379 45.8592C46.7271 45.8592 48.5018 44.0844 48.5018 41.8952Z" stroke="#484848" stroke-width="2.56515" stroke-linecap="round" stroke-linejoin="round" stroke-miterlimit="4" stroke-opacity="1" fill="none" fill-rule="evenodd" transform="matrix(1.06366 0 0 1 392.398 1701.84)"/><path d="M49.9288 29.3159C49.9288 27.0391 48.0831 25.1935 45.8062 25.1935L32.0644 25.1935 28.1067 16.9483 18.3225 16.9483C16.0456 16.9483 14.1999 18.7941 14.1999 21.0709L14.1999 43.0578C14.1999 45.3346 16.0456 47.1804 18.3225 47.1804L45.8062 47.1804C48.0831 47.1804 49.9288 45.3346 49.9288 43.0578Z" stroke="#484848" stroke-width="2.56515" stroke-linecap="round" stroke-linejoin="round" stroke-miterlimit="4" stroke-opacity="1" fill="none" fill-rule="evenodd" transform="matrix(1.06366 0 0 1 578.642 1701.1)"/><path d="M51.0465 12.8257 31.9361 12.8257 12.8257 12.8257" stroke="#484848" stroke-width="2.56515" stroke-linecap="round" stroke-linejoin="round" stroke-miterlimit="4" stroke-opacity="1" fill="none" fill-rule="evenodd" transform="matrix(1.06366 0 0 1 1147.29 1689.03)"/><path d="M12.8257 12.8257 12.8257 26.421 12.8257 40.1446" stroke="#484848" stroke-width="2.56515" stroke-linecap="round" stroke-linejoin="round" stroke-miterlimit="4" stroke-opacity="1" fill="none" fill-rule="evenodd" transform="matrix(1.06366 0 0 1 1147.29 1689.03)"/><path d="M12.8257 12.8257 74.3893 12.8257 135.825 12.8257" stroke="#484848" stroke-width="2.56515" stroke-linecap="round" stroke-linejoin="round" stroke-miterlimit="4" stroke-dasharray="6.41287 8.97802" stroke-opacity="1" fill="none" fill-rule="evenodd" transform="matrix(1.06366 0 0 1 439.627 1720.34)"/><path d="M39.8587 40.3993 50.3714 40.3993C50.3714 40.3993 53.3751 40.3993 53.3751 43.403L53.3751 50.3714C53.3751 50.3714 53.3751 53.3751 50.3714 53.3751L39.8587 53.3751C39.8587 53.3751 36.855 53.3751 36.855 50.3714L36.855 43.403C36.855 43.403 36.855 40.3993 39.8587 40.3993M51.0022 40.4593 51.0022 37.8462C50.4337 35.0463 47.972 33.0344 45.1151 33.0344 42.2581 33.0344 39.7964 35.0463 39.2279 37.8462L39.2279 40.4593M29.3458 35.3531 17.3312 35.3531C15.6723 35.3531 14.3275 34.0084 14.3275 32.3495L14.3275 17.3312C14.3275 15.6723 15.6723 14.3275 17.3312 14.3275L44.3641 14.3275C46.023 14.3275 47.3678 15.6723 47.3678 17.3312L47.3678 23.3385M23.3385 24.8404C23.3385 25.6698 24.0109 26.3422 24.8404 26.3422 25.6698 26.3422 26.3422 25.6698 26.3422 24.8404 26.3422 24.0109 25.6698 23.3385 24.8404 23.3385 24.0109 23.3385 23.3385 24.0109 23.3385 24.8404M35.3531 24.8404C35.3531 25.6698 36.0256 26.3422 36.855 26.3422 37.6845 26.3422 38.3568 25.6698 38.3568 24.8404 38.3568 24.0109 37.6845 23.3385 36.855 23.3385 36.0256 23.3385 35.3531 24.0109 35.3531 24.8404" stroke="#484848" stroke-width="2.56515" stroke-linecap="round" stroke-linejoin="round" stroke-miterlimit="4" stroke-opacity="1" fill="none" fill-rule="evenodd" transform="matrix(1.06366 0 0 1 764.991 1714.3)"/><path d="M21.2793 14.2347 43.8224 14.2347C45.5131 14.2347 46.6402 15.3618 46.6402 17.0526L46.6402 48.0491C46.6402 49.7399 45.5131 50.867 43.8224 50.867L21.2793 50.867C19.5886 50.867 18.4615 49.7399 18.4615 48.0491L18.4615 17.0526C18.4615 15.3618 19.5886 14.2347 21.2793 14.2347ZM25.788 21.2793C25.788 21.5906 26.0402 21.8429 26.3515 21.8429 26.6628 21.8429 26.9151 21.5906 26.9151 21.2793 26.9151 20.9682 26.6628 20.7158 26.3515 20.7158 26.0402 20.7158 25.788 20.9682 25.788 21.2793M25.788 28.0422C25.788 28.3535 26.0402 28.6058 26.3515 28.6058 26.6628 28.6058 26.9151 28.3535 26.9151 28.0422 26.9151 27.7311 26.6628 27.4786 26.3515 27.4786 26.0402 27.4786 25.788 27.7311 25.788 28.0422M25.788 35.3687C25.788 35.6799 26.0402 35.9324 26.3515 35.9324 26.6628 35.9324 26.9151 35.6799 26.9151 35.3687 26.9151 35.0575 26.6628 34.8051 26.3515 34.8051 26.0402 34.8051 25.788 35.0575 25.788 35.3687" stroke="#484848" stroke-width="2.56515" stroke-linecap="round" stroke-linejoin="round" stroke-miterlimit="4" stroke-opacity="1" fill="none" fill-rule="evenodd" transform="matrix(1.06366 0 0 1 1129.9 1724.95)"/><path d="M54.9576 22.2652C54.7899 22.0378 54.5606 21.863 54.2968 21.7618L35.4177 14.6193C35.0566 14.4617 34.6461 14.4617 34.285 14.6193L15.4059 21.8876C15.1564 21.9538 14.9287 22.0839 14.7451 22.2652 14.5253 22.5311 14.4032 22.8643 14.399 23.2092L14.399 46.2417C14.4073 46.8846 14.806 47.4577 15.4059 47.6891L34.285 54.9576 34.8514 54.9576 35.4177 54.9576 54.2968 47.6891C54.8966 47.4577 55.2954 46.8846 55.3037 46.2417L55.3037 23.3352C55.3303 22.9472 55.2064 22.5641 54.9576 22.2652ZM34.8514 55.1778 34.8514 30.1315M34.8514 30.1315 34.8514 55.1778M14.7451 22.3912 34.8514 30.1315 54.9576 22.3912" stroke="#484848" stroke-width="2.56515" stroke-linecap="round" stroke-linejoin="round" stroke-miterlimit="4" stroke-opacity="1" fill="none" fill-rule="evenodd" transform="matrix(1.06366 0 0 1 763.927 2088.04)"/><path d="M12.8257 12.8257 32.0644 12.8257 51.1747 12.8257" stroke="#484848" stroke-width="2.56515" stroke-linecap="round" stroke-linejoin="round" stroke-miterlimit="4" stroke-opacity="1" fill="none" fill-rule="evenodd" transform="matrix(1.06366 0 0 1 1346.36 2124.14)"/><path d="M30.5922 30.5922C30.5922 39.0962 37.4861 45.9899 45.9899 45.9899 54.4938 45.9899 61.3876 39.0962 61.3876 30.5922 61.3876 22.0884 54.4938 15.1947 45.9899 15.1947 37.4861 15.1947 30.5922 22.0884 30.5922 30.5922M75.2692 76.7852C71.1881 64.0593 59.3542 55.4267 45.9899 55.4267 32.6256 55.4267 20.7917 64.0593 16.7107 76.7852Z" stroke="#484848" stroke-width="2.56515" stroke-linecap="round" stroke-linejoin="round" stroke-miterlimit="4" stroke-opacity="1" fill="none" fill-rule="evenodd" transform="matrix(1.06366 0 0 1 678.277 1771.85)"/><path d="M12.8257 12.8257 12.8257 75.0306 12.8257 137.235 12.8257 199.44 12.8257 261.773" stroke="#484848" stroke-width="2.56515" stroke-linecap="round" stroke-linejoin="round" stroke-miterlimit="4" stroke-opacity="1" fill="none" fill-rule="evenodd" transform="matrix(1.06366 0 0 1 787.355 1764.04)"/><path d="M43.2759 41.0203C43.2759 42.266 42.266 43.2759 41.0203 43.2759L16.209 43.2759C14.9634 43.2759 13.9535 42.266 13.9535 41.0203L13.9535 20.7202 20.7202 13.9535 41.0203 13.9535C42.266 13.9535 43.2759 14.9634 43.2759 16.209ZM20.7202 31.9981 36.5091 31.9981 36.5091 43.2759 20.7202 43.2759ZM22.9758 13.9535 36.5091 13.9535 36.5091 22.9758 22.9758 22.9758Z" stroke="#484848" stroke-width="2.56515" stroke-linecap="round" stroke-linejoin="round" stroke-miterlimit="4" stroke-opacity="1" fill="none" fill-rule="evenodd" transform="matrix(1.06366 0 0 1 867.722 1771.85)"/><path d="M12.8257 12.8257 12.8257 24.7536 12.8257 36.8098 31.9361 36.8098 51.0465 36.8098" stroke="#484848" stroke-width="2.56515" stroke-linecap="round" stroke-linejoin="round" stroke-miterlimit="4" stroke-opacity="1" fill="none" fill-rule="evenodd" transform="matrix(1.06366 0 0 1 1147.29 1773.15)"/><path d="M34.1115 27.3896C34.1115 30.4832 31.6035 32.9912 28.51 32.9912 25.4163 32.9912 22.9084 30.4832 22.9084 27.3896L22.9084 19.5476C22.9084 16.4539 25.4163 13.9461 28.51 13.9461 31.6035 13.9461 34.1115 16.4539 34.1115 19.5476ZM39.7129 28.51C39.7189 31.1858 38.6585 33.7539 36.7663 35.6461 34.8742 37.5383 32.3061 38.5986 29.6302 38.5927L27.3896 38.5927C24.7137 38.5986 22.1457 37.5383 20.2535 35.6461 18.3613 33.7539 17.301 31.1858 17.3069 28.51M28.51 38.5927 28.51 43.0739" stroke="#484848" stroke-width="2.56515" stroke-linecap="round" stroke-linejoin="round" stroke-miterlimit="4" stroke-opacity="1" fill="none" fill-rule="evenodd" transform="matrix(1.06366 0 0 1 868.445 1521.19)"/><path d="M23.1321 23.1321C23.1321 28.0653 27.1312 32.0644 32.0644 32.0644 36.9975 32.0644 40.9966 28.0653 40.9966 23.1321 40.9966 18.199 36.9975 14.1999 32.0644 14.1999 27.1312 14.1999 23.1321 18.199 23.1321 23.1321M49.0494 49.9288C46.6819 42.5465 39.817 37.5386 32.0644 37.5386 24.3117 37.5386 17.4469 42.5465 15.0794 49.9288Z" stroke="#484848" stroke-width="2.56515" stroke-linecap="round" stroke-linejoin="round" stroke-miterlimit="4" stroke-opacity="1" fill="none" fill-rule="evenodd" transform="matrix(1.06366 0 0 1 1204.37 1777.85)"/><path d="M15.3823 47.3401C15.0338 47.3398 14.7002 47.4818 14.459 47.7333 14.2176 47.9847 14.0895 48.3238 14.1041 48.672 14.6537 61.3861 22.8579 70.3496 35.8226 70.3496 49.2346 70.3496 63.9453 59.4763 63.9453 46.0617 65.6368 46.7805 67.5485 46.7775 69.2376 46.0537 70.9269 45.3296 72.2474 43.9474 72.8935 42.2268 72.2472 40.5095 70.9288 39.1298 69.2426 38.4061 67.5564 37.6824 65.6482 37.6773 63.9581 38.3919 65.2364 32.0004 57.5666 29.4438 57.5666 29.4438 57.5666 29.4438 53.7317 35.8353 57.5666 40.9485 57.5666 40.9485 58.8449 47.3401 53.7317 47.3401ZM29.431 56.2882C29.431 56.9943 30.0033 57.5666 30.7093 57.5666 31.4153 57.5666 31.9875 56.9943 31.9875 56.2882 31.9875 55.5823 31.4153 55.0099 30.7093 55.0099 30.0033 55.0099 29.431 55.5823 29.431 56.2882M19.2045 37.1136 29.431 37.1136 29.431 47.3401 19.2045 47.3401ZM29.431 37.1136 39.6575 37.1136 39.6575 47.3401 29.431 47.3401ZM39.6575 37.1136 49.8839 37.1136 49.8839 47.3401 39.6575 47.3401ZM29.431 26.8871 39.6575 26.8871 39.6575 37.1136 29.431 37.1136ZM29.431 16.6606 39.6575 16.6606 39.6575 26.8871 29.431 26.8871ZM39.6575 26.8871 49.8839 26.8871 49.8839 37.1136 39.6575 37.1136Z" stroke="#484848" stroke-width="2.56515" stroke-linecap="round" stroke-linejoin="round" stroke-miterlimit="4" stroke-opacity="1" fill="none" fill-rule="evenodd" transform="matrix(1.06366 0 0 1 269.031 1813.8)"/><path d="M52.7475 21.7702C52.5886 21.5546 52.3714 21.389 52.1214 21.293L34.2327 14.5252C33.8905 14.3759 33.5015 14.3759 33.1593 14.5252L15.2706 21.4123C15.0342 21.4749 14.8184 21.5983 14.6444 21.7702 14.4361 22.0221 14.3205 22.3377 14.3165 22.6646L14.3165 44.4889C14.3244 45.098 14.7022 45.6411 15.2706 45.8604L33.1593 52.7475 33.6959 52.7475 34.2327 52.7475 52.1214 45.8604C52.6898 45.6411 53.0676 45.098 53.0755 44.4889L53.0755 22.7838C53.1006 22.4163 52.9833 22.0532 52.7475 21.7702ZM33.6959 52.9562 33.6959 29.2238M33.6959 29.2238 33.6959 52.9562M14.6444 21.8894 33.6959 29.2238 52.7475 21.8894" stroke="#484848" stroke-width="2.56515" stroke-linecap="round" stroke-linejoin="round" stroke-miterlimit="4" stroke-opacity="1" fill="none" fill-rule="evenodd" transform="matrix(1.06366 0 0 1 389.875 1804.13)"/><path d="M12.8257 12.8257 32.0644 12.8257 51.303 12.8257" stroke="#484848" stroke-width="2.56515" stroke-linecap="round" stroke-linejoin="round" stroke-miterlimit="4" stroke-opacity="1" fill="none" fill-rule="evenodd" transform="matrix(1.06366 0 0 1 1346.26 1797.09)"/><path d="M12.8257 12.8257 12.8257 25.5232 12.8257 38.2207" stroke="#484848" stroke-width="2.56515" stroke-linecap="round" stroke-linejoin="round" stroke-miterlimit="4" stroke-opacity="1" fill="none" fill-rule="evenodd" transform="matrix(1.06366 0 0 1 1387.16 1797.09)"/><path d="M38.3636 27.8866 38.3636 42.2926C38.3636 43.0159 37.7773 43.6021 37.054 43.6021L14.7901 43.6021C14.0669 43.6021 13.4805 43.0159 13.4805 42.2926L13.4805 17.4095C13.4805 16.6862 14.0669 16.0998 14.7901 16.0998L31.8154 16.0998M29.6205 31.1698 23.1391 33.9463 25.9169 27.4635 39.9011 13.4805 43.6048 17.1842 29.6205 31.1698ZM41.2017 19.5888 37.4967 15.8838M29.6205 31.1698 25.9169 27.4635" stroke="#484848" stroke-width="2.56515" stroke-linecap="round" stroke-linejoin="round" stroke-miterlimit="4" stroke-opacity="1" fill="none" fill-rule="evenodd" transform="matrix(1.06366 0 0 1 868.445 1813.44)"/><path d="M47.1804 38.9352C47.1804 30.6902 40.4194 25.1935 32.0644 25.1935 23.7093 25.1935 16.9483 30.6902 16.9483 38.9352L16.9483 49.9288 47.1804 49.9288ZM32.0644 25.1935 32.0644 14.1999M16.9483 41.6837 47.1804 41.6837M26.5676 41.6837 26.5676 49.9288M37.5611 41.6837 37.5611 49.9288M25.1935 34.8128C25.1935 35.5717 25.8087 36.1869 26.5676 36.1869 27.3265 36.1869 27.9418 35.5717 27.9418 34.8128 27.9418 34.0538 27.3265 33.4385 26.5676 33.4385 25.8087 33.4385 25.1935 34.0538 25.1935 34.8128M36.1869 34.8128C36.1869 35.5717 36.8022 36.1869 37.5611 36.1869 38.32 36.1869 38.9352 35.5717 38.9352 34.8128 38.9352 34.0538 38.32 33.4385 37.5611 33.4385 36.8022 33.4385 36.1869 34.0538 36.1869 34.8128" stroke="#484848" stroke-width="2.56515" stroke-linecap="round" stroke-linejoin="round" stroke-miterlimit="4" stroke-opacity="1" fill="none" fill-rule="evenodd" transform="matrix(1.06366 0 0 1 1289.06 2104.9)"/><path d="M21.2793 14.2347 43.8224 14.2347C45.5131 14.2347 46.6402 15.3618 46.6402 17.0526L46.6402 48.0491C46.6402 49.7399 45.5131 50.867 43.8224 50.867L21.2793 50.867C19.5886 50.867 18.4615 49.7399 18.4615 48.0491L18.4615 17.0526C18.4615 15.3618 19.5886 14.2347 21.2793 14.2347ZM25.788 21.2793C25.788 21.5906 26.0402 21.8429 26.3515 21.8429 26.6628 21.8429 26.9151 21.5906 26.9151 21.2793 26.9151 20.9682 26.6628 20.7158 26.3515 20.7158 26.0402 20.7158 25.788 20.9682 25.788 21.2793M25.788 28.0422C25.788 28.3535 26.0402 28.6058 26.3515 28.6058 26.6628 28.6058 26.9151 28.3535 26.9151 28.0422 26.9151 27.7311 26.6628 27.4786 26.3515 27.4786 26.0402 27.4786 25.788 27.7311 25.788 28.0422M25.788 35.3687C25.788 35.6799 26.0402 35.9324 26.3515 35.9324 26.6628 35.9324 26.9151 35.6799 26.9151 35.3687 26.9151 35.0575 26.6628 34.8051 26.3515 34.8051 26.0402 34.8051 25.788 35.0575 25.788 35.3687" stroke="#484848" stroke-width="2.56515" stroke-linecap="round" stroke-linejoin="round" stroke-miterlimit="4" stroke-opacity="1" fill="none" fill-rule="evenodd" transform="matrix(1.06366 0 0 1 1370.85 1832.69)"/><path d="M12.8257 12.8257 12.8257 25.0102 12.8257 37.0664" stroke="#484848" stroke-width="2.56515" stroke-linecap="round" stroke-linejoin="round" stroke-miterlimit="4" stroke-opacity="1" fill="none" fill-rule="evenodd" transform="matrix(1.06366 0 0 1 1387.16 2099.86)"/><path d="M297.878 76.691C296.744 75.1518 295.192 73.9698 293.407 73.2849L165.677 24.9602C163.233 23.8939 160.456 23.8939 158.013 24.9602L30.2822 74.1364C28.5947 74.5834 27.0535 75.464 25.8117 76.691 24.3247 78.49 23.4983 80.7437 23.47 83.0775L23.47 238.909C23.5264 243.258 26.2239 247.135 30.2822 248.701L158.013 297.878 161.844 297.878 165.677 297.878 293.407 248.701C297.465 247.135 300.163 243.258 300.22 238.909L300.22 83.9291C300.399 81.305 299.561 78.7124 297.878 76.691ZM161.844 299.368 161.844 129.912M161.844 129.912 161.844 299.368M25.8117 77.5425 161.844 129.912 297.878 77.5425" stroke="#484848" stroke-width="2.56515" stroke-linecap="round" stroke-linejoin="round" stroke-miterlimit="4" stroke-opacity="1" fill="none" fill-rule="evenodd" transform="matrix(1.06366 0 0 1 143.495 1872.84)"/><path d="M33.428 78.7528 18.7592 99.767C17.4124 102.39 17.5696 105.532 19.1713 108.008 20.6802 110.422 23.3287 111.887 26.1759 111.881L114.848 111.881C117.695 111.887 120.343 110.422 121.853 108.008 123.325 105.458 123.325 102.317 121.853 99.767L107.596 78.7528M41.6688 29.3075C37.1175 29.3075 33.428 32.9971 33.428 37.5484L33.428 78.7528 107.596 78.7528 107.596 37.5484C107.596 32.9971 103.906 29.3075 99.3549 29.3075Z" stroke="#484848" stroke-width="2.56515" stroke-linecap="round" stroke-linejoin="round" stroke-miterlimit="4" stroke-opacity="1" fill="none" fill-rule="evenodd" transform="matrix(1.06366 0 0 1 572.871 1521.19)"/><path d="M47.1804 38.9352C47.1804 30.6902 40.4194 25.1935 32.0644 25.1935 23.7093 25.1935 16.9483 30.6902 16.9483 38.9352L16.9483 49.9288 47.1804 49.9288ZM32.0644 25.1935 32.0644 14.1999M16.9483 41.6837 47.1804 41.6837M26.5676 41.6837 26.5676 49.9288M37.5611 41.6837 37.5611 49.9288M25.1935 34.8128C25.1935 35.5717 25.8087 36.1869 26.5676 36.1869 27.3265 36.1869 27.9418 35.5717 27.9418 34.8128 27.9418 34.0538 27.3265 33.4385 26.5676 33.4385 25.8087 33.4385 25.1935 34.0538 25.1935 34.8128M36.1869 34.8128C36.1869 35.5717 36.8022 36.1869 37.5611 36.1869 38.32 36.1869 38.9352 35.5717 38.9352 34.8128 38.9352 34.0538 38.32 33.4385 37.5611 33.4385 36.8022 33.4385 36.1869 34.0538 36.1869 34.8128" stroke="#484848" stroke-width="2.56515" stroke-linecap="round" stroke-linejoin="round" stroke-miterlimit="4" stroke-opacity="1" fill="none" fill-rule="evenodd" transform="matrix(1.06366 0 0 1 1288.97 1889.43)"/><path d="M12.8257 12.8257 12.8257 27.4471 12.8257 42.0684" stroke="#484848" stroke-width="2.56515" stroke-linecap="round" stroke-linejoin="round" stroke-miterlimit="4" stroke-opacity="1" fill="none" fill-rule="evenodd" transform="matrix(1.06366 0 0 1 1387.16 1879.4)"/><path d="M56.8069 62.0427C51.6018 62.0427 47.3824 57.8232 47.3824 52.6183L47.3824 25.8861C47.4822 19.8318 43.0032 14.6755 36.9945 13.9273 33.7581 13.6081 30.5377 14.6716 28.1281 16.8555 25.7186 19.0392 24.3443 22.1398 24.3447 25.3918 24.3447 25.3918 19.1088 27.4861 19.1088 30.6276 22.6371 30.6449 26.16 30.9009 29.6538 31.3942 33.8105 31.9552 36.9116 35.5038 36.9107 39.6982L36.9107 41.1265C36.9107 41.1265 34.6236 40.6302 31.3439 43.91 29.7265 45.4816 28.4615 47.3792 27.6327 49.4767 27.6327 49.4767 31.3229 48.861 34.699 48.6389 35.2745 48.6066 35.8378 48.813 36.2563 49.2093 36.6748 49.6056 36.9116 50.1569 36.9107 50.7333L36.9107 62.0427ZM23.7812 36.1315C22.7615 39.7947 22.2464 43.58 22.2502 47.3824 22.0591 52.4546 23.1391 57.4942 25.3918 62.0427M36.9107 62.0427 21.2031 62.0427M32.5964 23.0922C32.5964 23.3813 32.8307 23.6158 33.1199 23.6158 33.409 23.6158 33.6435 23.3813 33.6435 23.0922 33.6435 22.803 33.409 22.5686 33.1199 22.5686 32.8307 22.5686 32.5964 22.803 32.5964 23.0922Z" stroke="#484848" stroke-width="2.56515" stroke-linecap="round" stroke-linejoin="round" stroke-miterlimit="4" stroke-opacity="1" fill="none" fill-rule="evenodd" transform="matrix(1.06366 0 0 1 275.265 1909.65)"/><path d="M24.1633 16.605 107.306 16.605C107.306 16.605 114.864 16.605 114.864 24.1633L114.864 107.306C114.864 107.306 114.864 114.864 107.306 114.864L24.1633 114.864C24.1633 114.864 16.605 114.864 16.605 107.306L16.605 24.1633C16.605 24.1633 16.605 16.605 24.1633 16.605M16.605 39.2801 114.864 39.2801" stroke="#484848" stroke-width="2.56515" stroke-linecap="round" stroke-linejoin="round" stroke-miterlimit="4" stroke-opacity="1" fill="none" fill-rule="evenodd" transform="matrix(1.06366 0 0 1 245.73 1526.03)"/><path d="M12.8257 12.8257 12.8257 26.421 12.8257 40.1446" stroke="#484848" stroke-width="2.56515" stroke-linecap="round" stroke-linejoin="round" stroke-miterlimit="4" stroke-opacity="1" fill="none" fill-rule="evenodd" transform="matrix(1.06366 0 0 1 1147.29 1907.99)"/><path d="M51.0465 13.467 31.9361 13.2105 12.8257 12.8257" stroke="#484848" stroke-width="2.56515" stroke-linecap="round" stroke-linejoin="round" stroke-miterlimit="4" stroke-opacity="1" fill="none" fill-rule="evenodd" transform="matrix(1.06366 0 0 1 1147.29 1907.99)"/><path d="M12.8257 12.8257 32.0644 12.8257 51.303 12.8257" stroke="#484848" stroke-width="2.56515" stroke-linecap="round" stroke-linejoin="round" stroke-miterlimit="4" stroke-opacity="1" fill="none" fill-rule="evenodd" transform="matrix(1.06366 0 0 1 1346.26 1908.67)"/><path d="M79.0352 63.145C79.0352 47.2547 66.0053 36.6611 49.9031 36.6611 33.801 36.6611 20.7709 47.2547 20.7709 63.145L20.7709 84.332 79.0352 84.332ZM49.9031 36.6611 49.9031 15.4741M20.7709 68.4418 79.0352 68.4418M39.3095 68.4418 39.3095 84.332M60.4966 68.4418 60.4966 84.332M36.6611 55.1998C36.6611 56.6625 37.8469 57.8482 39.3095 57.8482 40.7721 57.8482 41.9579 56.6625 41.9579 55.1998 41.9579 53.7372 40.7721 52.5514 39.3095 52.5514 37.8469 52.5514 36.6611 53.7372 36.6611 55.1998M57.8482 55.1998C57.8482 56.6625 59.034 57.8482 60.4966 57.8482 61.9593 57.8482 63.145 56.6625 63.145 55.1998 63.145 53.7372 61.9593 52.5514 60.4966 52.5514 59.034 52.5514 57.8482 53.7372 57.8482 55.1998" stroke="#484848" stroke-width="2.56515" stroke-linecap="round" stroke-linejoin="round" stroke-miterlimit="4" stroke-opacity="1" fill="none" fill-rule="evenodd" transform="matrix(1.06366 0 0 1 674.115 1955.21)"/><path d="M21.2793 14.2347 43.8224 14.2347C45.5131 14.2347 46.6402 15.3618 46.6402 17.0526L46.6402 48.0491C46.6402 49.7399 45.5131 50.867 43.8224 50.867L21.2793 50.867C19.5886 50.867 18.4615 49.7399 18.4615 48.0491L18.4615 17.0526C18.4615 15.3618 19.5886 14.2347 21.2793 14.2347ZM25.788 21.2793C25.788 21.5906 26.0402 21.8429 26.3515 21.8429 26.6628 21.8429 26.9151 21.5906 26.9151 21.2793 26.9151 20.9682 26.6628 20.7158 26.3515 20.7158 26.0402 20.7158 25.788 20.9682 25.788 21.2793M25.788 28.0422C25.788 28.3535 26.0402 28.6058 26.3515 28.6058 26.6628 28.6058 26.9151 28.3535 26.9151 28.0422 26.9151 27.7311 26.6628 27.4786 26.3515 27.4786 26.0402 27.4786 25.788 27.7311 25.788 28.0422M25.788 35.3687C25.788 35.6799 26.0402 35.9324 26.3515 35.9324 26.6628 35.9324 26.9151 35.6799 26.9151 35.3687 26.9151 35.0575 26.6628 34.8051 26.3515 34.8051 26.0402 34.8051 25.788 35.0575 25.788 35.3687" stroke="#484848" stroke-width="2.56515" stroke-linecap="round" stroke-linejoin="round" stroke-miterlimit="4" stroke-opacity="1" fill="none" fill-rule="evenodd" transform="matrix(1.06366 0 0 1 1129.9 1944.58)"/><path d="M16.2284 13.969 63.8666 13.969C63.8666 13.969 66.1351 13.969 66.1351 16.2375L66.1351 63.8757C66.1351 63.8757 66.1351 66.1442 63.8666 66.1442L16.2284 66.1442C16.2284 66.1442 13.9599 66.1442 13.9599 63.8757L13.9599 16.2375C13.9599 16.2375 13.9599 13.969 16.2284 13.969M38.9133 43.4503C38.9133 45.9559 36.882 47.9873 34.3763 47.9873L29.8394 47.9873 29.8394 38.9133 34.3763 38.9133C36.882 38.9133 38.9133 40.9445 38.9133 43.4503ZM29.8394 57.0702 29.8394 47.9962M38.9133 57.0702 29.8394 47.9962M52.5243 43.4503C52.5243 45.9559 50.4929 47.9873 47.9873 47.9873L43.4503 47.9873 43.4503 38.9133 47.9873 38.9133C50.4929 38.9133 52.5243 40.9445 52.5243 43.4503ZM52.5243 52.5243C52.5243 55.0299 50.4929 57.0611 47.9873 57.0611L43.4503 57.0611 43.4503 47.9873 47.9873 47.9873C50.4929 47.9873 52.5243 50.0185 52.5243 52.5243Z" stroke="#484848" stroke-width="2.56515" stroke-linecap="round" stroke-linejoin="round" stroke-miterlimit="4" stroke-opacity="1" fill="none" fill-rule="evenodd" transform="matrix(1.06366 0 0 1 181.025 1986.6)"/><path d="M14.4692 22.6863C14.4692 27.2246 24.0344 30.9035 35.8338 30.9035 47.6333 30.9035 57.1985 27.2246 57.1985 22.6863 57.1985 18.1482 47.6333 14.4692 35.8338 14.4692 24.0344 14.4692 14.4692 18.1482 14.4692 22.6863M14.4692 22.6863 14.4692 48.9813C14.4692 53.5172 24.034 57.1985 35.8338 57.1985 47.6337 57.1985 57.1985 53.5172 57.1985 48.9813L57.1985 22.6863M57.1985 35.8338C57.1985 40.3697 47.6337 44.051 35.8338 44.051 24.034 44.051 14.4692 40.3697 14.4692 35.8338" stroke="#484848" stroke-width="2.56515" stroke-linecap="round" stroke-linejoin="round" stroke-miterlimit="4" stroke-opacity="1" fill="none" fill-rule="evenodd" transform="matrix(1.06366 0 0 1 384.99 1978.98)"/><path d="M20.5474 36.6084 27.4748 20.4371C27.6084 20.1164 27.9216 19.9076 28.269 19.9076 28.6164 19.9076 28.9296 20.1164 29.0633 20.4371L35.9906 36.6084M23.1728 30.4753 33.3653 30.4753M16.135 13.9289 40.403 13.9289C40.403 13.9289 42.6092 13.9289 42.6092 16.135L42.6092 40.403C42.6092 40.403 42.6092 42.6092 40.403 42.6092L16.135 42.6092C16.135 42.6092 13.9289 42.6092 13.9289 40.403L13.9289 16.135C13.9289 16.135 13.9289 13.9289 16.135 13.9289" stroke="#484848" stroke-width="2.56515" stroke-linecap="round" stroke-linejoin="round" stroke-miterlimit="4" stroke-opacity="1" fill="none" fill-rule="evenodd" transform="matrix(1.06366 0 0 1 868.704 1478.6)"/><path d="M12.8257 12.8257 12.8257 24.7537 12.8257 36.8099 31.9361 36.8099 51.0465 36.8099" stroke="#484848" stroke-width="2.56515" stroke-linecap="round" stroke-linejoin="round" stroke-miterlimit="4" stroke-opacity="1" fill="none" fill-rule="evenodd" transform="matrix(1.06366 0 0 1 1147.29 1992.13)"/><path d="M23.1321 23.1321C23.1321 28.0653 27.1312 32.0644 32.0644 32.0644 36.9975 32.0644 40.9966 28.0653 40.9966 23.1321 40.9966 18.199 36.9975 14.1999 32.0644 14.1999 27.1312 14.1999 23.1321 18.199 23.1321 23.1321M49.0494 49.9288C46.6819 42.5465 39.817 37.5386 32.0644 37.5386 24.3117 37.5386 17.4469 42.5465 15.0794 49.9288Z" stroke="#484848" stroke-width="2.56515" stroke-linecap="round" stroke-linejoin="round" stroke-miterlimit="4" stroke-opacity="1" fill="none" fill-rule="evenodd" transform="matrix(1.06366 0 0 1 1204.37 1996.82)"/><path d="M52.4023 57.3494 19.4219 57.3494C17.6004 57.3494 16.1238 55.8728 16.1238 54.0514L16.1238 17.7728C16.1238 15.9514 17.6004 14.4748 19.4219 14.4748L52.4023 14.4748C54.2238 14.4748 55.7004 15.9514 55.7004 17.7728L55.7004 54.0514C55.7004 55.8728 54.2238 57.3494 52.4023 57.3494ZM26.0179 14.4748 26.0179 57.3494M37.5611 26.0179 44.1572 26.0179" stroke="#484848" stroke-width="2.56515" stroke-linecap="round" stroke-linejoin="round" stroke-miterlimit="4" stroke-opacity="1" fill="none" fill-rule="evenodd" transform="matrix(1.06366 0 0 1 320.79 2021.86)"/><path d="M62.9571 42.6913C62.9598 39.796 61.783 37.0246 59.6982 35.0157 57.6132 33.0069 54.8 31.9339 51.9068 32.0442 49.0022 25.8763 42.2837 22.4645 35.5899 23.758 28.8961 25.0515 23.9325 30.7206 23.5346 37.5266 21.1759 37.0325 18.7202 37.6279 16.8496 39.1471 14.9789 40.6665 13.8926 42.9479 13.8923 45.3579 13.8923 53.4855 22.4254 53.3575 22.4254 53.3575L53.3575 53.3575C53.3575 53.3575 62.9571 52.1074 62.9571 42.6913Z" stroke="#484848" stroke-width="2.56515" stroke-linecap="round" stroke-linejoin="round" stroke-miterlimit="4" stroke-opacity="1" fill="none" fill-rule="evenodd" transform="matrix(1.06366 0 0 1 760.126 2020.63)"/><path d="M12.8257 12.8257 32.0644 12.8257 51.303 12.8257" stroke="#484848" stroke-width="2.56515" stroke-linecap="round" stroke-linejoin="round" stroke-miterlimit="4" stroke-opacity="1" fill="none" fill-rule="evenodd" transform="matrix(1.06366 0 0 1 1346.26 2016.05)"/><path d="M12.8257 12.8257 12.8257 26.2928 12.8257 39.7598" stroke="#484848" stroke-width="2.56515" stroke-linecap="round" stroke-linejoin="round" stroke-miterlimit="4" stroke-opacity="1" fill="none" fill-rule="evenodd" transform="matrix(1.06366 0 0 1 1387.16 2016.05)"/><path d="M16.1465 13.9416 62.6373 13.9416C62.6373 13.9416 64.8512 13.9416 64.8512 16.1554L64.8512 62.6462C64.8512 62.6462 64.8512 64.8601 62.6373 64.8601L16.1465 64.8601C16.1465 64.8601 13.9327 64.8601 13.9327 62.6462L13.9327 16.1554C13.9327 16.1554 13.9327 13.9416 16.1465 13.9416M51.5681 38.285 51.5681 42.7127C51.5681 45.158 49.5857 47.1404 47.1404 47.1404 44.695 47.1404 42.7127 45.158 42.7127 42.7127L42.7127 38.285M47.1404 47.1492 47.1404 56.0046M38.285 42.7127C38.285 45.158 36.3026 47.1404 33.8573 47.1404L29.4296 47.1404 29.4296 38.285 33.8573 38.285C36.3026 38.285 38.285 40.2673 38.285 42.7127ZM29.4296 56.0046 29.4296 47.1492" stroke="#484848" stroke-width="2.56515" stroke-linecap="round" stroke-linejoin="round" stroke-miterlimit="4" stroke-opacity="1" fill="none" fill-rule="evenodd" transform="matrix(1.06366 0 0 1 222.565 2063.55)"/><path d="M13.8409 37.19C13.8409 50.0853 24.2947 60.5391 37.19 60.5391 50.0853 60.5391 60.5391 50.0853 60.5391 37.19 60.5391 24.2947 50.0853 13.8409 37.19 13.8409 24.2947 13.8409 13.8409 24.2947 13.8409 37.19M27.8138 37.19C27.8134 42.3687 32.0114 46.5669 37.19 46.5669 42.3687 46.5669 46.5667 42.3687 46.5662 37.19 46.5667 32.0114 42.3687 27.813 37.19 27.813 32.0114 27.813 27.8134 32.0114 27.8138 37.19M37.19 27.8138 58.5757 27.8138M40.398 46.0038 33.038 60.1635M27.9052 35.8825 18.5635 23.1115" stroke="#484848" stroke-width="2.56515" stroke-linecap="round" stroke-linejoin="round" stroke-miterlimit="4" stroke-opacity="1" fill="none" fill-rule="evenodd" transform="matrix(1.06366 0 0 1 382.112 2054.59)"/><path d="M21.2793 14.2347 43.8224 14.2347C45.5131 14.2347 46.6402 15.3618 46.6402 17.0526L46.6402 48.0491C46.6402 49.7399 45.5131 50.867 43.8224 50.867L21.2793 50.867C19.5886 50.867 18.4615 49.7399 18.4615 48.0491L18.4615 17.0526C18.4615 15.3618 19.5886 14.2347 21.2793 14.2347ZM25.788 21.2793C25.788 21.5906 26.0402 21.8429 26.3515 21.8429 26.6628 21.8429 26.9151 21.5906 26.9151 21.2793 26.9151 20.9682 26.6628 20.7158 26.3515 20.7158 26.0402 20.7158 25.788 20.9682 25.788 21.2793M25.788 28.0422C25.788 28.3535 26.0402 28.6058 26.3515 28.6058 26.6628 28.6058 26.9151 28.3535 26.9151 28.0422 26.9151 27.7311 26.6628 27.4786 26.3515 27.4786 26.0402 27.4786 25.788 27.7311 25.788 28.0422M25.788 35.3687C25.788 35.6799 26.0402 35.9324 26.3515 35.9324 26.6628 35.9324 26.9151 35.6799 26.9151 35.3687 26.9151 35.0575 26.6628 34.8051 26.3515 34.8051 26.0402 34.8051 25.788 35.0575 25.788 35.3687" stroke="#484848" stroke-width="2.56515" stroke-linecap="round" stroke-linejoin="round" stroke-miterlimit="4" stroke-opacity="1" fill="none" fill-rule="evenodd" transform="matrix(1.06366 0 0 1 1370.85 2052.02)"/><path d="M28.3653 47.466 15.0987 47.466C14.2847 47.466 13.6247 46.8061 13.6247 45.992L13.6247 15.0368C13.6247 14.2227 14.2847 13.5627 15.0987 13.5627L34.6934 13.5627C35.0857 13.5655 35.4609 13.7247 35.7355 14.0049L41.1999 19.459C41.4763 19.7354 41.6316 20.1103 41.6317 20.5012L41.6317 25.3552M22.469 23.1501 18.0469 27.5721 22.469 31.9943M26.8912 23.1501 31.3133 27.5721 26.8912 31.9943M29.8394 38.6276C29.8394 43.5122 33.799 47.4719 38.6836 47.4719 43.5682 47.4719 47.528 43.5122 47.528 38.6276 47.528 33.743 43.5682 29.7833 38.6836 29.7833 33.799 29.7833 29.8394 33.743 29.8394 38.6276ZM38.6836 34.2055 38.6836 43.0497M43.1058 38.6276 34.2614 38.6276" stroke="#484848" stroke-width="2.56515" stroke-linecap="round" stroke-linejoin="round" stroke-miterlimit="4" stroke-opacity="1" fill="none" fill-rule="evenodd" transform="matrix(1.06366 0 0 1 396.328 1757.6)"/><path d="M12.8257 12.8257 63.3592 12.8257 113.893 12.8257" stroke="#484848" stroke-width="1.28257" stroke-linecap="round" stroke-linejoin="round" stroke-miterlimit="4" stroke-opacity="1" fill="none" fill-rule="evenodd" transform="matrix(1.06366 0 0 1 124.342 1748.04)"/><path d="M197.516 12.8257 105.171 12.8257 15.3909 12.8257" stroke="#484848" stroke-width="2.56515" stroke-linecap="round" stroke-linejoin="round" stroke-miterlimit="4" stroke-dasharray="6.41287 8.97802" stroke-opacity="1" fill="none" fill-rule="evenodd" transform="matrix(1.06366 0 0 1 468.126 1805.01)"/><path d="M23.0863 4.48901 14.7496 12.8257 23.0863 21.1625" stroke="#484848" stroke-width="2.56515" stroke-linecap="round" stroke-linejoin="round" stroke-miterlimit="4" stroke-opacity="1" fill="none" fill-rule="evenodd" transform="matrix(1.06366 0 0 1 468.126 1805.01)"/><path d="M115.56 12.8257 65.4113 12.8257 15.3909 12.8257" stroke="#484848" stroke-width="2.56515" stroke-linecap="round" stroke-linejoin="round" stroke-miterlimit="4" stroke-dasharray="6.41287 8.97802" stroke-opacity="1" fill="none" fill-rule="evenodd" transform="matrix(1.06366 0 0 1 1001.55 1815.99)"/><path d="M107.865 21.1625 116.201 12.8257 107.865 4.48901" stroke="#484848" stroke-width="2.56515" stroke-linecap="round" stroke-linejoin="round" stroke-miterlimit="4" stroke-opacity="1" fill="none" fill-rule="evenodd" transform="matrix(1.06366 0 0 1 1001.55 1815.99)"/><path d="M23.0863 4.48901 14.7496 12.8257 23.0863 21.1625" stroke="#484848" stroke-width="2.56515" stroke-linecap="round" stroke-linejoin="round" stroke-miterlimit="4" stroke-opacity="1" fill="none" fill-rule="evenodd" transform="matrix(1.06366 0 0 1 1001.55 1815.99)"/><path d="M12.8257 12.8257 63.3592 12.8257 113.893 12.8257" stroke="#484848" stroke-width="1.28257" stroke-linecap="round" stroke-linejoin="round" stroke-miterlimit="4" stroke-opacity="1" fill="none" fill-rule="evenodd" transform="matrix(1.06366 0 0 1 125.706 1839.1)"/><path d="M12.8257 15.3909 12.8257 50.6617 12.8257 85.9325" stroke="#000000" stroke-width="2.56515" stroke-linecap="round" stroke-linejoin="round" stroke-miterlimit="4" stroke-dasharray="6.41287 8.97802" stroke-opacity="1" fill="none" fill-rule="evenodd" transform="matrix(1.06366 0 0 1 713.552 1854.49)"/><path d="M21.1625 23.0863 12.8257 14.7496 4.48901 23.0863" stroke="#000000" stroke-width="2.56515" stroke-linecap="round" stroke-linejoin="round" stroke-miterlimit="4" stroke-opacity="1" fill="none" fill-rule="evenodd" transform="matrix(1.06366 0 0 1 713.552 1854.49)"/><path d="M4.48901 78.237 12.8257 86.5738 21.1625 78.237" stroke="#000000" stroke-width="2.56515" stroke-linecap="round" stroke-linejoin="round" stroke-miterlimit="4" stroke-opacity="1" fill="none" fill-rule="evenodd" transform="matrix(1.06366 0 0 1 713.552 1854.49)"/><path d="M197.516 12.8257 105.171 12.8257 15.3909 12.8257" stroke="#000000" stroke-width="2.56515" stroke-linecap="round" stroke-linejoin="round" stroke-miterlimit="4" stroke-dasharray="6.41287 8.97802" stroke-opacity="1" fill="none" fill-rule="evenodd" transform="matrix(1.06366 0 0 1 468.126 2001.99)"/><path d="M23.0863 4.48901 14.7496 12.8257 23.0863 21.1625" stroke="#000000" stroke-width="2.56515" stroke-linecap="round" stroke-linejoin="round" stroke-miterlimit="4" stroke-opacity="1" fill="none" fill-rule="evenodd" transform="matrix(1.06366 0 0 1 468.126 2001.99)"/><path d="M12.8257 12.8257 141.468 12.8257 267.545 12.8257" stroke="#484848" stroke-width="2.56515" stroke-linecap="round" stroke-linejoin="round" stroke-miterlimit="4" stroke-opacity="1" fill="none" fill-rule="evenodd" transform="matrix(1.06366 0 0 1 468.126 2078.95)"/><path d="M259.85 21.1625 268.186 12.8257 259.85 4.48901" stroke="#484848" stroke-width="2.56515" stroke-linecap="round" stroke-linejoin="round" stroke-miterlimit="4" stroke-opacity="1" fill="none" fill-rule="evenodd" transform="matrix(1.06366 0 0 1 468.126 2078.95)"/></g></g></g></g></g></svg>