<?xml version="1.0" encoding="utf-8" standalone="yes"?>
<!DOCTYPE svg PUBLIC "-//W3C//DTD SVG 1.1//EN" "http://www.w3.org/Graphics/SVG/1.1/DTD/svg11.dtd">
<svg width="320" height="590" viewBox="0 0 320 590" style="fill:none;stroke:none;fill-rule:evenodd;clip-rule:evenodd;stroke-linecap:round;stroke-linejoin:round;stroke-miterlimit:1.5;" version="1.1" xmlns="http://www.w3.org/2000/svg" xmlns:xlink="http://www.w3.org/1999/xlink"><style id="fontImports">@import url("https://fonts.googleapis.com/css2?family=Roboto:wght@400;700&amp;display=block");</style><rect id="" x="0" y="0" width="319.551" height="590" style="fill: #ffffff;"></rect><g id="items" style="isolation: isolate"><g id="blend" style="mix-blend-mode:multiply"><g id="g-root-ro_4hc4fx1vqvxtw-fill" data-item-order="-165563" data-item-id="ro_4hc4fx1vqvxtw" data-item-class="Shape Stroke Fill" data-item-index="none" data-renderer-id="0" transform="translate(3, 3)"><g id="ro_4hc4fx1vqvxtw-fill" stroke="none" fill="#fef2e6"><g><path d="M 22 9.999008L 291.55 9.999008C 291.55 9.999008 303.55 9.999008 303.55 21.999008L 303.55 561.999008C 303.55 561.999008 303.55 573.999008 291.55 573.999008L 22 573.999008C 22 573.999008 10 573.999008 10 561.999008L 10 21.999008C 10 21.999008 10 9.999008 22 9.999008"></path></g></g></g><g id="g-root-re_4g27hp1y8mole-fill" data-item-order="0" data-item-id="re_4g27hp1y8mole" data-item-class="Shape Stroke Fill" data-item-index="none" data-renderer-id="0" transform="translate(86.12774658203125, 65.239990234375)"></g><g id="g-root-sing_4g27hp1y8molf-fill" data-item-order="0" data-item-id="sing_4g27hp1y8molf" data-item-class="Icon Stroke ColorFillBlack ColorStrokeBlack" data-item-index="none" data-renderer-id="0" transform="translate(98.12774658203125, 77.239990234375)"></g><g id="g-root-tx_4g27hp1y8molg-fill" data-item-order="0" data-item-id="tx_4g27hp1y8molg" data-item-class="Label Stroke" data-item-index="none" data-renderer-id="0" transform="translate(134.12774658203125, 80.239990234375)"><g id="tx_4g27hp1y8molg-fill" stroke="none" fill="#484848"><g><text style="font: 20px Roboto, sans-serif; white-space: pre;"><tspan x="14.1" y="33.5" dominant-baseline="ideographic">...</tspan></text></g></g></g><g id="g-root-cn_4g27hp1y8molh-fill" data-item-order="0" data-item-id="cn_4g27hp1y8molh" data-item-class="Curve Stroke" data-item-index="none" data-renderer-id="0" transform="translate(202.142333984375, 92.239990234375)"></g><g id="g-root-2_4g27hp1y8molj-fill" data-item-order="0" data-item-id="2_4g27hp1y8molj" data-item-class="Icon Stroke ColorFillBlack ColorStrokeBlack" data-item-index="none" data-renderer-id="0" transform="translate(219, 117)"></g><g id="g-root-re_4g27hp1y8moll-fill" data-item-order="0" data-item-id="re_4g27hp1y8moll" data-item-class="Shape Stroke Fill" data-item-index="none" data-renderer-id="0" transform="translate(86.12774658203125, 151.989990234375)"></g><g id="g-root-tx_4g27hp1y8molm-fill" data-item-order="0" data-item-id="tx_4g27hp1y8molm" data-item-class="Label Stroke" data-item-index="none" data-renderer-id="0" transform="translate(130.142333984375, 166.989990234375)"><g id="tx_4g27hp1y8molm-fill" stroke="none" fill="#484848"><g><text style="font: 20px Roboto, sans-serif; white-space: pre;"><tspan x="14.1" y="33.5" dominant-baseline="ideographic">...</tspan></text></g></g></g><g id="g-root-cybo_4g27hp1y8moln-fill" data-item-order="0" data-item-id="cybo_4g27hp1y8moln" data-item-class="Icon Stroke ColorFillBlack ColorStrokeBlack" data-item-index="none" data-renderer-id="0" transform="translate(160.142333984375, 163.989990234375)"></g><g id="g-root-cn_4g27hp1y8molo-fill" data-item-order="0" data-item-id="cn_4g27hp1y8molo" data-item-class="Curve Stroke" data-item-index="none" data-renderer-id="0" transform="translate(202.142333984375, 156.419921875)"></g><g id="g-root-cn_4g27hp1y8molq-fill" data-item-order="0" data-item-id="cn_4g27hp1y8molq" data-item-class="Curve Stroke" data-item-index="none" data-renderer-id="0" transform="translate(56.84185791015625, 178.989990234375)"></g><g id="g-root-cn_8vvpm51y8molc-fill" data-item-order="0" data-item-id="cn_8vvpm51y8molc" data-item-class="Curve Stroke" data-item-index="none" data-renderer-id="0" transform="translate(56.84185791015625, 178.989990234375)"></g><g id="g-root-2_8vvpm51y8molf-fill" data-item-order="0" data-item-id="2_8vvpm51y8molf" data-item-class="Icon Stroke ColorFillBlack ColorStrokeBlack" data-item-index="none" data-renderer-id="0" transform="translate(39, 206.241455078125)"></g><g id="g-root-cn_8vvpm51y8molh-fill" data-item-order="0" data-item-id="cn_8vvpm51y8molh" data-item-class="Curve Stroke" data-item-index="none" data-renderer-id="0" transform="translate(56.84185791015625, 244.5799560546875)"></g><g id="g-root-re_8vvpm51y8molj-fill" data-item-order="0" data-item-id="re_8vvpm51y8molj" data-item-class="Shape Stroke Fill" data-item-index="none" data-renderer-id="0" transform="translate(86.12762451171875, 236.239990234375)"></g><g id="g-root-sing_8vvpm51y8molk-fill" data-item-order="0" data-item-id="sing_8vvpm51y8molk" data-item-class="Icon Stroke ColorFillBlack ColorStrokeBlack" data-item-index="none" data-renderer-id="0" transform="translate(98.127685546875, 248.239990234375)"></g><g id="g-root-tx_8vvpm51y8molm-fill" data-item-order="0" data-item-id="tx_8vvpm51y8molm" data-item-class="Label Stroke" data-item-index="none" data-renderer-id="0" transform="translate(134.127685546875, 251.239990234375)"><g id="tx_8vvpm51y8molm-fill" stroke="none" fill="#484848"><g><text style="font: 20px Roboto, sans-serif; white-space: pre;"><tspan x="14.1" y="33.5" dominant-baseline="ideographic">...</tspan></text></g></g></g><g id="g-root-cn_8vvpm51y8moln-fill" data-item-order="0" data-item-id="cn_8vvpm51y8moln" data-item-class="Curve Stroke" data-item-index="none" data-renderer-id="0" transform="translate(202.142333984375, 263.239990234375)"></g><g id="g-root-cn_8vvpm51y8molq-fill" data-item-order="0" data-item-id="cn_8vvpm51y8molq" data-item-class="Curve Stroke" data-item-index="none" data-renderer-id="0" transform="translate(232.67169189453125, 263.239990234375)"></g><g id="g-root-2_dbp7ql1y8molc-fill" data-item-order="0" data-item-id="2_dbp7ql1y8molc" data-item-class="Icon Stroke ColorFillBlack ColorStrokeBlack" data-item-index="none" data-renderer-id="0" transform="translate(219, 290.241455078125)"></g><g id="g-root-re_dbp7ql1y8mole-fill" data-item-order="0" data-item-id="re_dbp7ql1y8mole" data-item-class="Shape Stroke Fill" data-item-index="none" data-renderer-id="0" transform="translate(86.127685546875, 323.239990234375)"></g><g id="g-root-cn_dbp7ql1y8molf-fill" data-item-order="0" data-item-id="cn_dbp7ql1y8molf" data-item-class="Curve Stroke" data-item-index="none" data-renderer-id="0" transform="translate(56.84185791015625, 349.7099609375)"></g><g id="g-root-cn_4g27hp1y8mpe5-fill" data-item-order="0" data-item-id="cn_4g27hp1y8mpe5" data-item-class="Curve Stroke" data-item-index="none" data-renderer-id="0" transform="translate(56.84185791015625, 349.7099609375)"></g><g id="g-root-tx_4g27hp1y8mpe7-fill" data-item-order="0" data-item-id="tx_4g27hp1y8mpe7" data-item-class="Label Stroke" data-item-index="none" data-renderer-id="0" transform="translate(130.142333984375, 338.239990234375)"><g id="tx_4g27hp1y8mpe7-fill" stroke="none" fill="#484848"><g><text style="font: 20px Roboto, sans-serif; white-space: pre;"><tspan x="14.1" y="33.5" dominant-baseline="ideographic">...</tspan></text></g></g></g><g id="g-root-cybo_8vvpm51y8mpds-fill" data-item-order="0" data-item-id="cybo_8vvpm51y8mpds" data-item-class="Icon Stroke ColorFillBlack ColorStrokeBlack" data-item-index="none" data-renderer-id="0" transform="translate(160.142333984375, 335.239990234375)"></g><g id="g-root-cn_8vvpm51y8mpdt-fill" data-item-order="0" data-item-id="cn_8vvpm51y8mpdt" data-item-class="Curve Stroke" data-item-index="none" data-renderer-id="0" transform="translate(232.67169189453125, 327.4200439453125)"></g><g id="g-root-cn_8vvpm51y8mpdw-fill" data-item-order="0" data-item-id="cn_8vvpm51y8mpdw" data-item-class="Curve Stroke" data-item-index="none" data-renderer-id="0" transform="translate(202.14239501953125, 350.239990234375)"></g><g id="g-root-2_8vvpm51y8mpe0-fill" data-item-order="0" data-item-id="2_8vvpm51y8mpe0" data-item-class="Icon Stroke ColorFillBlack ColorStrokeBlack" data-item-index="none" data-renderer-id="0" transform="translate(39, 377.6207275390625)"></g><g id="g-root-cn_8vvpm51y8mpe2-fill" data-item-order="0" data-item-id="cn_8vvpm51y8mpe2" data-item-class="Curve Stroke" data-item-index="none" data-renderer-id="0" transform="translate(56.84185791015625, 415.31005859375)"></g><g id="g-root-re_8vvpm51y8mpe4-fill" data-item-order="0" data-item-id="re_8vvpm51y8mpe4" data-item-class="Shape Stroke Fill" data-item-index="none" data-renderer-id="0" transform="translate(84.13507080078125, 406.969970703125)"></g><g id="g-root-sing_8vvpm51y8mpe5-fill" data-item-order="0" data-item-id="sing_8vvpm51y8mpe5" data-item-class="Icon Stroke ColorFillBlack ColorStrokeBlack" data-item-index="none" data-renderer-id="0" transform="translate(96.13507080078125, 418.969970703125)"></g><g id="g-root-tx_8vvpm51y8mpe7-fill" data-item-order="0" data-item-id="tx_8vvpm51y8mpe7" data-item-class="Label Stroke" data-item-index="none" data-renderer-id="0" transform="translate(132.13507080078125, 421.969970703125)"><g id="tx_8vvpm51y8mpe7-fill" stroke="none" fill="#484848"><g><text style="font: 20px Roboto, sans-serif; white-space: pre;"><tspan x="14.1" y="33.5" dominant-baseline="ideographic">...</tspan></text></g></g></g><g id="g-root-cn_dbp7ql1y8mpds-fill" data-item-order="0" data-item-id="cn_dbp7ql1y8mpds" data-item-class="Curve Stroke" data-item-index="none" data-renderer-id="0" transform="translate(200.149658203125, 433.9599609375)"></g><g id="g-root-cn_dbp7ql1y8mpdu-fill" data-item-order="0" data-item-id="cn_dbp7ql1y8mpdu" data-item-class="Curve Stroke" data-item-index="none" data-renderer-id="0" transform="translate(232.67169189453125, 433.9599609375)"></g><g id="g-root-2_dbp7ql1y8mpdw-fill" data-item-order="0" data-item-id="2_dbp7ql1y8mpdw" data-item-class="Icon Stroke ColorFillBlack ColorStrokeBlack" data-item-index="none" data-renderer-id="0" transform="translate(219, 461.6207275390625)"></g><g id="g-root-re_dbp7ql1y8mpdy-fill" data-item-order="0" data-item-id="re_dbp7ql1y8mpdy" data-item-class="Shape Stroke Fill" data-item-index="none" data-renderer-id="0" transform="translate(84.13507080078125, 495)"></g><g id="g-root-tx_dbp7ql1y8mpdz-fill" data-item-order="0" data-item-id="tx_dbp7ql1y8mpdz" data-item-class="Label Stroke" data-item-index="none" data-renderer-id="0" transform="translate(128.149658203125, 510)"><g id="tx_dbp7ql1y8mpdz-fill" stroke="none" fill="#484848"><g><text style="font: 20px Roboto, sans-serif; white-space: pre;"><tspan x="14.1" y="33.5" dominant-baseline="ideographic">...</tspan></text></g></g></g><g id="g-root-cybo_dbp7ql1y8mpe0-fill" data-item-order="0" data-item-id="cybo_dbp7ql1y8mpe0" data-item-class="Icon Stroke ColorFillBlack ColorStrokeBlack" data-item-index="none" data-renderer-id="0" transform="translate(158.149658203125, 507)"></g><g id="g-root-cn_dbp7ql1y8mpe1-fill" data-item-order="0" data-item-id="cn_dbp7ql1y8mpe1" data-item-class="Curve Stroke" data-item-index="none" data-renderer-id="0" transform="translate(232.67169189453125, 499.31005859375)"></g><g id="g-root-cn_dbp7ql1y8mpe3-fill" data-item-order="0" data-item-id="cn_dbp7ql1y8mpe3" data-item-class="Curve Stroke" data-item-index="none" data-renderer-id="0" transform="translate(200.149658203125, 522)"></g><g id="g-root-tx_4g27hp1y8mold-fill" data-item-order="0" data-item-id="tx_4g27hp1y8mold" data-item-class="Label Stroke" data-item-index="none" data-renderer-id="0" transform="translate(101.7752685546875, 15)"><g id="tx_4g27hp1y8mold-fill" stroke="none" fill="#dd8433"><g><text style="font: bold 20px Roboto, sans-serif; white-space: pre;"><tspan x="11.93" y="33.5" dominant-baseline="ideographic">Messages</tspan></text></g></g></g><g id="g-root-ro_4hc4fx1vqvxtw-stroke" data-item-order="-165563" data-item-id="ro_4hc4fx1vqvxtw" data-item-class="Shape Stroke Fill" data-item-index="none" data-renderer-id="0" transform="translate(3, 3)"><g id="ro_4hc4fx1vqvxtw-stroke" fill="none" stroke-linecap="round" stroke-linejoin="round" stroke-miterlimit="4" stroke="#dd8433" stroke-width="2"><g><path d="M 22 9.999008L 291.55 9.999008C 291.55 9.999008 303.55 9.999008 303.55 21.999008L 303.55 561.999008C 303.55 561.999008 303.55 573.999008 291.55 573.999008L 22 573.999008C 22 573.999008 10 573.999008 10 561.999008L 10 21.999008C 10 21.999008 10 9.999008 22 9.999008"></path></g></g></g><g id="g-root-re_4g27hp1y8mole-stroke" data-item-order="0" data-item-id="re_4g27hp1y8mole" data-item-class="Shape Stroke Fill" data-item-index="none" data-renderer-id="0" transform="translate(86.12774658203125, 65.239990234375)"><g id="re_4g27hp1y8mole-stroke" fill="none" stroke-linecap="round" stroke-linejoin="round" stroke-miterlimit="4" stroke="#484848" stroke-width="2"><g><path d="M 9.995474 10L 126.005474 10L 126.005474 64L 9.995474 64Z"></path></g></g></g><g id="g-root-sing_4g27hp1y8molf-stroke" data-item-order="0" data-item-id="sing_4g27hp1y8molf" data-item-class="Icon Stroke ColorFillBlack ColorStrokeBlack" data-item-index="none" data-renderer-id="0" transform="translate(98.12774658203125, 77.239990234375)"><g id="sing_4g27hp1y8molf-stroke" fill="none" stroke-linecap="round" stroke-linejoin="round" stroke-miterlimit="4" stroke="#484848" stroke-width="2"><g><path d="M 18.035713 18.035715C 18.035713 21.881985 21.15373 25.000002 24.999998 25.000002C 28.846266 25.000002 31.964283 21.881985 31.964283 18.035715C 31.964283 14.189446 28.846266 11.071429 24.999998 11.071429C 21.15373 11.071429 18.035713 14.189446 18.035713 18.035715M 38.242855 38.928574C 36.397026 33.172703 31.04459 29.268234 24.999998 29.268234C 18.955404 29.268234 13.602971 33.172703 11.757143 38.928574Z"></path></g></g></g><g id="g-root-tx_4g27hp1y8molg-stroke" data-item-order="0" data-item-id="tx_4g27hp1y8molg" data-item-class="Label Stroke" data-item-index="none" data-renderer-id="0" transform="translate(134.12774658203125, 80.239990234375)"></g><g id="g-root-cn_4g27hp1y8molh-stroke" data-item-order="0" data-item-id="cn_4g27hp1y8molh" data-item-class="Curve Stroke" data-item-index="none" data-renderer-id="0" transform="translate(202.142333984375, 92.239990234375)"><g id="cn_4g27hp1y8molh-stroke" fill="none" stroke-linecap="round" stroke-linejoin="round" stroke-miterlimit="4" stroke="#484848" stroke-width="2"><g><path d="M 10 10L 25.3 10L 40.5 10L 40.5 19.9L 40.5 29.8"></path></g></g></g><g id="g-root-2_4g27hp1y8molj-stroke" data-item-order="0" data-item-id="2_4g27hp1y8molj" data-item-class="Icon Stroke ColorFillBlack ColorStrokeBlack" data-item-index="none" data-renderer-id="0" transform="translate(219, 117)"><g id="2_4g27hp1y8molj-stroke" fill="none" stroke-linecap="round" stroke-linejoin="round" stroke-miterlimit="4" stroke="#484848" stroke-width="2"><g><path d="M 16.591129 11.098522L 34.167477 11.098522C 35.485706 11.098522 36.364521 11.977339 36.364521 13.295565L 36.364521 37.463043C 36.364521 38.781269 35.485706 39.660088 34.167477 39.660088L 16.591129 39.660088C 15.272904 39.660088 14.394087 38.781269 14.394087 37.463043L 14.394087 13.295565C 14.394087 11.977339 15.272904 11.098522 16.591129 11.098522ZM 20.1064 16.591129C 20.1064 16.833809 20.303129 17.030539 20.545809 17.030539C 20.788488 17.030539 20.985218 16.833809 20.985218 16.591129C 20.985218 16.348452 20.788488 16.151722 20.545809 16.151722C 20.303129 16.151722 20.1064 16.348452 20.1064 16.591129M 20.1064 21.864035C 20.1064 22.106714 20.303129 22.303442 20.545809 22.303442C 20.788488 22.303442 20.985218 22.106714 20.985218 21.864035C 20.985218 21.621355 20.788488 21.424627 20.545809 21.424627C 20.303129 21.424627 20.1064 21.621355 20.1064 21.864035M 20.1064 27.576347C 20.1064 27.819027 20.303129 28.015755 20.545809 28.015755C 20.788488 28.015755 20.985218 27.819027 20.985218 27.576347C 20.985218 27.333668 20.788488 27.13694 20.545809 27.13694C 20.303129 27.13694 20.1064 27.333668 20.1064 27.576347"></path></g></g></g><g id="g-root-re_4g27hp1y8moll-stroke" data-item-order="0" data-item-id="re_4g27hp1y8moll" data-item-class="Shape Stroke Fill" data-item-index="none" data-renderer-id="0" transform="translate(86.12774658203125, 151.989990234375)"><g id="re_4g27hp1y8moll-stroke" fill="none" stroke-linecap="round" stroke-linejoin="round" stroke-miterlimit="4" stroke="#484848" stroke-width="2"><g><path d="M 10 10L 126.01 10L 126.01 64L 10 64Z"></path></g></g></g><g id="g-root-tx_4g27hp1y8molm-stroke" data-item-order="0" data-item-id="tx_4g27hp1y8molm" data-item-class="Label Stroke" data-item-index="none" data-renderer-id="0" transform="translate(130.142333984375, 166.989990234375)"></g><g id="g-root-cybo_4g27hp1y8moln-stroke" data-item-order="0" data-item-id="cybo_4g27hp1y8moln" data-item-class="Icon Stroke ColorFillBlack ColorStrokeBlack" data-item-index="none" data-renderer-id="0" transform="translate(160.142333984375, 163.989990234375)"><g id="cybo_4g27hp1y8moln-stroke" fill="none" stroke-linecap="round" stroke-linejoin="round" stroke-miterlimit="4" stroke="#484848" stroke-width="2"><g><path d="M 36.785713 30.357141C 36.785713 23.928572 31.514284 19.642857 25 19.642857C 18.485714 19.642857 13.214286 23.928572 13.214286 30.357141L 13.214286 38.92857L 36.785713 38.92857ZM 25 19.642857L 25 11.071428M 13.214286 32.5L 36.785713 32.5M 20.714285 32.5L 20.714285 38.92857M 29.285713 32.5L 29.285713 38.92857M 19.642857 27.142857C 19.642857 27.734591 20.122551 28.214285 20.714285 28.214285C 21.306019 28.214285 21.785713 27.734591 21.785713 27.142857C 21.785713 26.551123 21.306019 26.071428 20.714285 26.071428C 20.122551 26.071428 19.642857 26.551123 19.642857 27.142857M 28.214285 27.142857C 28.214285 27.734591 28.693981 28.214285 29.285713 28.214285C 29.877447 28.214285 30.357141 27.734591 30.357141 27.142857C 30.357141 26.551123 29.877447 26.071428 29.285713 26.071428C 28.693981 26.071428 28.214285 26.551123 28.214285 27.142857"></path></g></g></g><g id="g-root-cn_4g27hp1y8molo-stroke" data-item-order="0" data-item-id="cn_4g27hp1y8molo" data-item-class="Curve Stroke" data-item-index="none" data-renderer-id="0" transform="translate(202.142333984375, 156.419921875)"><g id="cn_4g27hp1y8molo-stroke" fill="none" stroke-linecap="round" stroke-linejoin="round" stroke-miterlimit="4" stroke="#484848" stroke-width="2"><g><path d="M 40.5 10L 40.5 21.3L 40.5 32.6L 25.3 32.6L 10 32.6"></path></g></g></g><g id="g-root-cn_4g27hp1y8molq-stroke" data-item-order="0" data-item-id="cn_4g27hp1y8molq" data-item-class="Curve Stroke" data-item-index="none" data-renderer-id="0" transform="translate(56.84185791015625, 178.989990234375)"><g id="cn_4g27hp1y8molq-stroke" fill="none" stroke-linecap="round" stroke-linejoin="round" stroke-miterlimit="4" stroke="#484848" stroke-width="2"><g><path d="M 39.3 10L 24.6 10L 10 10"></path></g></g></g><g id="g-root-cn_8vvpm51y8molc-stroke" data-item-order="0" data-item-id="cn_8vvpm51y8molc" data-item-class="Curve Stroke" data-item-index="none" data-renderer-id="0" transform="translate(56.84185791015625, 178.989990234375)"><g id="cn_8vvpm51y8molc-stroke" fill="none" stroke-linecap="round" stroke-linejoin="round" stroke-miterlimit="4" stroke="#484848" stroke-width="2"><g><path d="M 10 10L 10 20.6L 10 31.3"></path></g></g></g><g id="g-root-2_8vvpm51y8molf-stroke" data-item-order="0" data-item-id="2_8vvpm51y8molf" data-item-class="Icon Stroke ColorFillBlack ColorStrokeBlack" data-item-index="none" data-renderer-id="0" transform="translate(39, 206.241455078125)"><g id="2_8vvpm51y8molf-stroke" fill="none" stroke-linecap="round" stroke-linejoin="round" stroke-miterlimit="4" stroke="#484848" stroke-width="2"><g><path d="M 16.591129 11.098522L 34.167477 11.098522C 35.485706 11.098522 36.364521 11.977339 36.364521 13.295565L 36.364521 37.463043C 36.364521 38.781269 35.485706 39.660088 34.167477 39.660088L 16.591129 39.660088C 15.272904 39.660088 14.394087 38.781269 14.394087 37.463043L 14.394087 13.295565C 14.394087 11.977339 15.272904 11.098522 16.591129 11.098522ZM 20.1064 16.591129C 20.1064 16.833809 20.303129 17.030539 20.545809 17.030539C 20.788488 17.030539 20.985218 16.833809 20.985218 16.591129C 20.985218 16.348452 20.788488 16.151722 20.545809 16.151722C 20.303129 16.151722 20.1064 16.348452 20.1064 16.591129M 20.1064 21.864035C 20.1064 22.106714 20.303129 22.303442 20.545809 22.303442C 20.788488 22.303442 20.985218 22.106714 20.985218 21.864035C 20.985218 21.621355 20.788488 21.424627 20.545809 21.424627C 20.303129 21.424627 20.1064 21.621355 20.1064 21.864035M 20.1064 27.576347C 20.1064 27.819027 20.303129 28.015755 20.545809 28.015755C 20.788488 28.015755 20.985218 27.819027 20.985218 27.576347C 20.985218 27.333668 20.788488 27.13694 20.545809 27.13694C 20.303129 27.13694 20.1064 27.333668 20.1064 27.576347"></path></g></g></g><g id="g-root-cn_8vvpm51y8molh-stroke" data-item-order="0" data-item-id="cn_8vvpm51y8molh" data-item-class="Curve Stroke" data-item-index="none" data-renderer-id="0" transform="translate(56.84185791015625, 244.5799560546875)"><g id="cn_8vvpm51y8molh-stroke" fill="none" stroke-linecap="round" stroke-linejoin="round" stroke-miterlimit="4" stroke="#484848" stroke-width="2"><g><path d="M 10 10L 10 19.3L 10 28.7L 24.6 28.7L 39.3 28.7"></path></g></g></g><g id="g-root-re_8vvpm51y8molj-stroke" data-item-order="0" data-item-id="re_8vvpm51y8molj" data-item-class="Shape Stroke Fill" data-item-index="none" data-renderer-id="0" transform="translate(86.12762451171875, 236.239990234375)"><g id="re_8vvpm51y8molj-stroke" fill="none" stroke-linecap="round" stroke-linejoin="round" stroke-miterlimit="4" stroke="#484848" stroke-width="2"><g><path d="M 10.000122 10L 126.010122 10L 126.010122 64L 10.000122 64Z"></path></g></g></g><g id="g-root-sing_8vvpm51y8molk-stroke" data-item-order="0" data-item-id="sing_8vvpm51y8molk" data-item-class="Icon Stroke ColorFillBlack ColorStrokeBlack" data-item-index="none" data-renderer-id="0" transform="translate(98.127685546875, 248.239990234375)"><g id="sing_8vvpm51y8molk-stroke" fill="none" stroke-linecap="round" stroke-linejoin="round" stroke-miterlimit="4" stroke="#484848" stroke-width="2"><g><path d="M 18.035713 18.035715C 18.035713 21.881985 21.15373 25.000002 24.999998 25.000002C 28.846266 25.000002 31.964283 21.881985 31.964283 18.035715C 31.964283 14.189446 28.846266 11.071429 24.999998 11.071429C 21.15373 11.071429 18.035713 14.189446 18.035713 18.035715M 38.242855 38.928574C 36.397026 33.172703 31.04459 29.268234 24.999998 29.268234C 18.955404 29.268234 13.602971 33.172703 11.757143 38.928574Z"></path></g></g></g><g id="g-root-tx_8vvpm51y8molm-stroke" data-item-order="0" data-item-id="tx_8vvpm51y8molm" data-item-class="Label Stroke" data-item-index="none" data-renderer-id="0" transform="translate(134.127685546875, 251.239990234375)"></g><g id="g-root-cn_8vvpm51y8moln-stroke" data-item-order="0" data-item-id="cn_8vvpm51y8moln" data-item-class="Curve Stroke" data-item-index="none" data-renderer-id="0" transform="translate(202.142333984375, 263.239990234375)"><g id="cn_8vvpm51y8moln-stroke" fill="none" stroke-linecap="round" stroke-linejoin="round" stroke-miterlimit="4" stroke="#484848" stroke-width="2"><g><path d="M 10 10L 25.3 10L 40.5 10"></path></g></g></g><g id="g-root-cn_8vvpm51y8molq-stroke" data-item-order="0" data-item-id="cn_8vvpm51y8molq" data-item-class="Curve Stroke" data-item-index="none" data-renderer-id="0" transform="translate(232.67169189453125, 263.239990234375)"><g id="cn_8vvpm51y8molq-stroke" fill="none" stroke-linecap="round" stroke-linejoin="round" stroke-miterlimit="4" stroke="#484848" stroke-width="2"><g><path d="M 10 10L 10 19.9L 10 29.8"></path></g></g></g><g id="g-root-2_dbp7ql1y8molc-stroke" data-item-order="0" data-item-id="2_dbp7ql1y8molc" data-item-class="Icon Stroke ColorFillBlack ColorStrokeBlack" data-item-index="none" data-renderer-id="0" transform="translate(219, 290.241455078125)"><g id="2_dbp7ql1y8molc-stroke" fill="none" stroke-linecap="round" stroke-linejoin="round" stroke-miterlimit="4" stroke="#484848" stroke-width="2"><g><path d="M 16.591129 11.098522L 34.167477 11.098522C 35.485706 11.098522 36.364521 11.977339 36.364521 13.295565L 36.364521 37.463043C 36.364521 38.781269 35.485706 39.660088 34.167477 39.660088L 16.591129 39.660088C 15.272904 39.660088 14.394087 38.781269 14.394087 37.463043L 14.394087 13.295565C 14.394087 11.977339 15.272904 11.098522 16.591129 11.098522ZM 20.1064 16.591129C 20.1064 16.833809 20.303129 17.030539 20.545809 17.030539C 20.788488 17.030539 20.985218 16.833809 20.985218 16.591129C 20.985218 16.348452 20.788488 16.151722 20.545809 16.151722C 20.303129 16.151722 20.1064 16.348452 20.1064 16.591129M 20.1064 21.864035C 20.1064 22.106714 20.303129 22.303442 20.545809 22.303442C 20.788488 22.303442 20.985218 22.106714 20.985218 21.864035C 20.985218 21.621355 20.788488 21.424627 20.545809 21.424627C 20.303129 21.424627 20.1064 21.621355 20.1064 21.864035M 20.1064 27.576347C 20.1064 27.819027 20.303129 28.015755 20.545809 28.015755C 20.788488 28.015755 20.985218 27.819027 20.985218 27.576347C 20.985218 27.333668 20.788488 27.13694 20.545809 27.13694C 20.303129 27.13694 20.1064 27.333668 20.1064 27.576347"></path></g></g></g><g id="g-root-re_dbp7ql1y8mole-stroke" data-item-order="0" data-item-id="re_dbp7ql1y8mole" data-item-class="Shape Stroke Fill" data-item-index="none" data-renderer-id="0" transform="translate(86.127685546875, 323.239990234375)"><g id="re_dbp7ql1y8mole-stroke" fill="none" stroke-linecap="round" stroke-linejoin="round" stroke-miterlimit="4" stroke="#484848" stroke-width="2"><g><path d="M 10 10L 126.01 10L 126.01 64L 10 64Z"></path></g></g></g><g id="g-root-cn_dbp7ql1y8molf-stroke" data-item-order="0" data-item-id="cn_dbp7ql1y8molf" data-item-class="Curve Stroke" data-item-index="none" data-renderer-id="0" transform="translate(56.84185791015625, 349.7099609375)"><g id="cn_dbp7ql1y8molf-stroke" fill="none" stroke-linecap="round" stroke-linejoin="round" stroke-miterlimit="4" stroke="#484848" stroke-width="2"><g><path d="M 10 10L 10 20.6L 10 31.3"></path></g></g></g><g id="g-root-cn_4g27hp1y8mpe5-stroke" data-item-order="0" data-item-id="cn_4g27hp1y8mpe5" data-item-class="Curve Stroke" data-item-index="none" data-renderer-id="0" transform="translate(56.84185791015625, 349.7099609375)"><g id="cn_4g27hp1y8mpe5-stroke" fill="none" stroke-linecap="round" stroke-linejoin="round" stroke-miterlimit="4" stroke="#484848" stroke-width="2"><g><path d="M 39.3 10.5L 24.6 10.3L 10 10"></path></g></g></g><g id="g-root-tx_4g27hp1y8mpe7-stroke" data-item-order="0" data-item-id="tx_4g27hp1y8mpe7" data-item-class="Label Stroke" data-item-index="none" data-renderer-id="0" transform="translate(130.142333984375, 338.239990234375)"></g><g id="g-root-cybo_8vvpm51y8mpds-stroke" data-item-order="0" data-item-id="cybo_8vvpm51y8mpds" data-item-class="Icon Stroke ColorFillBlack ColorStrokeBlack" data-item-index="none" data-renderer-id="0" transform="translate(160.142333984375, 335.239990234375)"><g id="cybo_8vvpm51y8mpds-stroke" fill="none" stroke-linecap="round" stroke-linejoin="round" stroke-miterlimit="4" stroke="#484848" stroke-width="2"><g><path d="M 36.785713 30.357141C 36.785713 23.928572 31.514284 19.642857 25 19.642857C 18.485714 19.642857 13.214286 23.928572 13.214286 30.357141L 13.214286 38.92857L 36.785713 38.92857ZM 25 19.642857L 25 11.071428M 13.214286 32.5L 36.785713 32.5M 20.714285 32.5L 20.714285 38.92857M 29.285713 32.5L 29.285713 38.92857M 19.642857 27.142857C 19.642857 27.734591 20.122551 28.214285 20.714285 28.214285C 21.306019 28.214285 21.785713 27.734591 21.785713 27.142857C 21.785713 26.551123 21.306019 26.071428 20.714285 26.071428C 20.122551 26.071428 19.642857 26.551123 19.642857 27.142857M 28.214285 27.142857C 28.214285 27.734591 28.693981 28.214285 29.285713 28.214285C 29.877447 28.214285 30.357141 27.734591 30.357141 27.142857C 30.357141 26.551123 29.877447 26.071428 29.285713 26.071428C 28.693981 26.071428 28.214285 26.551123 28.214285 27.142857"></path></g></g></g><g id="g-root-cn_8vvpm51y8mpdt-stroke" data-item-order="0" data-item-id="cn_8vvpm51y8mpdt" data-item-class="Curve Stroke" data-item-index="none" data-renderer-id="0" transform="translate(232.67169189453125, 327.4200439453125)"><g id="cn_8vvpm51y8mpdt-stroke" fill="none" stroke-linecap="round" stroke-linejoin="round" stroke-miterlimit="4" stroke="#484848" stroke-width="2"><g><path d="M 10 10L 10 21.4L 10 32.8"></path></g></g></g><g id="g-root-cn_8vvpm51y8mpdw-stroke" data-item-order="0" data-item-id="cn_8vvpm51y8mpdw" data-item-class="Curve Stroke" data-item-index="none" data-renderer-id="0" transform="translate(202.14239501953125, 350.239990234375)"><g id="cn_8vvpm51y8mpdw-stroke" fill="none" stroke-linecap="round" stroke-linejoin="round" stroke-miterlimit="4" stroke="#484848" stroke-width="2"><g><path d="M 10 10L 25.3 10L 40.5 10"></path></g></g></g><g id="g-root-2_8vvpm51y8mpe0-stroke" data-item-order="0" data-item-id="2_8vvpm51y8mpe0" data-item-class="Icon Stroke ColorFillBlack ColorStrokeBlack" data-item-index="none" data-renderer-id="0" transform="translate(39, 377.6207275390625)"><g id="2_8vvpm51y8mpe0-stroke" fill="none" stroke-linecap="round" stroke-linejoin="round" stroke-miterlimit="4" stroke="#484848" stroke-width="2"><g><path d="M 16.591129 11.098522L 34.167477 11.098522C 35.485706 11.098522 36.364521 11.977339 36.364521 13.295565L 36.364521 37.463043C 36.364521 38.781269 35.485706 39.660088 34.167477 39.660088L 16.591129 39.660088C 15.272904 39.660088 14.394087 38.781269 14.394087 37.463043L 14.394087 13.295565C 14.394087 11.977339 15.272904 11.098522 16.591129 11.098522ZM 20.1064 16.591129C 20.1064 16.833809 20.303129 17.030539 20.545809 17.030539C 20.788488 17.030539 20.985218 16.833809 20.985218 16.591129C 20.985218 16.348452 20.788488 16.151722 20.545809 16.151722C 20.303129 16.151722 20.1064 16.348452 20.1064 16.591129M 20.1064 21.864035C 20.1064 22.106714 20.303129 22.303442 20.545809 22.303442C 20.788488 22.303442 20.985218 22.106714 20.985218 21.864035C 20.985218 21.621355 20.788488 21.424627 20.545809 21.424627C 20.303129 21.424627 20.1064 21.621355 20.1064 21.864035M 20.1064 27.576347C 20.1064 27.819027 20.303129 28.015755 20.545809 28.015755C 20.788488 28.015755 20.985218 27.819027 20.985218 27.576347C 20.985218 27.333668 20.788488 27.13694 20.545809 27.13694C 20.303129 27.13694 20.1064 27.333668 20.1064 27.576347"></path></g></g></g><g id="g-root-cn_8vvpm51y8mpe2-stroke" data-item-order="0" data-item-id="cn_8vvpm51y8mpe2" data-item-class="Curve Stroke" data-item-index="none" data-renderer-id="0" transform="translate(56.84185791015625, 415.31005859375)"><g id="cn_8vvpm51y8mpe2-stroke" fill="none" stroke-linecap="round" stroke-linejoin="round" stroke-miterlimit="4" stroke="#484848" stroke-width="2"><g><path d="M 10 10L 10 19.3L 10 28.7L 23.6 28.7L 37.3 28.7"></path></g></g></g><g id="g-root-re_8vvpm51y8mpe4-stroke" data-item-order="0" data-item-id="re_8vvpm51y8mpe4" data-item-class="Shape Stroke Fill" data-item-index="none" data-renderer-id="0" transform="translate(84.13507080078125, 406.969970703125)"><g id="re_8vvpm51y8mpe4-stroke" fill="none" stroke-linecap="round" stroke-linejoin="round" stroke-miterlimit="4" stroke="#484848" stroke-width="2"><g><path d="M 9.995474 10L 126.005474 10L 126.005474 64L 9.995474 64Z"></path></g></g></g><g id="g-root-sing_8vvpm51y8mpe5-stroke" data-item-order="0" data-item-id="sing_8vvpm51y8mpe5" data-item-class="Icon Stroke ColorFillBlack ColorStrokeBlack" data-item-index="none" data-renderer-id="0" transform="translate(96.13507080078125, 418.969970703125)"><g id="sing_8vvpm51y8mpe5-stroke" fill="none" stroke-linecap="round" stroke-linejoin="round" stroke-miterlimit="4" stroke="#484848" stroke-width="2"><g><path d="M 18.035713 18.035715C 18.035713 21.881985 21.15373 25.000002 24.999998 25.000002C 28.846266 25.000002 31.964283 21.881985 31.964283 18.035715C 31.964283 14.189446 28.846266 11.071429 24.999998 11.071429C 21.15373 11.071429 18.035713 14.189446 18.035713 18.035715M 38.242855 38.928574C 36.397026 33.172703 31.04459 29.268234 24.999998 29.268234C 18.955404 29.268234 13.602971 33.172703 11.757143 38.928574Z"></path></g></g></g><g id="g-root-tx_8vvpm51y8mpe7-stroke" data-item-order="0" data-item-id="tx_8vvpm51y8mpe7" data-item-class="Label Stroke" data-item-index="none" data-renderer-id="0" transform="translate(132.13507080078125, 421.969970703125)"></g><g id="g-root-cn_dbp7ql1y8mpds-stroke" data-item-order="0" data-item-id="cn_dbp7ql1y8mpds" data-item-class="Curve Stroke" data-item-index="none" data-renderer-id="0" transform="translate(200.149658203125, 433.9599609375)"><g id="cn_dbp7ql1y8mpds-stroke" fill="none" stroke-linecap="round" stroke-linejoin="round" stroke-miterlimit="4" stroke="#484848" stroke-width="2"><g><path d="M 10 10L 26.3 10L 42.5 10"></path></g></g></g><g id="g-root-cn_dbp7ql1y8mpdu-stroke" data-item-order="0" data-item-id="cn_dbp7ql1y8mpdu" data-item-class="Curve Stroke" data-item-index="none" data-renderer-id="0" transform="translate(232.67169189453125, 433.9599609375)"><g id="cn_dbp7ql1y8mpdu-stroke" fill="none" stroke-linecap="round" stroke-linejoin="round" stroke-miterlimit="4" stroke="#484848" stroke-width="2"><g><path d="M 10 10L 10 20.5L 10 31"></path></g></g></g><g id="g-root-2_dbp7ql1y8mpdw-stroke" data-item-order="0" data-item-id="2_dbp7ql1y8mpdw" data-item-class="Icon Stroke ColorFillBlack ColorStrokeBlack" data-item-index="none" data-renderer-id="0" transform="translate(219, 461.6207275390625)"><g id="2_dbp7ql1y8mpdw-stroke" fill="none" stroke-linecap="round" stroke-linejoin="round" stroke-miterlimit="4" stroke="#484848" stroke-width="2"><g><path d="M 16.591129 11.098522L 34.167477 11.098522C 35.485706 11.098522 36.364521 11.977339 36.364521 13.295565L 36.364521 37.463043C 36.364521 38.781269 35.485706 39.660088 34.167477 39.660088L 16.591129 39.660088C 15.272904 39.660088 14.394087 38.781269 14.394087 37.463043L 14.394087 13.295565C 14.394087 11.977339 15.272904 11.098522 16.591129 11.098522ZM 20.1064 16.591129C 20.1064 16.833809 20.303129 17.030539 20.545809 17.030539C 20.788488 17.030539 20.985218 16.833809 20.985218 16.591129C 20.985218 16.348452 20.788488 16.151722 20.545809 16.151722C 20.303129 16.151722 20.1064 16.348452 20.1064 16.591129M 20.1064 21.864035C 20.1064 22.106714 20.303129 22.303442 20.545809 22.303442C 20.788488 22.303442 20.985218 22.106714 20.985218 21.864035C 20.985218 21.621355 20.788488 21.424627 20.545809 21.424627C 20.303129 21.424627 20.1064 21.621355 20.1064 21.864035M 20.1064 27.576347C 20.1064 27.819027 20.303129 28.015755 20.545809 28.015755C 20.788488 28.015755 20.985218 27.819027 20.985218 27.576347C 20.985218 27.333668 20.788488 27.13694 20.545809 27.13694C 20.303129 27.13694 20.1064 27.333668 20.1064 27.576347"></path></g></g></g><g id="g-root-re_dbp7ql1y8mpdy-stroke" data-item-order="0" data-item-id="re_dbp7ql1y8mpdy" data-item-class="Shape Stroke Fill" data-item-index="none" data-renderer-id="0" transform="translate(84.13507080078125, 495)"><g id="re_dbp7ql1y8mpdy-stroke" fill="none" stroke-linecap="round" stroke-linejoin="round" stroke-miterlimit="4" stroke="#484848" stroke-width="2"><g><path d="M 10 10L 126.01 10L 126.01 64L 10 64Z"></path></g></g></g><g id="g-root-tx_dbp7ql1y8mpdz-stroke" data-item-order="0" data-item-id="tx_dbp7ql1y8mpdz" data-item-class="Label Stroke" data-item-index="none" data-renderer-id="0" transform="translate(128.149658203125, 510)"></g><g id="g-root-cybo_dbp7ql1y8mpe0-stroke" data-item-order="0" data-item-id="cybo_dbp7ql1y8mpe0" data-item-class="Icon Stroke ColorFillBlack ColorStrokeBlack" data-item-index="none" data-renderer-id="0" transform="translate(158.149658203125, 507)"><g id="cybo_dbp7ql1y8mpe0-stroke" fill="none" stroke-linecap="round" stroke-linejoin="round" stroke-miterlimit="4" stroke="#484848" stroke-width="2"><g><path d="M 36.785713 30.357141C 36.785713 23.928572 31.514284 19.642857 25 19.642857C 18.485714 19.642857 13.214286 23.928572 13.214286 30.357141L 13.214286 38.92857L 36.785713 38.92857ZM 25 19.642857L 25 11.071428M 13.214286 32.5L 36.785713 32.5M 20.714285 32.5L 20.714285 38.92857M 29.285713 32.5L 29.285713 38.92857M 19.642857 27.142857C 19.642857 27.734591 20.122551 28.214285 20.714285 28.214285C 21.306019 28.214285 21.785713 27.734591 21.785713 27.142857C 21.785713 26.551123 21.306019 26.071428 20.714285 26.071428C 20.122551 26.071428 19.642857 26.551123 19.642857 27.142857M 28.214285 27.142857C 28.214285 27.734591 28.693981 28.214285 29.285713 28.214285C 29.877447 28.214285 30.357141 27.734591 30.357141 27.142857C 30.357141 26.551123 29.877447 26.071428 29.285713 26.071428C 28.693981 26.071428 28.214285 26.551123 28.214285 27.142857"></path></g></g></g><g id="g-root-cn_dbp7ql1y8mpe1-stroke" data-item-order="0" data-item-id="cn_dbp7ql1y8mpe1" data-item-class="Curve Stroke" data-item-index="none" data-renderer-id="0" transform="translate(232.67169189453125, 499.31005859375)"><g id="cn_dbp7ql1y8mpe1-stroke" fill="none" stroke-linecap="round" stroke-linejoin="round" stroke-miterlimit="4" stroke="#484848" stroke-width="2"><g><path d="M 10 10L 10 21.3L 10 32.7"></path></g></g></g><g id="g-root-cn_dbp7ql1y8mpe3-stroke" data-item-order="0" data-item-id="cn_dbp7ql1y8mpe3" data-item-class="Curve Stroke" data-item-index="none" data-renderer-id="0" transform="translate(200.149658203125, 522)"><g id="cn_dbp7ql1y8mpe3-stroke" fill="none" stroke-linecap="round" stroke-linejoin="round" stroke-miterlimit="4" stroke="#484848" stroke-width="2"><g><path d="M 10 10L 26.3 10L 42.5 10"></path></g></g></g><g id="g-root-tx_4g27hp1y8mold-stroke" data-item-order="0" data-item-id="tx_4g27hp1y8mold" data-item-class="Label Stroke" data-item-index="none" data-renderer-id="0" transform="translate(101.7752685546875, 15)"></g></g></g></svg>