<?xml version="1.0" encoding="utf-8"?>
<svg width="1024px" height="1024px" fill="currentColor" class="bi bi-chat-left-text-fill" viewBox="0 0 1024 1024" xmlns="http://www.w3.org/2000/svg" xmlns:bx="https://boxy-svg.com" preserveAspectRatio="none">
  <defs>
    <bx:export>
      <bx:file format="png" path="app-icon.png" width="1024" height="1024" dpi="72"/>
    </bx:export>
    <bx:grid x="1.961" y="1.001" width="100" height="100"/>
  </defs>
  <g style="" transform="matrix(51.200001, 0, 0, 51.200001, 102.399994, 102.399994)">
    <rect width="16" height="16" style="stroke: rgb(0, 0, 0); stroke-width: 0px; fill: rgb(119, 119, 119); paint-order: fill;" rx="2.723" ry="2.723"/>
    <path d="M 2.02 3.69 C 2.02 2.846 2.691 2.16 3.52 2.16 L 12.513 2.16 C 13.342 2.16 14.013 2.846 14.013 3.69 L 14.013 9.81 C 14.013 10.654 13.342 11.339 12.513 11.339 L 5.329 11.339 C 5.129 11.339 4.94 11.42 4.799 11.563 L 2.661 13.745 C 2.457 13.954 2.108 13.86 2.033 13.574 C 2.024 13.543 2.02 13.509 2.02 13.476 L 2.02 3.69 Z M 4.644 4.455 C 4.355 4.455 4.174 4.774 4.319 5.029 C 4.386 5.147 4.51 5.219 4.644 5.219 L 11.389 5.219 C 11.678 5.219 11.859 4.902 11.714 4.647 C 11.647 4.528 11.523 4.455 11.389 4.455 L 4.644 4.455 Z M 4.644 6.366 C 4.355 6.366 4.174 6.686 4.319 6.941 C 4.386 7.059 4.51 7.132 4.644 7.132 L 11.389 7.132 C 11.678 7.132 11.859 6.813 11.714 6.558 C 11.647 6.44 11.523 6.366 11.389 6.366 L 4.644 6.366 Z M 4.644 8.28 C 4.355 8.28 4.174 8.598 4.319 8.853 C 4.386 8.972 4.51 9.045 4.644 9.045 L 8.391 9.045 C 8.68 9.045 8.859 8.726 8.716 8.471 C 8.649 8.352 8.525 8.28 8.391 8.28 L 4.644 8.28 Z" style="fill: rgb(255, 193, 7);"/>
  </g>
</svg>