<?xml version="1.0" encoding="utf-8"?>
<svg width="256px" height="256px" fill="currentColor" class="bi bi-chat-left-text-fill" viewBox="0 0 16 16" xmlns="http://www.w3.org/2000/svg" xmlns:bx="https://boxy-svg.com">
  <defs>
    <bx:guide x="2.02" y="0.378" angle="0"/>
    <bx:guide x="6.035" y="8.015" angle="90"/>
    <bx:guide x="14.013" y="0.425" angle="0"/>
  </defs>
  <rect width="12" height="12" style="stroke: rgb(0, 0, 0); stroke-width: 0px; paint-order: fill; fill: rgb(0, 0, 0);" rx="2.723" ry="2.723" x="1.987" y="2"/>
  <path d="M 3.97 5.299 C 3.97 4.731 4.422 4.27 4.979 4.27 L 11.028 4.27 C 11.586 4.27 12.037 4.731 12.037 5.299 L 12.037 9.415 C 12.037 9.983 11.586 10.444 11.028 10.444 L 6.196 10.444 C 6.062 10.444 5.934 10.498 5.84 10.594 L 4.402 12.062 C 4.264 12.203 4.03 12.139 3.979 11.947 C 3.973 11.926 3.97 11.903 3.97 11.881 L 3.97 5.299 Z M 5.735 5.814 C 5.541 5.814 5.419 6.028 5.517 6.2 C 5.562 6.279 5.645 6.327 5.735 6.327 L 10.272 6.327 C 10.466 6.327 10.588 6.114 10.491 5.943 C 10.446 5.863 10.362 5.814 10.272 5.814 L 5.735 5.814 Z M 5.735 7.099 C 5.541 7.099 5.419 7.314 5.517 7.486 C 5.562 7.565 5.645 7.614 5.735 7.614 L 10.272 7.614 C 10.466 7.614 10.588 7.4 10.491 7.228 C 10.446 7.149 10.362 7.099 10.272 7.099 L 5.735 7.099 Z M 5.735 8.386 C 5.541 8.386 5.419 8.6 5.517 8.772 C 5.562 8.852 5.645 8.901 5.735 8.901 L 8.256 8.901 C 8.45 8.901 8.57 8.686 8.474 8.515 C 8.429 8.435 8.346 8.386 8.256 8.386 L 5.735 8.386 Z" style="fill: rgb(255, 255, 255);"/>
</svg>