<?xml version="1.0" encoding="UTF-8"?>
<svg style="left: 0px; top: 0px; width: 100%; height: 100%; display: block; min-width: 946px; min-height: 257px;" xmlns="http://www.w3.org/2000/svg" xmlns:xhtml="http://www.w3.org/1999/xhtml" viewBox="-318.75 -30.5 849.5 432" width="800" height="407"><style>@import url('https://fonts.googleapis.com/css2?family=Montserrat:wght@400;600&amp;display=swap');
foreignObject div { font-family: 'Montserrat', 'Segoe UI', sans-serif; }
foreignObject b { font-weight: 600; }
.wv-scroll-text { overflow: hidden; }</style><g><g/><g><g transform="translate(0.5,0.5)" style="visibility: visible;"><rect x="632.89" y="24.31" width="137.2" height="28.69" rx="11.48" ry="11.48" fill="#dbeafe" stroke="#3b82f6" pointer-events="all"/></g><g style=""><g transform="scale(0.6236559139784946)"><foreignObject style="overflow: visible; text-align: left;" pointer-events="none" width="161%" height="161%"><div xmlns="http://www.w3.org/1999/xhtml" dir="" style="display: flex; align-items: unsafe center; justify-content: unsafe flex-start; width: 198px; height: 1px; padding-top: 62px; margin-left: 1027px;"><div style="box-sizing: border-box; font-size: 0; text-align: left; max-height: 30px; overflow: hidden; "><div style="display: inline-block; font-size: 12px; font-family: Montserrat, sans-serif; color: #333; line-height: 1.2; pointer-events: all; background-color: none; border: 1px solid none; white-space: normal; word-wrap: normal; "><div style="line-height:26px"><b>User Input</b></div></div></div></div></foreignObject></g></g><g transform="translate(0.5,0.5)" style="visibility: visible;"><rect x="632.89" y="72.96" width="137.2" height="28.69" fill="#ede9fe" stroke="#7c3aed" pointer-events="all"/></g><g style=""><g transform="scale(0.6236559139784946)"><foreignObject style="overflow: visible; text-align: left;" pointer-events="none" width="161%" height="161%"><div xmlns="http://www.w3.org/1999/xhtml" dir="" style="display: flex; align-items: unsafe center; justify-content: unsafe flex-start; width: 198px; height: 1px; padding-top: 140px; margin-left: 1027px;"><div style="box-sizing: border-box; font-size: 0; text-align: left; max-height: 30px; overflow: hidden; "><div style="display: inline-block; font-size: 12px; font-family: Montserrat, sans-serif; color: #333; line-height: 1.2; pointer-events: all; background-color: none; border: 1px solid none; white-space: normal; word-wrap: normal; "><div style="line-height:26px"><b><span style="opacity:0.4">▸</span> System Prompt</b></div></div></div></div></foreignObject></g></g><g transform="translate(0.5,0.5)" style="visibility: visible;"><rect x="632.89" y="121.6" width="137.2" height="28.69" rx="4.3" ry="4.3" fill="#dcfce7" stroke="#16a34a" pointer-events="all"/></g><g style=""><g transform="scale(0.6236559139784946)"><foreignObject style="overflow: visible; text-align: left;" pointer-events="none" width="161%" height="161%"><div xmlns="http://www.w3.org/1999/xhtml" dir="" style="display: flex; align-items: unsafe center; justify-content: unsafe flex-start; width: 198px; height: 1px; padding-top: 218px; margin-left: 1027px;"><div style="box-sizing: border-box; font-size: 0; text-align: left; max-height: 30px; overflow: hidden; "><div style="display: inline-block; font-size: 12px; font-family: Montserrat, sans-serif; color: #333; line-height: 1.2; pointer-events: all; background-color: none; border: 1px solid none; white-space: normal; word-wrap: normal; "><div style="line-height:26px"><b><span style="opacity:0.4">▸</span> gpt-5.2</b></div></div></div></div></foreignObject></g></g><g transform="translate(0.5,0.5)" style="visibility: visible;"><rect x="632.89" y="170.25" width="137.2" height="46.15" rx="18.46" ry="18.46" fill="#dbeafe" stroke="#3b82f6" pointer-events="all"/></g><g style=""><g transform="scale(0.6236559139784946)"><foreignObject style="overflow: visible; text-align: left;" pointer-events="none" width="161%" height="161%"><div xmlns="http://www.w3.org/1999/xhtml" dir="" style="display: flex; align-items: unsafe center; justify-content: unsafe flex-start; width: 198px; height: 1px; padding-top: 310px; margin-left: 1027px;"><div style="box-sizing: border-box; font-size: 0; text-align: left; max-height: 58px; overflow: hidden; "><div style="display: inline-block; font-size: 12px; font-family: Montserrat, sans-serif; color: #333; line-height: 1.2; pointer-events: all; background-color: none; border: 1px solid none; white-space: normal; word-wrap: normal; "><div style="line-height:26px"><b>Response</b></div><div style="margin-top:4px"><div style="line-height:22px;font-weight:normal;color:#6b7280">• text output</div></div></div></div></div></foreignObject></g></g><g style="visibility: visible;" transform="translate(0.5,0.5)"><rect x="795.04" y="106.01" width="149.68" height="59.87" rx="8.98" ry="8.98" fill="#fff7ed" stroke="#ea580c" pointer-events="all"/></g><g style=""><g transform="scale(0.6236559139784946)"><foreignObject style="overflow: visible; text-align: left;" pointer-events="none" width="161%" height="161%"><div xmlns="http://www.w3.org/1999/xhtml" dir="" style="display: flex; align-items: unsafe center; justify-content: unsafe flex-start; width: 218px; height: 1px; padding-top: 218px; margin-left: 1287px;"><div style="box-sizing: border-box; font-size: 0; text-align: left; max-height: 80px; overflow: hidden; "><div style="display: inline-block; font-size: 12px; font-family: Montserrat, sans-serif; color: #333; line-height: 1.2; pointer-events: all; background-color: none; border: 1px solid none; white-space: normal; word-wrap: normal; "><div style="line-height:26px"><b>Tools</b></div><div style="border-top:1px solid rgba(128,128,128,0.3);margin-top:2px;padding-top:4px"><div style="line-height:22px;font-weight:normal;color:#6b7280">▸ Python Execution (4)</div><div style="line-height:22px;font-weight:normal;color:#6b7280">▸ File Reading (3)</div></div></div></div></div></foreignObject></g></g><g style="visibility: visible;" transform="translate(0.5,0.5)"><rect x="795.04" y="173.37" width="137.2" height="28.69" rx="4.3" ry="4.3" fill="#fee2e2" stroke="#dc2626" pointer-events="all"/></g><g style=""><g transform="scale(0.6236559139784946)"><foreignObject style="overflow: visible; text-align: left;" pointer-events="none" width="161%" height="161%"><div xmlns="http://www.w3.org/1999/xhtml" dir="" style="display: flex; align-items: unsafe center; justify-content: unsafe flex-start; width: 198px; height: 1px; padding-top: 301px; margin-left: 1287px;"><div style="box-sizing: border-box; font-size: 0; text-align: left; max-height: 30px; overflow: hidden; "><div style="display: inline-block; font-size: 12px; font-family: Montserrat, sans-serif; color: #333; line-height: 1.2; pointer-events: all; background-color: none; border: 1px solid none; white-space: normal; word-wrap: normal; "><div style="line-height:26px"><b><span style="opacity:0.4">▸</span> Code Generator</b></div></div></div></div></foreignObject></g></g><g transform="translate(0.5,0.5)" style="visibility: visible;"><rect x="795.04" y="209.54" width="124.73" height="46.15" rx="6.92" ry="6.92" fill="#f3f4f6" stroke="#9ca3af" pointer-events="all"/></g><g style=""><g transform="scale(0.6236559139784946)"><foreignObject style="overflow: visible; text-align: left;" pointer-events="none" width="161%" height="161%"><div xmlns="http://www.w3.org/1999/xhtml" dir="" style="display: flex; align-items: unsafe center; justify-content: unsafe flex-start; width: 178px; height: 1px; padding-top: 373px; margin-left: 1287px;"><div style="box-sizing: border-box; font-size: 0; text-align: left; max-height: 58px; overflow: hidden; "><div style="display: inline-block; font-size: 12px; font-family: Montserrat, sans-serif; color: #333; line-height: 1.2; pointer-events: all; background-color: none; border: 1px solid none; white-space: normal; word-wrap: normal; "><div style="line-height:26px"><b>Features</b></div><div style="border-top:1px solid rgba(128,128,128,0.3);margin-top:2px;padding-top:4px"><div style="line-height:22px;font-weight:normal;color:#6b7280">• Initiate From Assistant</div></div></div></div></div></foreignObject></g></g><g transform="translate(0.5,0.5)" style="visibility: visible;"><rect x="483.22" y="170.25" width="124.73" height="46.15" rx="6.92" ry="6.92" fill="#fef9c3" stroke="#ca8a04" pointer-events="all"/></g><g style=""><g transform="scale(0.6236559139784946)"><foreignObject style="overflow: visible; text-align: left;" pointer-events="none" width="161%" height="161%"><div xmlns="http://www.w3.org/1999/xhtml" dir="" style="display: flex; align-items: unsafe center; justify-content: unsafe flex-start; width: 178px; height: 1px; padding-top: 310px; margin-left: 787px;"><div style="box-sizing: border-box; font-size: 0; text-align: left; max-height: 58px; overflow: hidden; "><div style="display: inline-block; font-size: 12px; font-family: Montserrat, sans-serif; color: #333; line-height: 1.2; pointer-events: all; background-color: none; border: 1px solid none; white-space: normal; word-wrap: normal; "><div style="line-height:26px"><b>Context</b></div><div style="border-top:1px solid rgba(128,128,128,0.3);margin-top:2px;padding-top:4px"><div style="line-height:22px;font-weight:normal;color:#6b7280">• Message History</div></div></div></div></div></foreignObject></g></g><g style="visibility: visible;" transform="translate(0.5,0.5)"><path d="M 701.49 53 L 701.49 56.74 Q 701.49 60.48 701.49 62.98 L 701.49 64.23 Q 701.49 65.47 701.49 66.94 L 701.49 68.4" fill="none" stroke="white" stroke-miterlimit="10" pointer-events="stroke" visibility="hidden" stroke-width="9"/><path d="M 701.49 53 L 701.49 56.74 Q 701.49 60.48 701.49 62.98 L 701.49 64.23 Q 701.49 65.47 701.49 66.94 L 701.49 68.4" fill="none" stroke="#9ca3af" stroke-miterlimit="10" pointer-events="stroke"/><path d="M 701.49 71.91 L 699.16 67.23 L 701.49 68.4 L 703.83 67.23 Z" fill="#9ca3af" stroke="#9ca3af" stroke-miterlimit="10" pointer-events="all"/></g><g style="visibility: visible;" transform="translate(0.5,0.5)"><path d="M 701.49 101.65 L 701.49 105.39 Q 701.49 109.13 701.49 111.62 L 701.49 112.87 Q 701.49 114.12 701.49 115.58 L 701.49 117.05" fill="none" stroke="white" stroke-miterlimit="10" pointer-events="stroke" visibility="hidden" stroke-width="9"/><path d="M 701.49 101.65 L 701.49 105.39 Q 701.49 109.13 701.49 111.62 L 701.49 112.87 Q 701.49 114.12 701.49 115.58 L 701.49 117.05" fill="none" stroke="#9ca3af" stroke-miterlimit="10" pointer-events="stroke"/><path d="M 701.49 120.56 L 699.16 115.88 L 701.49 117.05 L 703.83 115.88 Z" fill="#9ca3af" stroke="#9ca3af" stroke-miterlimit="10" pointer-events="all"/></g><g style="visibility: visible;" transform="translate(0.5,0.5)"><path d="M 701.49 150.29 L 701.49 154.03 Q 701.49 157.77 701.49 160.27 L 701.49 161.52 Q 701.49 162.76 701.49 164.23 L 701.49 165.69" fill="none" stroke="white" stroke-miterlimit="10" pointer-events="stroke" visibility="hidden" stroke-width="9"/><path d="M 701.49 150.29 L 701.49 154.03 Q 701.49 157.77 701.49 160.27 L 701.49 161.52 Q 701.49 162.76 701.49 164.23 L 701.49 165.69" fill="none" stroke="#9ca3af" stroke-miterlimit="10" pointer-events="stroke"/><path d="M 701.49 169.2 L 699.16 164.52 L 701.49 165.69 L 703.83 164.52 Z" fill="#9ca3af" stroke="#9ca3af" stroke-miterlimit="10" pointer-events="all"/></g><g style="visibility: visible;" transform="translate(0.5,0.5)"><path d="M 770.1 135.95 L 790.49 135.95" fill="none" stroke="white" stroke-miterlimit="10" pointer-events="stroke" visibility="hidden" stroke-width="9"/><path d="M 770.1 135.95 L 790.49 135.95" fill="none" stroke="#9ca3af" stroke-miterlimit="10" stroke-dasharray="4.67741935483871 2.806451612903226" pointer-events="stroke"/><path d="M 794 135.95 L 789.32 138.28 L 790.49 135.95 L 789.32 133.61 Z" fill="#9ca3af" stroke="#9ca3af" stroke-miterlimit="10" pointer-events="all"/></g><g style="visibility: visible;" transform="translate(0.5,0.5)"><path d="M 770.1 148.86 L 776.33 148.86 Q 782.57 148.86 782.57 155.09 L 782.57 181.47 Q 782.57 187.71 786.53 187.71 L 790.49 187.71" fill="none" stroke="white" stroke-miterlimit="10" pointer-events="stroke" visibility="hidden" stroke-width="9"/><path d="M 770.1 148.86 L 776.33 148.86 Q 782.57 148.86 782.57 155.09 L 782.57 181.47 Q 782.57 187.71 786.53 187.71 L 790.49 187.71" fill="none" stroke="#9ca3af" stroke-miterlimit="10" stroke-dasharray="4.67741935483871 2.806451612903226" pointer-events="stroke"/><path d="M 794 187.71 L 789.32 190.05 L 790.49 187.71 L 789.32 185.37 Z" fill="#9ca3af" stroke="#9ca3af" stroke-miterlimit="10" pointer-events="all"/></g><g style="visibility: visible;" transform="translate(0.5,0.5)"><path d="M 770.1 148.86 L 776.33 148.86 Q 782.57 148.86 782.57 155.09 L 782.57 226.38 Q 782.57 232.61 788.81 232.61 L 795.04 232.61" fill="none" stroke="white" stroke-miterlimit="10" pointer-events="stroke" visibility="hidden" stroke-width="9"/><path d="M 770.1 148.86 L 776.33 148.86 Q 782.57 148.86 782.57 155.09 L 782.57 226.38 Q 782.57 232.61 788.81 232.61 L 795.04 232.61" fill="none" stroke="#9ca3af" stroke-miterlimit="10" stroke-dasharray="4.67741935483871 2.806451612903226" pointer-events="stroke"/></g><g style="visibility: visible;" transform="translate(0.5,0.5)"><path d="M 632.89 193.32 L 612.5 193.32" fill="none" stroke="white" stroke-miterlimit="10" pointer-events="stroke" visibility="hidden" stroke-width="9"/><path d="M 632.89 193.32 L 612.5 193.32" fill="none" stroke="#9ca3af" stroke-miterlimit="10" stroke-dasharray="4.67741935483871 2.806451612903226" pointer-events="stroke"/><path d="M 608.99 193.32 L 613.67 190.98 L 612.5 193.32 L 613.67 195.66 Z" fill="#9ca3af" stroke="#9ca3af" stroke-miterlimit="10" pointer-events="all"/></g><g style="visibility: visible;" transform="translate(0.5,0.5)"><path d="M 483.22 193.32 L 464.51 193.32 Q 458.27 193.32 458.27 187.09 L 458.27 44.89 Q 458.27 38.66 464.51 38.66 L 628.34 38.66" fill="none" stroke="white" stroke-miterlimit="10" pointer-events="stroke" visibility="hidden" stroke-width="9"/><path d="M 483.22 193.32 L 464.51 193.32 Q 458.27 193.32 458.27 187.09 L 458.27 44.89 Q 458.27 38.66 464.51 38.66 L 628.34 38.66" fill="none" stroke="#9ca3af" stroke-miterlimit="10" stroke-dasharray="4.67741935483871 2.806451612903226" pointer-events="stroke"/><path d="M 631.85 38.66 L 627.17 40.99 L 628.34 38.66 L 627.17 36.32 Z" fill="#9ca3af" stroke="#9ca3af" stroke-miterlimit="10" pointer-events="all"/></g></g><g/><g/></g></svg>