<?xml version="1.0" encoding="UTF-8"?>
<svg style="left: 0px; top: 0px; width: 100%; height: 100%; display: block; min-width: 987px; min-height: 325px;" xmlns="http://www.w3.org/2000/svg" xmlns:xhtml="http://www.w3.org/1999/xhtml" viewBox="432.03 -5.649999999999999 584.1 360.28999999999996" width="800" height="493"><style>@import url('https://fonts.googleapis.com/css2?family=Montserrat:wght@400;600&amp;display=swap');
foreignObject div { font-family: 'Montserrat', 'Segoe UI', sans-serif; }
foreignObject b { font-weight: 600; }
.wv-scroll-text { overflow: hidden; }</style><g><g/><g><g transform="translate(0.5,0.5)" style="visibility: visible;"><rect x="632.01" y="24.35" width="155.81" height="32.58" rx="13.03" ry="13.03" fill="#dbeafe" stroke="#3b82f6" pointer-events="all"/></g><g style=""><g transform="scale(0.7082352941176471)"><foreignObject style="overflow: visible; text-align: left;" pointer-events="none" width="142%" height="142%"><div xmlns="http://www.w3.org/1999/xhtml" dir="" style="display: flex; align-items: unsafe center; justify-content: unsafe flex-start; width: 198px; height: 1px; padding-top: 57px; margin-left: 904px;"><div style="box-sizing: border-box; font-size: 0; text-align: left; max-height: 30px; overflow: hidden; "><div style="display: inline-block; font-size: 12px; font-family: Montserrat, sans-serif; color: #333; line-height: 1.2; pointer-events: all; background-color: none; border: 1px solid none; white-space: normal; word-wrap: normal; "><div style="line-height:26px"><b>User Input</b></div></div></div></div></foreignObject></g></g><g transform="translate(0.5,0.5)" style="visibility: visible;"><rect x="632.01" y="79.6" width="155.81" height="32.58" fill="#ede9fe" stroke="#7c3aed" pointer-events="all"/></g><g style=""><g transform="scale(0.7082352941176471)"><foreignObject style="overflow: visible; text-align: left;" pointer-events="none" width="142%" height="142%"><div xmlns="http://www.w3.org/1999/xhtml" dir="" style="display: flex; align-items: unsafe center; justify-content: unsafe flex-start; width: 198px; height: 1px; padding-top: 135px; margin-left: 904px;"><div style="box-sizing: border-box; font-size: 0; text-align: left; max-height: 30px; overflow: hidden; "><div style="display: inline-block; font-size: 12px; font-family: Montserrat, sans-serif; color: #333; line-height: 1.2; pointer-events: all; background-color: none; border: 1px solid none; white-space: normal; word-wrap: normal; "><div style="line-height:26px"><b><span style="opacity:0.4">▸</span> System Prompt</b></div></div></div></div></foreignObject></g></g><g transform="translate(0.5,0.5)" style="visibility: visible;"><rect x="632.01" y="134.84" width="155.81" height="32.58" rx="4.89" ry="4.89" fill="#dcfce7" stroke="#16a34a" pointer-events="all"/></g><g style=""><g transform="scale(0.7082352941176471)"><foreignObject style="overflow: visible; text-align: left;" pointer-events="none" width="142%" height="142%"><div xmlns="http://www.w3.org/1999/xhtml" dir="" style="display: flex; align-items: unsafe center; justify-content: unsafe flex-start; width: 198px; height: 1px; padding-top: 213px; margin-left: 904px;"><div style="box-sizing: border-box; font-size: 0; text-align: left; max-height: 30px; overflow: hidden; "><div style="display: inline-block; font-size: 12px; font-family: Montserrat, sans-serif; color: #333; line-height: 1.2; pointer-events: all; background-color: none; border: 1px solid none; white-space: normal; word-wrap: normal; "><div style="line-height:26px"><b><span style="opacity:0.4">▸</span> gpt-5.4</b></div></div></div></div></foreignObject></g></g><g transform="translate(0.5,0.5)" style="visibility: visible;"><rect x="632.01" y="190.08" width="155.81" height="52.41" rx="20.96" ry="20.96" fill="#dbeafe" stroke="#3b82f6" pointer-events="all"/></g><g style=""><g transform="scale(0.7082352941176471)"><foreignObject style="overflow: visible; text-align: left;" pointer-events="none" width="142%" height="142%"><div xmlns="http://www.w3.org/1999/xhtml" dir="" style="display: flex; align-items: unsafe center; justify-content: unsafe flex-start; width: 198px; height: 1px; padding-top: 305px; margin-left: 904px;"><div style="box-sizing: border-box; font-size: 0; text-align: left; max-height: 58px; overflow: hidden; "><div style="display: inline-block; font-size: 12px; font-family: Montserrat, sans-serif; color: #333; line-height: 1.2; pointer-events: all; background-color: none; border: 1px solid none; white-space: normal; word-wrap: normal; "><div style="line-height:26px"><b>Response</b></div><div style="margin-top:4px"><div style="line-height:22px;font-weight:normal;color:#6b7280">• Text Output</div></div></div></div></div></foreignObject></g></g><g style="visibility: visible;" transform="translate(0.5,0.5)"><rect x="816.15" y="93.76" width="169.98" height="114.73" rx="17.21" ry="17.21" fill="#fff7ed" stroke="#ea580c" stroke-width="1.06" pointer-events="all"/></g><g style=""><g transform="scale(0.7082352941176471)"><foreignObject style="overflow: visible; text-align: left;" pointer-events="none" width="142%" height="142%"><div xmlns="http://www.w3.org/1999/xhtml" dir="" style="display: flex; align-items: unsafe center; justify-content: unsafe flex-start; width: 218px; height: 1px; padding-top: 213px; margin-left: 1164px;"><div style="box-sizing: border-box; font-size: 0; text-align: left; max-height: 146px; overflow: hidden; "><div style="display: inline-block; font-size: 12px; font-family: Montserrat, sans-serif; color: #333; line-height: 1.2; pointer-events: all; background-color: none; border: 1px solid none; white-space: normal; word-wrap: normal; "><div style="line-height:26px"><b>Tools</b></div><div style="border-top:1px solid rgba(128,128,128,0.3);margin-top:2px;padding-top:4px"><div style="line-height:22px;font-weight:normal;color:#6b7280">▸ Python Execution (4)</div><div style="line-height:22px;font-weight:normal;color:#6b7280">▸ File Reading (3)</div><div style="line-height:22px;font-weight:normal;color:#6b7280">▸ Planning (1)</div><div style="line-height:22px;font-weight:normal;color:#6b7280">▸ 🔒 Library Search (1)</div><div style="line-height:22px;font-weight:normal;color:#6b7280">▸ File Operations (3)</div></div></div></div></div></foreignObject></g></g><g transform="translate(0.5,0.5)" style="visibility: visible;"><rect x="816.15" y="216.99" width="141.65" height="83.57" rx="12.54" ry="12.54" fill="#f3f4f6" stroke="#9ca3af" pointer-events="all"/></g><g style=""><g transform="scale(0.7082352941176471)"><foreignObject style="overflow: visible; text-align: left;" pointer-events="none" width="142%" height="142%"><div xmlns="http://www.w3.org/1999/xhtml" dir="" style="display: flex; align-items: unsafe center; justify-content: unsafe flex-start; width: 178px; height: 1px; padding-top: 365px; margin-left: 1164px;"><div style="box-sizing: border-box; font-size: 0; text-align: left; max-height: 102px; overflow: hidden; "><div style="display: inline-block; font-size: 12px; font-family: Montserrat, sans-serif; color: #333; line-height: 1.2; pointer-events: all; background-color: none; border: 1px solid none; white-space: normal; word-wrap: normal; "><div style="line-height:26px"><b>Features</b></div><div style="border-top:1px solid rgba(128,128,128,0.3);margin-top:2px;padding-top:4px"><div style="line-height:22px;font-weight:normal;color:#6b7280">• Monadic</div><div style="line-height:22px;font-weight:normal;color:#6b7280">• Math</div><div style="line-height:22px;font-weight:normal;color:#6b7280">• Initiate From Assistant</div></div></div></div></div></foreignObject></g></g><g transform="translate(0.5,0.5)" style="visibility: visible;"><rect x="462.03" y="200" width="141.65" height="32.58" rx="4.89" ry="4.89" fill="#fef9c3" stroke="#ca8a04" pointer-events="all"/></g><g style=""><g transform="scale(0.7082352941176471)"><foreignObject style="overflow: visible; text-align: left;" pointer-events="none" width="142%" height="142%"><div xmlns="http://www.w3.org/1999/xhtml" dir="" style="display: flex; align-items: unsafe center; justify-content: unsafe flex-start; width: 178px; height: 1px; padding-top: 305px; margin-left: 664px;"><div style="box-sizing: border-box; font-size: 0; text-align: left; max-height: 30px; overflow: hidden; "><div style="display: inline-block; font-size: 12px; font-family: Montserrat, sans-serif; color: #333; line-height: 1.2; pointer-events: all; background-color: none; border: 1px solid none; white-space: normal; word-wrap: normal; "><div style="line-height:26px"><b>Message History</b></div></div></div></div></foreignObject></g></g><g transform="translate(0.5,0.5)" style="visibility: visible;"><rect x="462.03" y="241.07" width="141.65" height="83.57" rx="12.54" ry="12.54" fill="#fef9c3" stroke="#ca8a04" pointer-events="all"/></g><g style=""><g transform="scale(0.7082352941176471)"><foreignObject style="overflow: visible; text-align: left;" pointer-events="none" width="142%" height="142%"><div xmlns="http://www.w3.org/1999/xhtml" dir="" style="display: flex; align-items: unsafe center; justify-content: unsafe flex-start; width: 178px; height: 1px; padding-top: 399px; margin-left: 664px;"><div style="box-sizing: border-box; font-size: 0; text-align: left; max-height: 102px; overflow: hidden; "><div style="display: inline-block; font-size: 12px; font-family: Montserrat, sans-serif; color: #333; line-height: 1.2; pointer-events: all; background-color: none; border: 1px solid none; white-space: normal; word-wrap: normal; "><div style="line-height:26px"><b>Monadic Context</b></div><div style="border-top:1px solid rgba(128,128,128,0.3);margin-top:2px;padding-top:4px"><div style="line-height:22px;font-weight:normal;color:#6b7280">• Concepts</div><div style="line-height:22px;font-weight:normal;color:#6b7280">• Formulas</div><div style="line-height:22px;font-weight:normal;color:#6b7280">• Tips</div></div></div></div></div></foreignObject></g></g><g style="visibility: visible;" transform="translate(0.5,0.5)"><path d="M 709.92 56.93 L 709.92 61.18 Q 709.92 65.43 709.92 68.26 L 709.92 69.68 Q 709.92 71.1 709.92 72.76 L 709.92 74.42" fill="none" stroke="white" stroke-width="9.06" stroke-miterlimit="10" pointer-events="stroke" visibility="hidden"/><path d="M 709.92 56.93 L 709.92 61.18 Q 709.92 65.43 709.92 68.26 L 709.92 69.68 Q 709.92 71.1 709.92 72.76 L 709.92 74.42" fill="none" stroke="#9ca3af" stroke-width="1.06" stroke-miterlimit="10" pointer-events="stroke"/><path d="M 709.92 78.41 L 707.26 73.1 L 709.92 74.42 L 712.57 73.1 Z" fill="#9ca3af" stroke="#9ca3af" stroke-width="1.06" stroke-miterlimit="10" pointer-events="all"/></g><g style="visibility: visible;" transform="translate(0.5,0.5)"><path d="M 709.92 112.18 L 709.92 116.42 Q 709.92 120.67 709.92 123.51 L 709.92 124.92 Q 709.92 126.34 709.92 128 L 709.92 129.67" fill="none" stroke="white" stroke-width="9.06" stroke-miterlimit="10" pointer-events="stroke" visibility="hidden"/><path d="M 709.92 112.18 L 709.92 116.42 Q 709.92 120.67 709.92 123.51 L 709.92 124.92 Q 709.92 126.34 709.92 128 L 709.92 129.67" fill="none" stroke="#9ca3af" stroke-width="1.06" stroke-miterlimit="10" pointer-events="stroke"/><path d="M 709.92 133.65 L 707.26 128.34 L 709.92 129.67 L 712.57 128.34 Z" fill="#9ca3af" stroke="#9ca3af" stroke-width="1.06" stroke-miterlimit="10" pointer-events="all"/></g><g style="visibility: visible;" transform="translate(0.5,0.5)"><path d="M 709.92 167.42 L 709.92 171.67 Q 709.92 175.92 709.92 178.75 L 709.92 180.17 Q 709.92 181.58 709.92 183.25 L 709.92 184.91" fill="none" stroke="white" stroke-width="9.06" stroke-miterlimit="10" pointer-events="stroke" visibility="hidden"/><path d="M 709.92 167.42 L 709.92 171.67 Q 709.92 175.92 709.92 178.75 L 709.92 180.17 Q 709.92 181.58 709.92 183.25 L 709.92 184.91" fill="none" stroke="#9ca3af" stroke-width="1.06" stroke-miterlimit="10" pointer-events="stroke"/><path d="M 709.92 188.89 L 707.26 183.58 L 709.92 184.91 L 712.57 183.58 Z" fill="#9ca3af" stroke="#9ca3af" stroke-width="1.06" stroke-miterlimit="10" pointer-events="all"/></g><g style="visibility: visible;" transform="translate(0.5,0.5)"><path d="M 787.82 151.13 L 810.98 151.13" fill="none" stroke="white" stroke-width="9.06" stroke-miterlimit="10" pointer-events="stroke" visibility="hidden"/><path d="M 787.82 151.13 L 810.98 151.13" fill="none" stroke="#9ca3af" stroke-width="1.06" stroke-miterlimit="10" stroke-dasharray="5.311764705882354 3.187058823529412" pointer-events="stroke"/><path d="M 814.96 151.13 L 809.65 153.78 L 810.98 151.13 L 809.65 148.47 Z" fill="#9ca3af" stroke="#9ca3af" stroke-width="1.06" stroke-miterlimit="10" pointer-events="all"/></g><g style="visibility: visible;" transform="translate(0.5,0.5)"><path d="M 787.82 165.79 L 794.9 165.79 Q 801.99 165.79 801.99 172.87 L 801.99 251.7 Q 801.99 258.78 809.07 258.78 L 816.15 258.78" fill="none" stroke="white" stroke-width="9.06" stroke-miterlimit="10" pointer-events="stroke" visibility="hidden"/><path d="M 787.82 165.79 L 794.9 165.79 Q 801.99 165.79 801.99 172.87 L 801.99 251.7 Q 801.99 258.78 809.07 258.78 L 816.15 258.78" fill="none" stroke="#9ca3af" stroke-width="1.06" stroke-miterlimit="10" stroke-dasharray="5.311764705882354 3.187058823529412" pointer-events="stroke"/></g><g style="visibility: visible;" transform="translate(0.5,0.5)"><path d="M 632.01 216.29 L 603.68 216.29" fill="none" stroke="white" stroke-width="9.06" stroke-miterlimit="10" pointer-events="stroke" visibility="hidden"/><path d="M 632.01 216.29 L 603.68 216.29" fill="none" stroke="#9ca3af" stroke-width="1.06" stroke-miterlimit="10" stroke-dasharray="5.311764705882354 3.187058823529412" pointer-events="stroke"/></g><g style="visibility: visible;" transform="translate(0.5,0.5)"><path d="M 632.01 239.87 L 624.93 239.87 Q 617.84 239.87 617.84 246.95 L 617.84 275.78 Q 617.84 282.86 613.35 282.86 L 608.85 282.86" fill="none" stroke="white" stroke-width="9.06" stroke-miterlimit="10" pointer-events="stroke" visibility="hidden"/><path d="M 632.01 239.87 L 624.93 239.87 Q 617.84 239.87 617.84 246.95 L 617.84 275.78 Q 617.84 282.86 613.35 282.86 L 608.85 282.86" fill="none" stroke="#9ca3af" stroke-width="1.06" stroke-miterlimit="10" stroke-dasharray="5.311764705882354 3.187058823529412" pointer-events="stroke"/><path d="M 604.87 282.86 L 610.18 280.2 L 608.85 282.86 L 610.18 285.52 Z" fill="#9ca3af" stroke="#9ca3af" stroke-width="1.06" stroke-miterlimit="10" pointer-events="all"/></g><g style="visibility: visible;" transform="translate(0.5,0.5)"><path d="M 462.03 216.29 L 440.79 216.29 Q 433.7 216.29 433.7 209.2 L 433.7 47.73 Q 433.7 40.64 440.79 40.64 L 626.84 40.64" fill="none" stroke="white" stroke-width="9.06" stroke-miterlimit="10" pointer-events="stroke" visibility="hidden"/><path d="M 462.03 216.29 L 440.79 216.29 Q 433.7 216.29 433.7 209.2 L 433.7 47.73 Q 433.7 40.64 440.79 40.64 L 626.84 40.64" fill="none" stroke="#9ca3af" stroke-width="1.06" stroke-miterlimit="10" stroke-dasharray="5.311764705882354 3.187058823529412" pointer-events="stroke"/><path d="M 630.82 40.64 L 625.51 43.3 L 626.84 40.64 L 625.51 37.99 Z" fill="#9ca3af" stroke="#9ca3af" stroke-width="1.06" stroke-miterlimit="10" pointer-events="all"/></g><g style="visibility: visible;" transform="translate(0.5,0.5)"><path d="M 462.03 282.86 L 426.62 282.86 Q 419.54 282.86 419.54 275.78 L 419.54 47.73 Q 419.54 40.64 426.62 40.64 L 626.84 40.64" fill="none" stroke="white" stroke-width="9.06" stroke-miterlimit="10" pointer-events="stroke" visibility="hidden"/><path d="M 462.03 282.86 L 426.62 282.86 Q 419.54 282.86 419.54 275.78 L 419.54 47.73 Q 419.54 40.64 426.62 40.64 L 626.84 40.64" fill="none" stroke="#9ca3af" stroke-width="1.06" stroke-miterlimit="10" stroke-dasharray="5.311764705882354 3.187058823529412" pointer-events="stroke"/><path d="M 630.82 40.64 L 625.51 43.3 L 626.84 40.64 L 625.51 37.99 Z" fill="#9ca3af" stroke="#9ca3af" stroke-width="1.06" stroke-miterlimit="10" pointer-events="all"/></g></g><g/><g/></g></svg>