<?xml version="1.0" encoding="UTF-8"?>
<svg style="left: 0px; top: 0px; width: 100%; height: 100%; display: block; min-width: 953px; min-height: 257px;" xmlns="http://www.w3.org/2000/svg" xmlns:xhtml="http://www.w3.org/1999/xhtml" viewBox="-318.75 -30.5 849.5 421" width="800" height="396"><style>@import url('https://fonts.googleapis.com/css2?family=Montserrat:wght@400;600&amp;display=swap');
foreignObject div { font-family: 'Montserrat', 'Segoe UI', sans-serif; }
foreignObject b { font-weight: 600; }
.wv-scroll-text { overflow: hidden; }</style><g><g/><g><g transform="translate(0.5,0.5)" style="visibility: visible;"><rect x="630.88" y="24.32" width="141.39" height="29.56" rx="11.82" ry="11.82" fill="#dbeafe" stroke="#3b82f6" pointer-events="all"/></g><g style=""><g transform="scale(0.6426592797783933)"><foreignObject style="overflow: visible; text-align: left;" pointer-events="none" width="156%" height="156%"><div xmlns="http://www.w3.org/1999/xhtml" dir="" style="display: flex; align-items: unsafe center; justify-content: unsafe flex-start; width: 198px; height: 1px; padding-top: 61px; margin-left: 994px;"><div style="box-sizing: border-box; font-size: 0; text-align: left; max-height: 30px; overflow: hidden; "><div style="display: inline-block; font-size: 12px; font-family: Montserrat, sans-serif; color: #333; line-height: 1.2; pointer-events: all; background-color: none; border: 1px solid none; white-space: normal; word-wrap: normal; "><div style="line-height:26px"><b>User Input</b></div></div></div></div></foreignObject></g></g><g transform="translate(0.5,0.5)" style="visibility: visible;"><rect x="630.88" y="74.45" width="141.39" height="29.56" fill="#ede9fe" stroke="#7c3aed" pointer-events="all"/></g><g style=""><g transform="scale(0.6426592797783933)"><foreignObject style="overflow: visible; text-align: left;" pointer-events="none" width="156%" height="156%"><div xmlns="http://www.w3.org/1999/xhtml" dir="" style="display: flex; align-items: unsafe center; justify-content: unsafe flex-start; width: 198px; height: 1px; padding-top: 139px; margin-left: 994px;"><div style="box-sizing: border-box; font-size: 0; text-align: left; max-height: 30px; overflow: hidden; "><div style="display: inline-block; font-size: 12px; font-family: Montserrat, sans-serif; color: #333; line-height: 1.2; pointer-events: all; background-color: none; border: 1px solid none; white-space: normal; word-wrap: normal; "><div style="line-height:26px"><b><span style="opacity:0.4">▸</span> System Prompt</b></div></div></div></div></foreignObject></g></g><g transform="translate(0.5,0.5)" style="visibility: visible;"><rect x="630.88" y="124.58" width="141.39" height="29.56" rx="4.43" ry="4.43" fill="#dcfce7" stroke="#16a34a" pointer-events="all"/></g><g style=""><g transform="scale(0.6426592797783933)"><foreignObject style="overflow: visible; text-align: left;" pointer-events="none" width="156%" height="156%"><div xmlns="http://www.w3.org/1999/xhtml" dir="" style="display: flex; align-items: unsafe center; justify-content: unsafe flex-start; width: 198px; height: 1px; padding-top: 217px; margin-left: 994px;"><div style="box-sizing: border-box; font-size: 0; text-align: left; max-height: 30px; overflow: hidden; "><div style="display: inline-block; font-size: 12px; font-family: Montserrat, sans-serif; color: #333; line-height: 1.2; pointer-events: all; background-color: none; border: 1px solid none; white-space: normal; word-wrap: normal; "><div style="line-height:26px"><b><span style="opacity:0.4">▸</span> gpt-5.2</b></div></div></div></div></foreignObject></g></g><g transform="translate(0.5,0.5)" style="visibility: visible;"><rect x="630.88" y="174.7" width="141.39" height="47.56" rx="19.02" ry="19.02" fill="#dbeafe" stroke="#3b82f6" pointer-events="all"/></g><g style=""><g transform="scale(0.6426592797783933)"><foreignObject style="overflow: visible; text-align: left;" pointer-events="none" width="156%" height="156%"><div xmlns="http://www.w3.org/1999/xhtml" dir="" style="display: flex; align-items: unsafe center; justify-content: unsafe flex-start; width: 198px; height: 1px; padding-top: 309px; margin-left: 994px;"><div style="box-sizing: border-box; font-size: 0; text-align: left; max-height: 58px; overflow: hidden; "><div style="display: inline-block; font-size: 12px; font-family: Montserrat, sans-serif; color: #333; line-height: 1.2; pointer-events: all; background-color: none; border: 1px solid none; white-space: normal; word-wrap: normal; "><div style="line-height:26px"><b>Response</b></div><div style="margin-top:4px"><div style="line-height:22px;font-weight:normal;color:#6b7280">• text output</div></div></div></div></div></foreignObject></g></g><g style="visibility: visible;" transform="translate(0.5,0.5)"><rect x="797.97" y="115.58" width="154.24" height="47.56" rx="7.13" ry="7.13" fill="#fff7ed" stroke="#ea580c" pointer-events="all"/></g><g style=""><g transform="scale(0.6426592797783933)"><foreignObject style="overflow: visible; text-align: left;" pointer-events="none" width="156%" height="156%"><div xmlns="http://www.w3.org/1999/xhtml" dir="" style="display: flex; align-items: unsafe center; justify-content: unsafe flex-start; width: 218px; height: 1px; padding-top: 217px; margin-left: 1254px;"><div style="box-sizing: border-box; font-size: 0; text-align: left; max-height: 58px; overflow: hidden; "><div style="display: inline-block; font-size: 12px; font-family: Montserrat, sans-serif; color: #333; line-height: 1.2; pointer-events: all; background-color: none; border: 1px solid none; white-space: normal; word-wrap: normal; "><div style="line-height:26px"><b>Tools</b></div><div style="border-top:1px solid rgba(128,128,128,0.3);margin-top:2px;padding-top:4px"><div style="line-height:22px;font-weight:normal;color:#6b7280">▸ Content Analysis Openai (3)</div></div></div></div></div></foreignObject></g></g><g style="visibility: visible;" transform="translate(0.5,0.5)"><rect x="797.97" y="170.85" width="141.39" height="29.56" rx="4.43" ry="4.43" fill="#fee2e2" stroke="#dc2626" pointer-events="all"/></g><g style=""><g transform="scale(0.6426592797783933)"><foreignObject style="overflow: visible; text-align: left;" pointer-events="none" width="156%" height="156%"><div xmlns="http://www.w3.org/1999/xhtml" dir="" style="display: flex; align-items: unsafe center; justify-content: unsafe flex-start; width: 198px; height: 1px; padding-top: 289px; margin-left: 1254px;"><div style="box-sizing: border-box; font-size: 0; text-align: left; max-height: 30px; overflow: hidden; "><div style="display: inline-block; font-size: 12px; font-family: Montserrat, sans-serif; color: #333; line-height: 1.2; pointer-events: all; background-color: none; border: 1px solid none; white-space: normal; word-wrap: normal; "><div style="line-height:26px"><b><span style="opacity:0.4">▸</span> Speech To Text</b></div></div></div></div></foreignObject></g></g><g transform="translate(0.5,0.5)" style="visibility: visible;"><rect x="797.97" y="208.12" width="128.53" height="47.56" rx="7.13" ry="7.13" fill="#f3f4f6" stroke="#9ca3af" pointer-events="all"/></g><g style=""><g transform="scale(0.6426592797783933)"><foreignObject style="overflow: visible; text-align: left;" pointer-events="none" width="156%" height="156%"><div xmlns="http://www.w3.org/1999/xhtml" dir="" style="display: flex; align-items: unsafe center; justify-content: unsafe flex-start; width: 178px; height: 1px; padding-top: 361px; margin-left: 1254px;"><div style="box-sizing: border-box; font-size: 0; text-align: left; max-height: 58px; overflow: hidden; "><div style="display: inline-block; font-size: 12px; font-family: Montserrat, sans-serif; color: #333; line-height: 1.2; pointer-events: all; background-color: none; border: 1px solid none; white-space: normal; word-wrap: normal; "><div style="line-height:26px"><b>Features</b></div><div style="border-top:1px solid rgba(128,128,128,0.3);margin-top:2px;padding-top:4px"><div style="line-height:22px;font-weight:normal;color:#6b7280">• Initiate From Assistant</div></div></div></div></div></foreignObject></g></g><g transform="translate(0.5,0.5)" style="visibility: visible;"><rect x="476.64" y="174.7" width="128.53" height="47.56" rx="7.13" ry="7.13" fill="#fef9c3" stroke="#ca8a04" pointer-events="all"/></g><g style=""><g transform="scale(0.6426592797783933)"><foreignObject style="overflow: visible; text-align: left;" pointer-events="none" width="156%" height="156%"><div xmlns="http://www.w3.org/1999/xhtml" dir="" style="display: flex; align-items: unsafe center; justify-content: unsafe flex-start; width: 178px; height: 1px; padding-top: 309px; margin-left: 754px;"><div style="box-sizing: border-box; font-size: 0; text-align: left; max-height: 58px; overflow: hidden; "><div style="display: inline-block; font-size: 12px; font-family: Montserrat, sans-serif; color: #333; line-height: 1.2; pointer-events: all; background-color: none; border: 1px solid none; white-space: normal; word-wrap: normal; "><div style="line-height:26px"><b>Context</b></div><div style="border-top:1px solid rgba(128,128,128,0.3);margin-top:2px;padding-top:4px"><div style="line-height:22px;font-weight:normal;color:#6b7280">• Message History</div></div></div></div></div></foreignObject></g></g><g style="visibility: visible;" transform="translate(0.5,0.5)"><path d="M 701.57 53.88 L 701.57 57.74 Q 701.57 61.6 701.57 64.17 L 701.57 65.45 Q 701.57 66.74 701.57 68.25 L 701.57 69.76" fill="none" stroke="white" stroke-miterlimit="10" pointer-events="stroke" visibility="hidden" stroke-width="9"/><path d="M 701.57 53.88 L 701.57 57.74 Q 701.57 61.6 701.57 64.17 L 701.57 65.45 Q 701.57 66.74 701.57 68.25 L 701.57 69.76" fill="none" stroke="#9ca3af" stroke-miterlimit="10" pointer-events="stroke"/><path d="M 701.57 73.37 L 699.16 68.55 L 701.57 69.76 L 703.98 68.55 Z" fill="#9ca3af" stroke="#9ca3af" stroke-miterlimit="10" pointer-events="all"/></g><g style="visibility: visible;" transform="translate(0.5,0.5)"><path d="M 701.57 104.01 L 701.57 107.87 Q 701.57 111.72 701.57 114.29 L 701.57 115.58 Q 701.57 116.86 701.57 118.37 L 701.57 119.88" fill="none" stroke="white" stroke-miterlimit="10" pointer-events="stroke" visibility="hidden" stroke-width="9"/><path d="M 701.57 104.01 L 701.57 107.87 Q 701.57 111.72 701.57 114.29 L 701.57 115.58 Q 701.57 116.86 701.57 118.37 L 701.57 119.88" fill="none" stroke="#9ca3af" stroke-miterlimit="10" pointer-events="stroke"/><path d="M 701.57 123.5 L 699.16 118.68 L 701.57 119.88 L 703.98 118.68 Z" fill="#9ca3af" stroke="#9ca3af" stroke-miterlimit="10" pointer-events="all"/></g><g style="visibility: visible;" transform="translate(0.5,0.5)"><path d="M 701.57 154.14 L 701.57 157.99 Q 701.57 161.85 701.57 164.42 L 701.57 165.71 Q 701.57 166.99 701.57 168.5 L 701.57 170.01" fill="none" stroke="white" stroke-miterlimit="10" pointer-events="stroke" visibility="hidden" stroke-width="9"/><path d="M 701.57 154.14 L 701.57 157.99 Q 701.57 161.85 701.57 164.42 L 701.57 165.71 Q 701.57 166.99 701.57 168.5 L 701.57 170.01" fill="none" stroke="#9ca3af" stroke-miterlimit="10" pointer-events="stroke"/><path d="M 701.57 173.63 L 699.16 168.81 L 701.57 170.01 L 703.98 168.81 Z" fill="#9ca3af" stroke="#9ca3af" stroke-miterlimit="10" pointer-events="all"/></g><g style="visibility: visible;" transform="translate(0.5,0.5)"><path d="M 772.26 139.36 L 793.28 139.36" fill="none" stroke="white" stroke-miterlimit="10" pointer-events="stroke" visibility="hidden" stroke-width="9"/><path d="M 772.26 139.36 L 793.28 139.36" fill="none" stroke="#9ca3af" stroke-miterlimit="10" stroke-dasharray="4.819944598337949 2.89196675900277" pointer-events="stroke"/><path d="M 796.89 139.36 L 792.07 141.77 L 793.28 139.36 L 792.07 136.95 Z" fill="#9ca3af" stroke="#9ca3af" stroke-miterlimit="10" pointer-events="all"/></g><g style="visibility: visible;" transform="translate(0.5,0.5)"><path d="M 772.26 152.66 L 778.69 152.66 Q 785.12 152.66 785.12 159.09 L 785.12 179.2 Q 785.12 185.63 789.2 185.63 L 793.28 185.63" fill="none" stroke="white" stroke-miterlimit="10" pointer-events="stroke" visibility="hidden" stroke-width="9"/><path d="M 772.26 152.66 L 778.69 152.66 Q 785.12 152.66 785.12 159.09 L 785.12 179.2 Q 785.12 185.63 789.2 185.63 L 793.28 185.63" fill="none" stroke="#9ca3af" stroke-miterlimit="10" stroke-dasharray="4.819944598337949 2.89196675900277" pointer-events="stroke"/><path d="M 796.89 185.63 L 792.07 188.04 L 793.28 185.63 L 792.07 183.22 Z" fill="#9ca3af" stroke="#9ca3af" stroke-miterlimit="10" pointer-events="all"/></g><g style="visibility: visible;" transform="translate(0.5,0.5)"><path d="M 772.26 152.66 L 778.69 152.66 Q 785.12 152.66 785.12 159.09 L 785.12 225.47 Q 785.12 231.9 791.54 231.9 L 797.97 231.9" fill="none" stroke="white" stroke-miterlimit="10" pointer-events="stroke" visibility="hidden" stroke-width="9"/><path d="M 772.26 152.66 L 778.69 152.66 Q 785.12 152.66 785.12 159.09 L 785.12 225.47 Q 785.12 231.9 791.54 231.9 L 797.97 231.9" fill="none" stroke="#9ca3af" stroke-miterlimit="10" stroke-dasharray="4.819944598337949 2.89196675900277" pointer-events="stroke"/></g><g style="visibility: visible;" transform="translate(0.5,0.5)"><path d="M 630.88 198.48 L 609.86 198.48" fill="none" stroke="white" stroke-miterlimit="10" pointer-events="stroke" visibility="hidden" stroke-width="9"/><path d="M 630.88 198.48 L 609.86 198.48" fill="none" stroke="#9ca3af" stroke-miterlimit="10" stroke-dasharray="4.819944598337949 2.89196675900277" pointer-events="stroke"/><path d="M 606.25 198.48 L 611.07 196.07 L 609.86 198.48 L 611.07 200.89 Z" fill="#9ca3af" stroke="#9ca3af" stroke-miterlimit="10" pointer-events="all"/></g><g style="visibility: visible;" transform="translate(0.5,0.5)"><path d="M 476.64 198.48 L 457.36 198.48 Q 450.93 198.48 450.93 192.06 L 450.93 45.53 Q 450.93 39.1 457.36 39.1 L 626.19 39.1" fill="none" stroke="white" stroke-miterlimit="10" pointer-events="stroke" visibility="hidden" stroke-width="9"/><path d="M 476.64 198.48 L 457.36 198.48 Q 450.93 198.48 450.93 192.06 L 450.93 45.53 Q 450.93 39.1 457.36 39.1 L 626.19 39.1" fill="none" stroke="#9ca3af" stroke-miterlimit="10" stroke-dasharray="4.819944598337949 2.89196675900277" pointer-events="stroke"/><path d="M 629.8 39.1 L 624.98 41.51 L 626.19 39.1 L 624.98 36.69 Z" fill="#9ca3af" stroke="#9ca3af" stroke-miterlimit="10" pointer-events="all"/></g></g><g/><g/></g></svg>