<?xml version="1.0" encoding="UTF-8"?>
<svg style="left: 0px; top: 0px; width: 100%; height: 100%; display: block; min-width: 942px; min-height: 325px;" xmlns="http://www.w3.org/2000/svg" xmlns:xhtml="http://www.w3.org/1999/xhtml" viewBox="469.33 -5.699999999999999 501.9400000000001 360.4" width="800" height="574"><style>@import url('https://fonts.googleapis.com/css2?family=Montserrat:wght@400;600&amp;display=swap');
foreignObject div { font-family: 'Montserrat', 'Segoe UI', sans-serif; }
foreignObject b { font-weight: 600; }
.wv-scroll-text { overflow: hidden; }</style><g><g/><g><g transform="translate(0.5,0.5)" style="visibility: visible;"><rect x="642.67" y="24.3" width="131.39" height="27.47" rx="10.99" ry="10.99" fill="#dbeafe" stroke="#3b82f6" pointer-events="all"/></g><g style=""><g transform="scale(0.5972222222222222)"><foreignObject style="overflow: visible; text-align: left;" pointer-events="none" width="168%" height="168%"><div xmlns="http://www.w3.org/1999/xhtml" dir="" style="display: flex; align-items: unsafe center; justify-content: unsafe flex-start; width: 198px; height: 1px; padding-top: 64px; margin-left: 1088px;"><div style="box-sizing: border-box; font-size: 0; text-align: left; max-height: 30px; overflow: hidden; "><div style="display: inline-block; font-size: 12px; font-family: Montserrat, sans-serif; color: #333; line-height: 1.2; pointer-events: all; background-color: none; border: 1px solid none; white-space: normal; word-wrap: normal; "><div style="line-height:26px"><b>User Input</b></div></div></div></div></foreignObject></g></g><g transform="translate(0.5,0.5)" style="visibility: visible;"><rect x="642.67" y="70.88" width="131.39" height="27.47" fill="#ede9fe" stroke="#7c3aed" pointer-events="all"/></g><g style=""><g transform="scale(0.5972222222222222)"><foreignObject style="overflow: visible; text-align: left;" pointer-events="none" width="168%" height="168%"><div xmlns="http://www.w3.org/1999/xhtml" dir="" style="display: flex; align-items: unsafe center; justify-content: unsafe flex-start; width: 198px; height: 1px; padding-top: 142px; margin-left: 1088px;"><div style="box-sizing: border-box; font-size: 0; text-align: left; max-height: 30px; overflow: hidden; "><div style="display: inline-block; font-size: 12px; font-family: Montserrat, sans-serif; color: #333; line-height: 1.2; pointer-events: all; background-color: none; border: 1px solid none; white-space: normal; word-wrap: normal; "><div style="line-height:26px"><b><span style="opacity:0.4">▸</span> System Prompt</b></div></div></div></div></foreignObject></g></g><g transform="translate(0.5,0.5)" style="visibility: visible;"><rect x="642.67" y="117.47" width="131.39" height="27.47" rx="4.12" ry="4.12" fill="#dcfce7" stroke="#16a34a" pointer-events="all"/></g><g style=""><g transform="scale(0.5972222222222222)"><foreignObject style="overflow: visible; text-align: left;" pointer-events="none" width="168%" height="168%"><div xmlns="http://www.w3.org/1999/xhtml" dir="" style="display: flex; align-items: unsafe center; justify-content: unsafe flex-start; width: 198px; height: 1px; padding-top: 220px; margin-left: 1088px;"><div style="box-sizing: border-box; font-size: 0; text-align: left; max-height: 30px; overflow: hidden; "><div style="display: inline-block; font-size: 12px; font-family: Montserrat, sans-serif; color: #333; line-height: 1.2; pointer-events: all; background-color: none; border: 1px solid none; white-space: normal; word-wrap: normal; "><div style="line-height:26px"><b><span style="opacity:0.4">▸</span> gpt-5.4</b></div></div></div></div></foreignObject></g></g><g transform="translate(0.5,0.5)" style="visibility: visible;"><rect x="642.67" y="164.05" width="131.39" height="44.19" rx="17.68" ry="17.68" fill="#dbeafe" stroke="#3b82f6" pointer-events="all"/></g><g style=""><g transform="scale(0.5972222222222222)"><foreignObject style="overflow: visible; text-align: left;" pointer-events="none" width="168%" height="168%"><div xmlns="http://www.w3.org/1999/xhtml" dir="" style="display: flex; align-items: unsafe center; justify-content: unsafe flex-start; width: 198px; height: 1px; padding-top: 312px; margin-left: 1088px;"><div style="box-sizing: border-box; font-size: 0; text-align: left; max-height: 58px; overflow: hidden; "><div style="display: inline-block; font-size: 12px; font-family: Montserrat, sans-serif; color: #333; line-height: 1.2; pointer-events: all; background-color: none; border: 1px solid none; white-space: normal; word-wrap: normal; "><div style="line-height:26px"><b>Response</b></div><div style="margin-top:4px"><div style="line-height:22px;font-weight:normal;color:#6b7280">• Text Output</div></div></div></div></div></foreignObject></g></g><g style="visibility: visible;" transform="translate(0.5,0.5)"><rect x="797.94" y="63.12" width="143.33" height="136.17" rx="20.42" ry="20.42" fill="#fff7ed" stroke="#ea580c" pointer-events="all"/></g><g style=""><g transform="scale(0.5972222222222222)"><foreignObject style="overflow: visible; text-align: left;" pointer-events="none" width="168%" height="168%"><div xmlns="http://www.w3.org/1999/xhtml" dir="" style="display: flex; align-items: unsafe center; justify-content: unsafe flex-start; width: 218px; height: 1px; padding-top: 220px; margin-left: 1348px;"><div style="box-sizing: border-box; font-size: 0; text-align: left; max-height: 212px; overflow: hidden; "><div style="display: inline-block; font-size: 12px; font-family: Montserrat, sans-serif; color: #333; line-height: 1.2; pointer-events: all; background-color: none; border: 1px solid none; white-space: normal; word-wrap: normal; "><div style="line-height:26px"><b>Tools</b></div><div style="border-top:1px solid rgba(128,128,128,0.3);margin-top:2px;padding-top:4px"><div style="line-height:22px;font-weight:normal;color:#6b7280">▸ Jupyter Operations (12)</div><div style="line-height:22px;font-weight:normal;color:#6b7280">▸ Python Execution (4)</div><div style="line-height:22px;font-weight:normal;color:#6b7280">▸ File Operations (3)</div><div style="line-height:22px;font-weight:normal;color:#6b7280">▸ File Reading (3)</div><div style="line-height:22px;font-weight:normal;color:#6b7280">▸ Planning (1)</div><div style="line-height:22px;font-weight:normal;color:#6b7280">▸ Verification (1)</div><div style="line-height:22px;font-weight:normal;color:#6b7280"><span data-tool="openai_code_agent">Openai Code Agent</span></div><div style="line-height:22px;font-weight:normal;color:#6b7280"><span data-tool="monadic_load_state">Monadic Load State</span></div></div></div></div></div></foreignObject></g></g><g style="visibility: visible;" transform="translate(0.5,0.5)"><rect x="797.94" y="206.45" width="131.39" height="27.47" rx="4.12" ry="4.12" fill="#fee2e2" stroke="#dc2626" pointer-events="all"/></g><g style=""><g transform="scale(0.5972222222222222)"><foreignObject style="overflow: visible; text-align: left;" pointer-events="none" width="168%" height="168%"><div xmlns="http://www.w3.org/1999/xhtml" dir="" style="display: flex; align-items: unsafe center; justify-content: unsafe flex-start; width: 198px; height: 1px; padding-top: 369px; margin-left: 1348px;"><div style="box-sizing: border-box; font-size: 0; text-align: left; max-height: 30px; overflow: hidden; "><div style="display: inline-block; font-size: 12px; font-family: Montserrat, sans-serif; color: #333; line-height: 1.2; pointer-events: all; background-color: none; border: 1px solid none; white-space: normal; word-wrap: normal; "><div style="line-height:26px"><b><span style="opacity:0.4">▸</span> Code Generator</b></div></div></div></div></foreignObject></g></g><g transform="translate(0.5,0.5)" style="visibility: visible;"><rect x="797.94" y="241.09" width="119.44" height="83.61" rx="12.54" ry="12.54" fill="#f3f4f6" stroke="#9ca3af" pointer-events="all"/></g><g style=""><g transform="scale(0.5972222222222222)"><foreignObject style="overflow: visible; text-align: left;" pointer-events="none" width="168%" height="168%"><div xmlns="http://www.w3.org/1999/xhtml" dir="" style="display: flex; align-items: unsafe center; justify-content: unsafe flex-start; width: 178px; height: 1px; padding-top: 474px; margin-left: 1348px;"><div style="box-sizing: border-box; font-size: 0; text-align: left; max-height: 124px; overflow: hidden; "><div style="display: inline-block; font-size: 12px; font-family: Montserrat, sans-serif; color: #333; line-height: 1.2; pointer-events: all; background-color: none; border: 1px solid none; white-space: normal; word-wrap: normal; "><div style="line-height:26px"><b>Features</b></div><div style="border-top:1px solid rgba(128,128,128,0.3);margin-top:2px;padding-top:4px"><div style="line-height:22px;font-weight:normal;color:#6b7280">• Monadic</div><div style="line-height:22px;font-weight:normal;color:#6b7280">• Jupyter</div><div style="line-height:22px;font-weight:normal;color:#6b7280">• Math</div><div style="line-height:22px;font-weight:normal;color:#6b7280">• Initiate From Assistant</div></div></div></div></div></foreignObject></g></g><g transform="translate(0.5,0.5)" style="visibility: visible;"><rect x="499.33" y="172.41" width="119.44" height="27.47" rx="4.12" ry="4.12" fill="#fef9c3" stroke="#ca8a04" pointer-events="all"/></g><g style=""><g transform="scale(0.5972222222222222)"><foreignObject style="overflow: visible; text-align: left;" pointer-events="none" width="168%" height="168%"><div xmlns="http://www.w3.org/1999/xhtml" dir="" style="display: flex; align-items: unsafe center; justify-content: unsafe flex-start; width: 178px; height: 1px; padding-top: 312px; margin-left: 848px;"><div style="box-sizing: border-box; font-size: 0; text-align: left; max-height: 30px; overflow: hidden; "><div style="display: inline-block; font-size: 12px; font-family: Montserrat, sans-serif; color: #333; line-height: 1.2; pointer-events: all; background-color: none; border: 1px solid none; white-space: normal; word-wrap: normal; "><div style="line-height:26px"><b>Message History</b></div></div></div></div></foreignObject></g></g><g transform="translate(0.5,0.5)" style="visibility: visible;"><rect x="499.33" y="207.05" width="119.44" height="70.47" rx="10.57" ry="10.57" fill="#fef9c3" stroke="#ca8a04" pointer-events="all"/></g><g style=""><g transform="scale(0.5972222222222222)"><foreignObject style="overflow: visible; text-align: left;" pointer-events="none" width="168%" height="168%"><div xmlns="http://www.w3.org/1999/xhtml" dir="" style="display: flex; align-items: unsafe center; justify-content: unsafe flex-start; width: 178px; height: 1px; padding-top: 406px; margin-left: 848px;"><div style="box-sizing: border-box; font-size: 0; text-align: left; max-height: 102px; overflow: hidden; "><div style="display: inline-block; font-size: 12px; font-family: Montserrat, sans-serif; color: #333; line-height: 1.2; pointer-events: all; background-color: none; border: 1px solid none; white-space: normal; word-wrap: normal; "><div style="line-height:26px"><b>Monadic Context</b></div><div style="border-top:1px solid rgba(128,128,128,0.3);margin-top:2px;padding-top:4px"><div style="line-height:22px;font-weight:normal;color:#6b7280">• Topics</div><div style="line-height:22px;font-weight:normal;color:#6b7280">• Code</div><div style="line-height:22px;font-weight:normal;color:#6b7280">• Notes</div></div></div></div></div></foreignObject></g></g><g style="visibility: visible;" transform="translate(0.5,0.5)"><path d="M 708.36 51.77 L 708.36 55.35 Q 708.36 58.94 708.36 61.33 L 708.36 62.52 Q 708.36 63.72 708.36 65.12 L 708.36 66.52" fill="none" stroke="white" stroke-miterlimit="10" pointer-events="stroke" visibility="hidden" stroke-width="9"/><path d="M 708.36 51.77 L 708.36 55.35 Q 708.36 58.94 708.36 61.33 L 708.36 62.52 Q 708.36 63.72 708.36 65.12 L 708.36 66.52" fill="none" stroke="#9ca3af" stroke-miterlimit="10" pointer-events="stroke"/><path d="M 708.36 69.88 L 706.12 65.4 L 708.36 66.52 L 710.6 65.4 Z" fill="#9ca3af" stroke="#9ca3af" stroke-miterlimit="10" pointer-events="all"/></g><g style="visibility: visible;" transform="translate(0.5,0.5)"><path d="M 708.36 98.35 L 708.36 101.94 Q 708.36 105.52 708.36 107.91 L 708.36 109.1 Q 708.36 110.3 708.36 111.7 L 708.36 113.1" fill="none" stroke="white" stroke-miterlimit="10" pointer-events="stroke" visibility="hidden" stroke-width="9"/><path d="M 708.36 98.35 L 708.36 101.94 Q 708.36 105.52 708.36 107.91 L 708.36 109.1 Q 708.36 110.3 708.36 111.7 L 708.36 113.1" fill="none" stroke="#9ca3af" stroke-miterlimit="10" pointer-events="stroke"/><path d="M 708.36 116.46 L 706.12 111.98 L 708.36 113.1 L 710.6 111.98 Z" fill="#9ca3af" stroke="#9ca3af" stroke-miterlimit="10" pointer-events="all"/></g><g style="visibility: visible;" transform="translate(0.5,0.5)"><path d="M 708.36 144.94 L 708.36 148.52 Q 708.36 152.1 708.36 154.49 L 708.36 155.69 Q 708.36 156.88 708.36 158.28 L 708.36 159.69" fill="none" stroke="white" stroke-miterlimit="10" pointer-events="stroke" visibility="hidden" stroke-width="9"/><path d="M 708.36 144.94 L 708.36 148.52 Q 708.36 152.1 708.36 154.49 L 708.36 155.69 Q 708.36 156.88 708.36 158.28 L 708.36 159.69" fill="none" stroke="#9ca3af" stroke-miterlimit="10" pointer-events="stroke"/><path d="M 708.36 163.05 L 706.12 158.57 L 708.36 159.69 L 710.6 158.57 Z" fill="#9ca3af" stroke="#9ca3af" stroke-miterlimit="10" pointer-events="all"/></g><g style="visibility: visible;" transform="translate(0.5,0.5)"><path d="M 774.06 131.2 L 793.58 131.2" fill="none" stroke="white" stroke-miterlimit="10" pointer-events="stroke" visibility="hidden" stroke-width="9"/><path d="M 774.06 131.2 L 793.58 131.2" fill="none" stroke="#9ca3af" stroke-miterlimit="10" stroke-dasharray="4.479166666666666 2.6875" pointer-events="stroke"/><path d="M 796.94 131.2 L 792.46 133.44 L 793.58 131.2 L 792.46 128.96 Z" fill="#9ca3af" stroke="#9ca3af" stroke-miterlimit="10" pointer-events="all"/></g><g style="visibility: visible;" transform="translate(0.5,0.5)"><path d="M 774.06 143.56 L 780.03 143.56 Q 786 143.56 786 149.54 L 786 214.22 Q 786 220.19 789.79 220.19 L 793.58 220.19" fill="none" stroke="white" stroke-miterlimit="10" pointer-events="stroke" visibility="hidden" stroke-width="9"/><path d="M 774.06 143.56 L 780.03 143.56 Q 786 143.56 786 149.54 L 786 214.22 Q 786 220.19 789.79 220.19 L 793.58 220.19" fill="none" stroke="#9ca3af" stroke-miterlimit="10" stroke-dasharray="4.479166666666666 2.6875" pointer-events="stroke"/><path d="M 796.94 220.19 L 792.46 222.43 L 793.58 220.19 L 792.46 217.95 Z" fill="#9ca3af" stroke="#9ca3af" stroke-miterlimit="10" pointer-events="all"/></g><g style="visibility: visible;" transform="translate(0.5,0.5)"><path d="M 774.06 143.56 L 780.03 143.56 Q 786 143.56 786 149.54 L 786 276.92 Q 786 282.9 791.97 282.9 L 797.94 282.9" fill="none" stroke="white" stroke-miterlimit="10" pointer-events="stroke" visibility="hidden" stroke-width="9"/><path d="M 774.06 143.56 L 780.03 143.56 Q 786 143.56 786 149.54 L 786 276.92 Q 786 282.9 791.97 282.9 L 797.94 282.9" fill="none" stroke="#9ca3af" stroke-miterlimit="10" stroke-dasharray="4.479166666666666 2.6875" pointer-events="stroke"/></g><g style="visibility: visible;" transform="translate(0.5,0.5)"><path d="M 642.67 186.15 L 618.78 186.15" fill="none" stroke="white" stroke-miterlimit="10" pointer-events="stroke" visibility="hidden" stroke-width="9"/><path d="M 642.67 186.15 L 618.78 186.15" fill="none" stroke="#9ca3af" stroke-miterlimit="10" stroke-dasharray="4.479166666666666 2.6875" pointer-events="stroke"/></g><g style="visibility: visible;" transform="translate(0.5,0.5)"><path d="M 642.67 206.03 L 636.69 206.03 Q 630.72 206.03 630.72 212.01 L 630.72 236.31 Q 630.72 242.28 626.93 242.28 L 623.14 242.28" fill="none" stroke="white" stroke-miterlimit="10" pointer-events="stroke" visibility="hidden" stroke-width="9"/><path d="M 642.67 206.03 L 636.69 206.03 Q 630.72 206.03 630.72 212.01 L 630.72 236.31 Q 630.72 242.28 626.93 242.28 L 623.14 242.28" fill="none" stroke="#9ca3af" stroke-miterlimit="10" stroke-dasharray="4.479166666666666 2.6875" pointer-events="stroke"/><path d="M 619.78 242.28 L 624.26 240.05 L 623.14 242.28 L 624.26 244.52 Z" fill="#9ca3af" stroke="#9ca3af" stroke-miterlimit="10" pointer-events="all"/></g><g style="visibility: visible;" transform="translate(0.5,0.5)"><path d="M 499.33 186.15 L 481.42 186.15 Q 475.44 186.15 475.44 180.17 L 475.44 44.01 Q 475.44 38.03 481.42 38.03 L 638.31 38.03" fill="none" stroke="white" stroke-miterlimit="10" pointer-events="stroke" visibility="hidden" stroke-width="9"/><path d="M 499.33 186.15 L 481.42 186.15 Q 475.44 186.15 475.44 180.17 L 475.44 44.01 Q 475.44 38.03 481.42 38.03 L 638.31 38.03" fill="none" stroke="#9ca3af" stroke-miterlimit="10" stroke-dasharray="4.479166666666666 2.6875" pointer-events="stroke"/><path d="M 641.67 38.03 L 637.19 40.27 L 638.31 38.03 L 637.19 35.8 Z" fill="#9ca3af" stroke="#9ca3af" stroke-miterlimit="10" pointer-events="all"/></g><g style="visibility: visible;" transform="translate(0.5,0.5)"><path d="M 499.33 242.28 L 469.47 242.28 Q 463.5 242.28 463.5 236.31 L 463.5 44.01 Q 463.5 38.03 469.47 38.03 L 638.31 38.03" fill="none" stroke="white" stroke-miterlimit="10" pointer-events="stroke" visibility="hidden" stroke-width="9"/><path d="M 499.33 242.28 L 469.47 242.28 Q 463.5 242.28 463.5 236.31 L 463.5 44.01 Q 463.5 38.03 469.47 38.03 L 638.31 38.03" fill="none" stroke="#9ca3af" stroke-miterlimit="10" stroke-dasharray="4.479166666666666 2.6875" pointer-events="stroke"/><path d="M 641.67 38.03 L 637.19 40.27 L 638.31 38.03 L 637.19 35.8 Z" fill="#9ca3af" stroke="#9ca3af" stroke-miterlimit="10" pointer-events="all"/></g></g><g/><g/></g></svg>