<?xml version="1.0" encoding="UTF-8"?>
<svg style="left: 0px; top: 0px; width: 100%; height: 100%; display: block; min-width: 891px; min-height: 256px;" xmlns="http://www.w3.org/2000/svg" xmlns:xhtml="http://www.w3.org/1999/xhtml" viewBox="-318.75 -30.5 569.25 369" width="800" height="519"><style>@import url('https://fonts.googleapis.com/css2?family=Montserrat:wght@400;600&amp;display=swap');
foreignObject div { font-family: 'Montserrat', 'Segoe UI', sans-serif; }
foreignObject b { font-weight: 600; }
.wv-scroll-text { overflow: hidden; }</style><g><g/><g><g transform="translate(0.5,0.5)" style="visibility: visible;"><rect x="724.62" y="24.38" width="165.18" height="34.54" rx="13.81" ry="13.81" fill="#dbeafe" stroke="#3b82f6" pointer-events="all"/></g><g style=""><g transform="scale(0.7508090614886731)"><foreignObject style="overflow: visible; text-align: left;" pointer-events="none" width="134%" height="134%"><div xmlns="http://www.w3.org/1999/xhtml" dir="" style="display: flex; align-items: unsafe center; justify-content: unsafe flex-start; width: 198px; height: 1px; padding-top: 55px; margin-left: 977px;"><div style="box-sizing: border-box; font-size: 0; text-align: left; max-height: 30px; overflow: hidden; "><div style="display: inline-block; font-size: 12px; font-family: Montserrat, sans-serif; color: #333; line-height: 1.2; pointer-events: all; background-color: none; border: 1px solid none; white-space: normal; word-wrap: normal; "><div style="line-height:26px"><b>User Input</b></div></div></div></div></foreignObject></g></g><g transform="translate(0.5,0.5)" style="visibility: visible;"><rect x="724.62" y="82.94" width="165.18" height="34.54" fill="#ede9fe" stroke="#7c3aed" pointer-events="all"/></g><g style=""><g transform="scale(0.7508090614886731)"><foreignObject style="overflow: visible; text-align: left;" pointer-events="none" width="134%" height="134%"><div xmlns="http://www.w3.org/1999/xhtml" dir="" style="display: flex; align-items: unsafe center; justify-content: unsafe flex-start; width: 198px; height: 1px; padding-top: 133px; margin-left: 977px;"><div style="box-sizing: border-box; font-size: 0; text-align: left; max-height: 30px; overflow: hidden; "><div style="display: inline-block; font-size: 12px; font-family: Montserrat, sans-serif; color: #333; line-height: 1.2; pointer-events: all; background-color: none; border: 1px solid none; white-space: normal; word-wrap: normal; "><div style="line-height:26px"><b><span style="opacity:0.4">▸</span> System Prompt</b></div></div></div></div></foreignObject></g></g><g transform="translate(0.5,0.5)" style="visibility: visible;"><rect x="724.62" y="141.5" width="165.18" height="34.54" rx="5.18" ry="5.18" fill="#dcfce7" stroke="#16a34a" pointer-events="all"/></g><g style=""><g transform="scale(0.7508090614886731)"><foreignObject style="overflow: visible; text-align: left;" pointer-events="none" width="134%" height="134%"><div xmlns="http://www.w3.org/1999/xhtml" dir="" style="display: flex; align-items: unsafe center; justify-content: unsafe flex-start; width: 198px; height: 1px; padding-top: 211px; margin-left: 977px;"><div style="box-sizing: border-box; font-size: 0; text-align: left; max-height: 30px; overflow: hidden; "><div style="display: inline-block; font-size: 12px; font-family: Montserrat, sans-serif; color: #333; line-height: 1.2; pointer-events: all; background-color: none; border: 1px solid none; white-space: normal; word-wrap: normal; "><div style="line-height:26px"><b><span style="opacity:0.4">▸</span> gpt-5.2</b></div></div></div></div></foreignObject></g></g><g transform="translate(0.5,0.5)" style="visibility: visible;"><rect x="724.62" y="200.06" width="165.18" height="55.56" rx="22.22" ry="22.22" fill="#dbeafe" stroke="#3b82f6" pointer-events="all"/></g><g style=""><g transform="scale(0.7508090614886731)"><foreignObject style="overflow: visible; text-align: left;" pointer-events="none" width="134%" height="134%"><div xmlns="http://www.w3.org/1999/xhtml" dir="" style="display: flex; align-items: unsafe center; justify-content: unsafe flex-start; width: 198px; height: 1px; padding-top: 303px; margin-left: 977px;"><div style="box-sizing: border-box; font-size: 0; text-align: left; max-height: 58px; overflow: hidden; "><div style="display: inline-block; font-size: 12px; font-family: Montserrat, sans-serif; color: #333; line-height: 1.2; pointer-events: all; background-color: none; border: 1px solid none; white-space: normal; word-wrap: normal; "><div style="line-height:26px"><b>Response</b></div><div style="margin-top:4px"><div style="line-height:22px;font-weight:normal;color:#6b7280">• text output</div></div></div></div></div></foreignObject></g></g><g transform="translate(0.5,0.5)" style="visibility: visible;"><rect x="544.43" y="200.06" width="150.16" height="55.56" rx="8.33" ry="8.33" fill="#fef9c3" stroke="#ca8a04" pointer-events="all"/></g><g style=""><g transform="scale(0.7508090614886731)"><foreignObject style="overflow: visible; text-align: left;" pointer-events="none" width="134%" height="134%"><div xmlns="http://www.w3.org/1999/xhtml" dir="" style="display: flex; align-items: unsafe center; justify-content: unsafe flex-start; width: 178px; height: 1px; padding-top: 303px; margin-left: 737px;"><div style="box-sizing: border-box; font-size: 0; text-align: left; max-height: 58px; overflow: hidden; "><div style="display: inline-block; font-size: 12px; font-family: Montserrat, sans-serif; color: #333; line-height: 1.2; pointer-events: all; background-color: none; border: 1px solid none; white-space: normal; word-wrap: normal; "><div style="line-height:26px"><b>Context</b></div><div style="border-top:1px solid rgba(128,128,128,0.3);margin-top:2px;padding-top:4px"><div style="line-height:22px;font-weight:normal;color:#6b7280">• Message History</div></div></div></div></div></foreignObject></g></g><g style="visibility: visible;" transform="translate(0.5,0.5)"><path d="M 807.21 58.91 L 807.21 63.42 Q 807.21 67.92 807.21 70.93 L 807.21 72.43 Q 807.21 73.93 807.21 75.69 L 807.21 77.46" fill="none" stroke="white" stroke-width="9.129999999999999" stroke-miterlimit="10" pointer-events="stroke" visibility="hidden"/><path d="M 807.21 58.91 L 807.21 63.42 Q 807.21 67.92 807.21 70.93 L 807.21 72.43 Q 807.21 73.93 807.21 75.69 L 807.21 77.46" fill="none" stroke="#9ca3af" stroke-width="1.13" stroke-miterlimit="10" pointer-events="stroke"/><path d="M 807.21 81.68 L 804.39 76.05 L 807.21 77.46 L 810.03 76.05 Z" fill="#9ca3af" stroke="#9ca3af" stroke-width="1.13" stroke-miterlimit="10" pointer-events="all"/></g><g style="visibility: visible;" transform="translate(0.5,0.5)"><path d="M 807.21 117.48 L 807.21 121.98 Q 807.21 126.49 807.21 129.49 L 807.21 130.99 Q 807.21 132.49 807.21 134.26 L 807.21 136.02" fill="none" stroke="white" stroke-width="9.129999999999999" stroke-miterlimit="10" pointer-events="stroke" visibility="hidden"/><path d="M 807.21 117.48 L 807.21 121.98 Q 807.21 126.49 807.21 129.49 L 807.21 130.99 Q 807.21 132.49 807.21 134.26 L 807.21 136.02" fill="none" stroke="#9ca3af" stroke-width="1.13" stroke-miterlimit="10" pointer-events="stroke"/><path d="M 807.21 140.24 L 804.39 134.61 L 807.21 136.02 L 810.03 134.61 Z" fill="#9ca3af" stroke="#9ca3af" stroke-width="1.13" stroke-miterlimit="10" pointer-events="all"/></g><g style="visibility: visible;" transform="translate(0.5,0.5)"><path d="M 807.21 176.04 L 807.21 180.54 Q 807.21 185.05 807.21 188.05 L 807.21 189.55 Q 807.21 191.06 807.21 192.82 L 807.21 194.58" fill="none" stroke="white" stroke-width="9.129999999999999" stroke-miterlimit="10" pointer-events="stroke" visibility="hidden"/><path d="M 807.21 176.04 L 807.21 180.54 Q 807.21 185.05 807.21 188.05 L 807.21 189.55 Q 807.21 191.06 807.21 192.82 L 807.21 194.58" fill="none" stroke="#9ca3af" stroke-width="1.13" stroke-miterlimit="10" pointer-events="stroke"/><path d="M 807.21 198.81 L 804.39 193.17 L 807.21 194.58 L 810.03 193.17 Z" fill="#9ca3af" stroke="#9ca3af" stroke-width="1.13" stroke-miterlimit="10" pointer-events="all"/></g><g style="visibility: visible;" transform="translate(0.5,0.5)"><path d="M 724.62 227.84 L 700.07 227.84" fill="none" stroke="white" stroke-width="9.129999999999999" stroke-miterlimit="10" pointer-events="stroke" visibility="hidden"/><path d="M 724.62 227.84 L 700.07 227.84" fill="none" stroke="#9ca3af" stroke-width="1.13" stroke-miterlimit="10" stroke-dasharray="5.631067961165048 3.378640776699029" pointer-events="stroke"/><path d="M 695.85 227.84 L 701.48 225.03 L 700.07 227.84 L 701.48 230.66 Z" fill="#9ca3af" stroke="#9ca3af" stroke-width="1.13" stroke-miterlimit="10" pointer-events="all"/></g><g style="visibility: visible;" transform="translate(0.5,0.5)"><path d="M 544.43 227.84 L 521.9 227.84 Q 514.39 227.84 514.39 220.34 L 514.39 49.15 Q 514.39 41.64 521.9 41.64 L 719.14 41.64" fill="none" stroke="white" stroke-width="9.129999999999999" stroke-miterlimit="10" pointer-events="stroke" visibility="hidden"/><path d="M 544.43 227.84 L 521.9 227.84 Q 514.39 227.84 514.39 220.34 L 514.39 49.15 Q 514.39 41.64 521.9 41.64 L 719.14 41.64" fill="none" stroke="#9ca3af" stroke-width="1.13" stroke-miterlimit="10" stroke-dasharray="5.631067961165048 3.378640776699029" pointer-events="stroke"/><path d="M 723.36 41.64 L 717.73 44.46 L 719.14 41.64 L 717.73 38.83 Z" fill="#9ca3af" stroke="#9ca3af" stroke-width="1.13" stroke-miterlimit="10" pointer-events="all"/></g></g><g/><g/></g></svg>