<?xml version="1.0" encoding="utf-8"?>
<svg width="256px" height="256px" fill="currentColor" class="bi bi-chat-left-text-fill" viewBox="0 0 16 16" xmlns="http://www.w3.org/2000/svg">
  <rect x="2.076" y="2.356" width="12.334" height="7.797" style="stroke: rgb(0, 0, 0); stroke-width: 0px; fill: rgb(119, 119, 119);"/>
  <path d="M0 2a2 2 0 0 1 2-2h12a2 2 0 0 1 2 2v8a2 2 0 0 1-2 2H4.414a1 1 0 0 0-.707.293L.854 15.146A.5.5 0 0 1 0 14.793V2zm3.5 1a.5.5 0 0 0 0 1h9a.5.5 0 0 0 0-1h-9zm0 2.5a.5.5 0 0 0 0 1h9a.5.5 0 0 0 0-1h-9zm0 2.5a.5.5 0 0 0 0 1h5a.5.5 0 0 0 0-1h-5z" style="fill: rgb(255, 152, 7);"/>
</svg>