<svg width="5060" height="2813" xmlns="http://www.w3.org/2000/svg" xmlns:xlink="http://www.w3.org/1999/xlink" xml:space="preserve" overflow="hidden"><defs><clipPath id="clip0"><rect x="-330" y="-169" width="5060" height="2813"/></clipPath><clipPath id="clip1"><rect x="-330" y="-169" width="5060" height="2813"/></clipPath><clipPath id="clip2"><rect x="-330" y="-167" width="5060" height="2809"/></clipPath><clipPath id="clip3"><rect x="-330" y="-167" width="5060" height="2809"/></clipPath><clipPath id="clip4"><rect x="-330" y="-167" width="5060" height="2809"/></clipPath></defs><g clip-path="url(#clip0)" transform="translate(330 169)"><g clip-path="url(#clip1)"><g clip-path="url(#clip2)"><g clip-path="url(#clip3)"><g clip-path="url(#clip4)"><path d="M0 0 4754.71 0 4754.71 2806.87 0 2806.87Z" fill="#FFFFFF" fill-rule="evenodd" fill-opacity="1" transform="matrix(1.06421 0 0 1 -330 -166)"/><path d="M96.9451 44.0659 4631.33 44.0659C4631.33 44.0659 4684.21 44.0659 4684.21 96.9451L4684.21 2683.48C4684.21 2683.48 4684.21 2736.36 4631.33 2736.36L96.9451 2736.36C96.9451 2736.36 44.0659 2736.36 44.0659 2683.48L44.0659 96.9451C44.0659 96.9451 44.0659 44.0659 96.9451 44.0659" fill="#F5F5F5" fill-rule="evenodd" fill-opacity="1" transform="matrix(1.06421 0 0 1 -315.931 -152.78)"/><path d="M96.9451 44.0616 1284.74 44.0616C1284.74 44.0616 1337.62 44.0616 1337.62 96.9407L1337.62 2476.5C1337.62 2476.5 1337.62 2529.38 1284.74 2529.38L96.9451 2529.38C96.9451 2529.38 44.0659 2529.38 44.0659 2476.5L44.0659 96.9407C44.0659 96.9407 44.0659 44.0616 96.9451 44.0616" fill="#FFF2E5" fill-rule="evenodd" fill-opacity="1" transform="matrix(1.06421 0 0 1 3137.9 -51.5582)"/><path d="M96.9451 44.0659 1275.89 44.0659C1275.89 44.0659 1328.76 44.0659 1328.76 96.9451L1328.76 2473.6C1328.76 2473.6 1328.76 2526.48 1275.89 2526.48L96.9451 2526.48C96.9451 2526.48 44.0659 2526.48 44.0659 2473.6L44.0659 96.9451C44.0659 96.9451 44.0659 44.0659 96.9451 44.0659" fill="#F4FFDC" fill-rule="evenodd" fill-opacity="1" transform="matrix(1.06421 0 0 1 -198.889 -50.1044)"/><path d="M96.9451 44.0659 1630.44 44.0659C1630.44 44.0659 1683.32 44.0659 1683.32 96.9451L1683.32 1419.28C1683.32 1419.28 1683.32 1472.15 1630.44 1472.15L96.9451 1472.15C96.9451 1472.15 44.0659 1472.15 44.0659 1419.28L44.0659 96.9451C44.0659 96.9451 44.0659 44.0659 96.9451 44.0659" fill="#EDF4FF" fill-rule="evenodd" fill-opacity="1" transform="matrix(1.06421 0 0 1 1280.84 -51.9111)"/><path d="M96.9451 44.0659 1642.51 44.0659C1642.51 44.0659 1695.39 44.0659 1695.39 96.9451L1695.39 956.275C1695.39 956.275 1695.39 1009.15 1642.51 1009.15L96.9451 1009.15C96.9451 1009.15 44.0659 1009.15 44.0659 956.275L44.0659 96.9451C44.0659 96.9451 44.0659 44.0659 96.9451 44.0659" fill="#FFECEB" fill-rule="evenodd" fill-opacity="1" transform="matrix(1.06421 0 0 1 1274.41 1468.66)"/><text fill="#000000" fill-opacity="1" font-family="Roboto,Roboto_MSFontService,sans-serif" font-style="normal" font-variant="normal" font-weight="400" font-stretch="normal" font-size="20" text-anchor="start" direction="ltr" writing-mode="lr-tb" unicode-bidi="normal" text-decoration="none" transform="matrix(4.68953 0 0 4.40659 3821.86 436)">...</text><text fill="#000000" fill-opacity="1" font-family="Roboto,Roboto_MSFontService,sans-serif" font-style="normal" font-variant="normal" font-weight="400" font-stretch="normal" font-size="20" text-anchor="start" direction="ltr" writing-mode="lr-tb" unicode-bidi="normal" text-decoration="none" transform="matrix(4.68953 0 0 4.40659 3802.82 819)">...</text><text fill="#000000" fill-opacity="1" font-family="Roboto,Roboto_MSFontService,sans-serif" font-style="normal" font-variant="normal" font-weight="400" font-stretch="normal" font-size="20" text-anchor="start" direction="ltr" writing-mode="lr-tb" unicode-bidi="normal" text-decoration="none" transform="matrix(4.68953 0 0 4.40659 3821.54 1190)">...</text><text fill="#000000" fill-opacity="1" font-family="Roboto,Roboto_MSFontService,sans-serif" font-style="normal" font-variant="normal" font-weight="400" font-stretch="normal" font-size="20" text-anchor="start" direction="ltr" writing-mode="lr-tb" unicode-bidi="normal" text-decoration="none" transform="matrix(4.68953 0 0 4.40659 3803.15 2314)">...</text><text fill="#000000" fill-opacity="1" font-family="Roboto,Roboto_MSFontService,sans-serif" font-style="normal" font-variant="normal" font-weight="400" font-stretch="normal" font-size="20" text-anchor="start" direction="ltr" writing-mode="lr-tb" unicode-bidi="normal" text-decoration="none" transform="matrix(4.68953 0 0 4.40659 3802.82 1573)">...</text><text fill="#000000" fill-opacity="1" font-family="Roboto,Roboto_MSFontService,sans-serif" font-style="normal" font-variant="normal" font-weight="400" font-stretch="normal" font-size="20" text-anchor="start" direction="ltr" writing-mode="lr-tb" unicode-bidi="normal" text-decoration="none" transform="matrix(4.68953 0 0 4.40659 3821.54 1942)">...</text><path d="M96.9451 44.0659 4631.33 44.0659C4631.33 44.0659 4684.21 44.0659 4684.21 96.9451L4684.21 2683.48C4684.21 2683.48 4684.21 2736.36 4631.33 2736.36L96.9451 2736.36C96.9451 2736.36 44.0659 2736.36 44.0659 2683.48L44.0659 96.9451C44.0659 96.9451 44.0659 44.0659 96.9451 44.0659" stroke="#969696" stroke-width="8.81319" stroke-linecap="round" stroke-linejoin="round" stroke-miterlimit="4" stroke-opacity="1" fill="none" fill-rule="evenodd" transform="matrix(1.06421 0 0 1 -315.931 -152.78)"/><path d="M96.9451 44.0616 1284.74 44.0616C1284.74 44.0616 1337.62 44.0616 1337.62 96.9407L1337.62 2476.5C1337.62 2476.5 1337.62 2529.38 1284.74 2529.38L96.9451 2529.38C96.9451 2529.38 44.0659 2529.38 44.0659 2476.5L44.0659 96.9407C44.0659 96.9407 44.0659 44.0616 96.9451 44.0616" stroke="#DE8431" stroke-width="8.81319" stroke-linecap="round" stroke-linejoin="round" stroke-miterlimit="4" stroke-opacity="1" fill="none" fill-rule="evenodd" transform="matrix(1.06421 0 0 1 3137.9 -51.5582)"/><path d="M96.9451 44.0659 1275.89 44.0659C1275.89 44.0659 1328.76 44.0659 1328.76 96.9451L1328.76 2473.6C1328.76 2473.6 1328.76 2526.48 1275.89 2526.48L96.9451 2526.48C96.9451 2526.48 44.0659 2526.48 44.0659 2473.6L44.0659 96.9451C44.0659 96.9451 44.0659 44.0659 96.9451 44.0659" stroke="#92BD39" stroke-width="8.81319" stroke-linecap="round" stroke-linejoin="round" stroke-miterlimit="4" stroke-opacity="1" fill="none" fill-rule="evenodd" transform="matrix(1.06421 0 0 1 -198.889 -50.1044)"/><path d="M96.9451 44.0659 1630.44 44.0659C1630.44 44.0659 1683.32 44.0659 1683.32 96.9451L1683.32 1419.28C1683.32 1419.28 1683.32 1472.15 1630.44 1472.15L96.9451 1472.15C96.9451 1472.15 44.0659 1472.15 44.0659 1419.28L44.0659 96.9451C44.0659 96.9451 44.0659 44.0659 96.9451 44.0659" stroke="#4E88E7" stroke-width="8.81319" stroke-linecap="round" stroke-linejoin="round" stroke-miterlimit="4" stroke-opacity="1" fill="none" fill-rule="evenodd" transform="matrix(1.06421 0 0 1 1280.84 -51.9111)"/><path d="M96.9451 44.0659 1642.51 44.0659C1642.51 44.0659 1695.39 44.0659 1695.39 96.9451L1695.39 956.275C1695.39 956.275 1695.39 1009.15 1642.51 1009.15L96.9451 1009.15C96.9451 1009.15 44.0659 1009.15 44.0659 956.275L44.0659 96.9451C44.0659 96.9451 44.0659 44.0659 96.9451 44.0659" stroke="#E55753" stroke-width="8.81319" stroke-linecap="round" stroke-linejoin="round" stroke-miterlimit="4" stroke-opacity="1" fill="none" fill-rule="evenodd" transform="matrix(1.06421 0 0 1 1274.41 1468.66)"/><path d="M44.0659 44.0659 555.275 44.0659 555.275 282.022 44.0659 282.022Z" stroke="#000000" stroke-width="8.81319" stroke-linecap="round" stroke-linejoin="round" stroke-miterlimit="4" stroke-opacity="1" fill="none" fill-rule="evenodd" transform="matrix(1.06421 0 0 1 3530.64 2099.92)"/><path d="M44.046 44.0659 555.253 44.0659 555.253 282.022 44.046 282.022Z" stroke="#000000" stroke-width="8.81319" stroke-linecap="round" stroke-linejoin="round" stroke-miterlimit="4" stroke-opacity="1" fill="none" fill-rule="evenodd" transform="matrix(1.06421 0 0 1 3530.32 1728.58)"/><path d="M44.0659 44.0659 555.275 44.0659 555.275 282.022 44.0659 282.022Z" stroke="#000000" stroke-width="8.81319" stroke-linecap="round" stroke-linejoin="round" stroke-miterlimit="4" stroke-opacity="1" fill="none" fill-rule="evenodd" transform="matrix(1.06421 0 0 1 3530.32 1359.61)"/><path d="M44.0664 44.0659 555.275 44.0659 555.275 282.022 44.0664 282.022Z" stroke="#000000" stroke-width="8.81319" stroke-linecap="round" stroke-linejoin="round" stroke-miterlimit="4" stroke-opacity="1" fill="none" fill-rule="evenodd" transform="matrix(1.06421 0 0 1 3530.32 976.237)"/><path d="M44.0659 44.0659 555.275 44.0659 555.275 282.022 44.0659 282.022Z" stroke="#000000" stroke-width="8.81319" stroke-linecap="round" stroke-linejoin="round" stroke-miterlimit="4" stroke-opacity="1" fill="none" fill-rule="evenodd" transform="matrix(1.06421 0 0 1 3530.32 604.982)"/><path d="M44.046 44.0659 555.253 44.0659 555.253 282.022 44.046 282.022Z" stroke="#000000" stroke-width="8.81319" stroke-linecap="round" stroke-linejoin="round" stroke-miterlimit="4" stroke-opacity="1" fill="none" fill-rule="evenodd" transform="matrix(1.06421 0 0 1 3530.64 222.708)"/><path d="M142.392 150.258 55.865 150.258C55.865 150.258 47.9988 150.258 47.9988 142.392L47.9988 55.865C47.9988 55.865 47.9988 47.9988 55.865 47.9988L142.392 47.9988C142.392 47.9988 150.258 47.9988 150.258 55.865L150.258 142.392C150.258 142.392 150.258 150.258 142.392 150.258M47.9988 130.593 150.258 130.593M74.2718 130.593 115.254 92.2062C116.712 90.9917 118.83 90.9917 120.288 92.2062L150.258 113.681M67.6641 79.4632C67.6641 85.9797 72.9467 91.2623 79.4632 91.2623 85.9797 91.2623 91.2623 85.9797 91.2623 79.4632 91.2623 72.9467 85.9797 67.6641 79.4632 67.6641 72.9467 67.6641 67.6641 72.9467 67.6641 79.4632" stroke="#484848" stroke-width="8.81319" stroke-linecap="round" stroke-linejoin="round" stroke-miterlimit="4" stroke-opacity="1" fill="none" fill-rule="evenodd" transform="matrix(1.06421 0 0 1 2425.89 287.663)"/><path d="M79.476 79.476C79.476 96.4251 93.2158 110.165 110.165 110.165 127.114 110.165 140.854 96.4251 140.854 79.476 140.854 62.5269 127.114 48.7872 110.165 48.7872 93.2158 48.7872 79.476 62.5269 79.476 79.476M168.521 171.543C160.387 146.179 136.801 128.973 110.165 128.973 83.5287 128.973 59.9429 146.179 51.8088 171.543Z" stroke="#484848" stroke-width="8.81319" stroke-linecap="round" stroke-linejoin="round" stroke-miterlimit="4" stroke-opacity="1" fill="none" fill-rule="evenodd" transform="matrix(1.06421 0 0 1 3586.92 275.589)"/><path d="M44.0659 44.0659 369.273 44.0659 694.92 44.0659" stroke="#484848" stroke-width="8.81319" stroke-linecap="round" stroke-linejoin="round" stroke-miterlimit="4" stroke-opacity="1" fill="none" fill-rule="evenodd" transform="matrix(1.06421 0 0 1 701.358 345.522)"/><path d="M44.0659 44.5066 177.586 44.5066 311.105 44.0659" stroke="#484848" stroke-width="8.81319" stroke-linecap="round" stroke-linejoin="round" stroke-miterlimit="4" stroke-opacity="1" fill="none" fill-rule="evenodd" transform="matrix(1.06421 0 0 1 1861.41 345.037)"/><path d="M44.0659 44.0659 44.0659 232.668 44.0659 421.711" stroke="#484848" stroke-width="8.81319" stroke-linecap="round" stroke-linejoin="round" stroke-miterlimit="4" stroke-opacity="1" fill="none" fill-rule="evenodd" transform="matrix(1.06421 0 0 1 2145.48 345.037)"/><path d="M44.0659 44.0659 110.165 44.0659 175.823 44.0659 175.823 87.6912 175.823 131.316" stroke="#484848" stroke-width="8.81319" stroke-linecap="round" stroke-linejoin="round" stroke-miterlimit="4" stroke-opacity="1" fill="none" fill-rule="evenodd" transform="matrix(1.06421 0 0 1 4074.68 341.688)"/><path d="M46.4177 84.05 154.61 84.05 154.61 140.498C154.61 145.694 150.398 149.906 145.202 149.906L55.8258 149.906C50.63 149.906 46.4177 145.694 46.4177 140.498L46.4177 84.05ZM55.8258 51.1218 145.202 51.1218C150.398 51.1218 154.61 55.334 154.61 60.5299L154.61 74.642 46.4177 74.642 46.4177 60.5299C46.4177 55.334 50.63 51.1218 55.8258 51.1218ZM88.3588 100.043C87.407 99.6273 86.3097 99.7194 85.4408 100.289 84.5718 100.858 84.0487 101.827 84.05 102.866L84.05 131.09C84.0487 132.129 84.5718 133.098 85.4408 133.667 86.3097 134.236 87.407 134.328 88.3588 133.912L119.528 120.27C120.836 119.698 121.681 118.406 121.681 116.978 121.681 115.55 120.836 114.257 119.528 113.685ZM65.2339 74.642 88.7541 51.1218M88.7541 74.642 112.274 51.1218M112.274 74.642 135.794 51.1218M135.794 74.642 153.777 56.6587M46.4177 69.9379 65.2339 51.1218" stroke="#484848" stroke-width="8.81319" stroke-linecap="round" stroke-linejoin="round" stroke-miterlimit="4" stroke-opacity="1" fill="none" fill-rule="evenodd" transform="matrix(1.06421 0 0 1 2421.9 430.833)"/><path d="M73.1102 48.9066 150.562 48.9066C156.371 48.9066 160.244 52.7791 160.244 58.5883L160.244 165.084C160.244 170.893 156.371 174.766 150.562 174.766L73.1102 174.766C67.3015 174.766 63.4289 170.893 63.4289 165.084L63.4289 58.5883C63.4289 52.7791 67.3015 48.9066 73.1102 48.9066ZM88.6007 73.1102C88.6007 74.1797 89.4675 75.0465 90.537 75.0465 91.6065 75.0465 92.4732 74.1797 92.4732 73.1102 92.4732 72.0412 91.6065 71.174 90.537 71.174 89.4675 71.174 88.6007 72.0412 88.6007 73.1102M88.6007 96.3458C88.6007 97.4152 89.4675 98.282 90.537 98.282 91.6065 98.282 92.4732 97.4152 92.4732 96.3458 92.4732 95.2767 91.6065 94.4095 90.537 94.4095 89.4675 94.4095 88.6007 95.2767 88.6007 96.3458M88.6007 121.518C88.6007 122.587 89.4675 123.454 90.537 123.454 91.6065 123.454 92.4732 122.587 92.4732 121.518 92.4732 120.449 91.6065 119.581 90.537 119.581 89.4675 119.581 88.6007 120.449 88.6007 121.518" stroke="#484848" stroke-width="8.81319" stroke-linecap="round" stroke-linejoin="round" stroke-miterlimit="4" stroke-opacity="1" fill="none" fill-rule="evenodd" transform="matrix(1.06421 0 0 1 4158.85 462.341)"/><path d="M45.3879 44.0659 45.3879 188.162 45.3879 332.698 44.5066 332.698 44.0659 332.698 44.0659 476.793 44.0659 621.33" stroke="#484848" stroke-width="8.81319" stroke-linecap="round" stroke-linejoin="round" stroke-miterlimit="4" stroke-opacity="1" fill="none" fill-rule="evenodd" transform="matrix(1.06421 0 0 1 483.53 549.327)"/><path d="M125.068 103.743C125.083 95.1128 130.683 87.4845 138.913 84.8851 135.771 79.0966 130.311 74.92 123.902 73.4011 117.493 71.8826 110.74 73.1653 105.334 76.9281 102.873 78.3497 99.8393 78.3497 97.3778 76.9281 91.5276 73.2178 84.3836 72.1474 77.7028 73.9805 71.0219 75.8132 65.4247 80.3798 62.2872 86.5561 57.8546 94.7193 56.3392 104.15 57.9908 113.291 59.3317 125.846 64.7544 137.614 73.4271 146.79 79.3315 152.391 88.4223 152.896 94.911 147.984L94.911 147.984C98.6226 145.238 103.692 145.238 107.403 147.984 113.629 153.013 122.576 152.811 128.569 147.506 135.12 140.893 139.789 132.653 142.096 123.635 132.204 122.268 124.893 113.727 125.068 103.743ZM109.154 59.9799 121.089 48.0442" stroke="#484848" stroke-width="8.81319" stroke-linecap="round" stroke-linejoin="round" stroke-miterlimit="4" stroke-opacity="1" fill="none" fill-rule="evenodd" transform="matrix(1.06421 0 0 1 1415.81 527.294)"/><path d="M50.4321 57.6109 131.701 48.265C132.66 48.1266 133.632 48.4139 134.361 49.052 135.09 49.6896 135.504 50.6146 135.494 51.5831L135.494 131.634C135.487 132.622 135.048 133.558 134.293 134.196 133.538 134.834 132.542 135.111 131.566 134.952L50.2964 122.491C48.6554 122.197 47.4586 120.772 47.452 119.104L47.452 60.7259C47.5709 59.1078 48.8206 57.8013 50.4321 57.6109ZM84.7005 53.4119 84.7005 127.774M135.494 89.8478 47.452 89.8478" stroke="#484848" stroke-width="8.81319" stroke-linecap="round" stroke-linejoin="round" stroke-miterlimit="4" stroke-opacity="1" fill="none" fill-rule="evenodd" transform="matrix(1.06421 0 0 1 1576.28 543.907)"/><path d="M133.982 144.686C123.341 144.686 114.714 136.059 114.714 125.418L114.714 70.7668C114.918 58.3891 105.761 47.8477 93.4766 46.3181 86.8606 45.6655 80.2767 47.8397 75.3505 52.3045 70.424 56.7688 67.6148 63.1077 67.6152 69.7564 67.6152 69.7564 56.9112 74.0378 56.9112 80.4604 64.1243 80.4957 71.3269 81.0192 78.4695 82.0274 86.9676 83.1744 93.3074 90.4295 93.3056 99.0043L93.3056 101.924C93.3056 101.924 88.6298 100.91 81.9247 107.615 78.618 110.828 76.0318 114.708 74.3375 118.996 74.3375 118.996 81.882 117.737 88.784 117.283 89.9606 117.217 91.112 117.639 91.9678 118.449 92.8236 119.259 93.3074 120.386 93.3056 121.565L93.3056 144.686ZM66.4633 91.7127C64.3786 99.2017 63.3258 106.94 63.3338 114.714 62.9429 125.084 65.1506 135.387 69.7564 144.686M93.3056 144.686 61.1926 144.686M84.4854 65.055C84.4854 65.6459 84.9644 66.1253 85.5558 66.1253 86.1467 66.1253 86.6261 65.6459 86.6261 65.055 86.6261 64.4636 86.1467 63.9846 85.5558 63.9846 84.9644 63.9846 84.4854 64.4636 84.4854 65.055Z" stroke="#484848" stroke-width="8.81319" stroke-linecap="round" stroke-linejoin="round" stroke-miterlimit="4" stroke-opacity="1" fill="none" fill-rule="evenodd" transform="matrix(1.06421 0 0 1 1728.32 539.897)"/><path d="M51.0376 46.3851 148.642 46.3851C148.642 46.3851 153.29 46.3851 153.29 51.0332L153.29 148.638C153.29 148.638 153.29 153.286 148.642 153.286L51.0376 153.286C51.0376 153.286 46.39 153.286 46.39 148.638L46.39 51.0332C46.39 51.0332 46.39 46.3851 51.0376 46.3851M83.5728 106.812C83.5728 111.946 79.4108 116.108 74.2771 116.108L64.9814 116.108 64.9814 97.5162 74.2771 97.5162C79.4108 97.5162 83.5728 101.678 83.5728 106.812ZM64.9814 134.694 64.9814 116.103M92.8685 97.5162C103.136 97.5162 111.46 105.84 111.46 116.108 111.46 126.375 103.136 134.699 92.8685 134.699ZM120.756 134.699 120.756 104.488C120.756 100.637 123.877 97.5162 127.727 97.5162L139.347 97.5162M120.756 116.103 132.375 116.103" stroke="#484848" stroke-width="8.81319" stroke-linecap="round" stroke-linejoin="round" stroke-miterlimit="4" stroke-opacity="1" fill="none" fill-rule="evenodd" transform="matrix(1.06421 0 0 1 2422.65 573.607)"/><path d="M55.1534 47.7617 210.378 47.7617C210.378 47.7617 217.769 47.7617 217.769 55.1534L217.769 210.378C217.769 210.378 217.769 217.769 210.378 217.769L55.1534 217.769C55.1534 217.769 47.7617 217.769 47.7617 210.378L47.7617 55.1534C47.7617 55.1534 47.7617 47.7617 55.1534 47.7617M158.636 177.116C158.636 187.321 166.91 195.595 177.116 195.595 187.321 195.595 195.595 187.321 195.595 177.116 195.595 166.915 188.203 162.332 177.116 158.636 166.028 154.941 158.636 150.358 158.636 140.157 158.636 129.951 166.91 121.678 177.116 121.678 187.321 121.678 195.595 129.951 195.595 140.157M92.1115 173.42C92.1115 185.667 102.04 195.595 114.286 195.595 126.534 195.595 136.462 185.667 136.462 173.42L136.462 121.678" stroke="#484848" stroke-width="8.81319" stroke-linecap="round" stroke-linejoin="round" stroke-miterlimit="4" stroke-opacity="1" fill="none" fill-rule="evenodd" transform="matrix(1.06421 0 0 1 390.302 299.825)"/><path d="M162.1 133.771C162.1 105.444 138.871 86.5583 110.165 86.5583 81.459 86.5583 58.23 105.444 58.23 133.771L58.23 171.543 162.1 171.543ZM110.165 86.5583 110.165 48.7872M58.23 143.214 162.1 143.214M91.2795 143.214 91.2795 171.543M129.05 143.214 129.05 171.543M86.5583 119.608C86.5583 122.215 88.6721 124.329 91.2795 124.329 93.8869 124.329 96.0007 122.215 96.0007 119.608 96.0007 117 93.8869 114.886 91.2795 114.886 88.6721 114.886 86.5583 117 86.5583 119.608M124.329 119.608C124.329 122.215 126.443 124.329 129.05 124.329 131.658 124.329 133.771 122.215 133.771 119.608 133.771 117 131.658 114.886 129.05 114.886 126.443 114.886 124.329 117 124.329 119.608" stroke="#484848" stroke-width="8.81319" stroke-linecap="round" stroke-linejoin="round" stroke-miterlimit="4" stroke-opacity="1" fill="none" fill-rule="evenodd" transform="matrix(1.06421 0 0 1 3877.39 657.861)"/><path d="M176.264 44.0659 176.264 93.8604 176.264 143.655 110.165 143.655 44.0659 143.655" stroke="#484848" stroke-width="8.81319" stroke-linecap="round" stroke-linejoin="round" stroke-miterlimit="4" stroke-opacity="1" fill="none" fill-rule="evenodd" transform="matrix(1.06421 0 0 1 4074.35 624.503)"/><path d="M166.64 98.5433C166.64 91.0217 160.542 84.9239 153.021 84.9239L107.623 84.9239 94.5483 57.6854 62.2251 57.6854C54.7034 57.6854 48.6056 63.7828 48.6056 71.3044L48.6056 143.941C48.6056 151.463 54.7034 157.56 62.2251 157.56L153.021 157.56C160.542 157.56 166.64 151.463 166.64 143.941Z" stroke="#484848" stroke-width="8.81319" stroke-linecap="round" stroke-linejoin="round" stroke-miterlimit="4" stroke-opacity="1" fill="none" fill-rule="evenodd" transform="matrix(1.06421 0 0 1 795.43 767.982)"/><path d="M171.543 100.722C171.543 92.8994 165.201 86.5583 157.378 86.5583L110.165 86.5583 96.5674 58.23 62.9513 58.23C55.1287 58.23 48.7872 64.5716 48.7872 72.3942L48.7872 147.936C48.7872 155.758 55.1287 162.1 62.9513 162.1L157.378 162.1C165.201 162.1 171.543 155.758 171.543 147.936Z" stroke="#484848" stroke-width="8.81319" stroke-linecap="round" stroke-linejoin="round" stroke-miterlimit="4" stroke-opacity="1" fill="none" fill-rule="evenodd" transform="matrix(1.06421 0 0 1 1435.64 765.426)"/><path d="M175.382 44.0659 109.724 44.0659 44.0659 44.0659" stroke="#484848" stroke-width="8.81319" stroke-linecap="round" stroke-linejoin="round" stroke-miterlimit="4" stroke-opacity="1" fill="none" fill-rule="evenodd" transform="matrix(1.06421 0 0 1 3390.38 723.96)"/><path d="M44.0659 44.0659 44.0659 90.7758 44.0659 137.926" stroke="#484848" stroke-width="8.81319" stroke-linecap="round" stroke-linejoin="round" stroke-miterlimit="4" stroke-opacity="1" fill="none" fill-rule="evenodd" transform="matrix(1.06421 0 0 1 3390.38 723.96)"/><path d="M44.0659 44.0659 255.582 44.0659 466.658 44.0659" stroke="#484848" stroke-width="8.81319" stroke-linecap="round" stroke-linejoin="round" stroke-miterlimit="4" stroke-dasharray="22.033 30.8462" stroke-opacity="1" fill="none" fill-rule="evenodd" transform="matrix(1.06421 0 0 1 957.782 831.525)"/><path d="M136.944 138.802 173.063 138.802C173.063 138.802 183.383 138.802 183.383 149.121L183.383 173.063C183.383 173.063 183.383 183.383 173.063 183.383L136.944 183.383C136.944 183.383 126.624 183.383 126.624 173.063L126.624 149.121C126.624 149.121 126.624 138.802 136.944 138.802M175.23 139.008 175.23 130.03C173.277 120.41 164.819 113.498 155.004 113.498 145.188 113.498 136.73 120.41 134.777 130.03L134.777 139.008M100.825 121.464 59.5454 121.464C53.8459 121.464 49.2256 116.844 49.2256 111.144L49.2256 59.5454C49.2256 53.8459 53.8459 49.2256 59.5454 49.2256L152.424 49.2256C158.123 49.2256 162.743 53.8459 162.743 59.5454L162.743 80.185M80.185 85.3451C80.185 88.1949 82.4954 90.5048 85.3451 90.5048 88.1949 90.5048 90.5048 88.1949 90.5048 85.3451 90.5048 82.4954 88.1949 80.185 85.3451 80.185 82.4954 80.185 80.185 82.4954 80.185 85.3451M121.464 85.3451C121.464 88.1949 123.775 90.5048 126.624 90.5048 129.474 90.5048 131.784 88.1949 131.784 85.3451 131.784 82.4954 129.474 80.185 126.624 80.185 123.775 80.185 121.464 82.4954 121.464 85.3451" stroke="#484848" stroke-width="8.81319" stroke-linecap="round" stroke-linejoin="round" stroke-miterlimit="4" stroke-opacity="1" fill="none" fill-rule="evenodd" transform="matrix(1.06421 0 0 1 2076.22 810.77)"/><path d="M73.1102 48.9066 150.562 48.9066C156.371 48.9066 160.244 52.7791 160.244 58.5883L160.244 165.084C160.244 170.893 156.371 174.766 150.562 174.766L73.1102 174.766C67.3015 174.766 63.4289 170.893 63.4289 165.084L63.4289 58.5883C63.4289 52.7791 67.3015 48.9066 73.1102 48.9066ZM88.6007 73.1102C88.6007 74.1797 89.4675 75.0465 90.537 75.0465 91.6065 75.0465 92.4732 74.1797 92.4732 73.1102 92.4732 72.0412 91.6065 71.174 90.537 71.174 89.4675 71.174 88.6007 72.0412 88.6007 73.1102M88.6007 96.3458C88.6007 97.4152 89.4675 98.282 90.537 98.282 91.6065 98.282 92.4732 97.4152 92.4732 96.3458 92.4732 95.2767 91.6065 94.4095 90.537 94.4095 89.4675 94.4095 88.6007 95.2767 88.6007 96.3458M88.6007 121.518C88.6007 122.587 89.4675 123.454 90.537 123.454 91.6065 123.454 92.4732 122.587 92.4732 121.518 92.4732 120.449 91.6065 119.581 90.537 119.581 89.4675 119.581 88.6007 120.449 88.6007 121.518" stroke="#484848" stroke-width="8.81319" stroke-linecap="round" stroke-linejoin="round" stroke-miterlimit="4" stroke-opacity="1" fill="none" fill-rule="evenodd" transform="matrix(1.06421 0 0 1 3330.59 847.389)"/><path d="M188.82 76.4976C188.244 75.7163 187.456 75.1157 186.55 74.768L121.686 50.2281C120.445 49.6865 119.035 49.6865 117.794 50.2281L52.9307 75.2003C52.0736 75.4277 51.291 75.8745 50.6604 76.4976 49.9051 77.4111 49.4856 78.5559 49.4711 79.7408L49.4711 158.874C49.4997 161.083 50.8697 163.052 52.9307 163.847L117.794 188.82 119.74 188.82 121.686 188.82 186.55 163.847C188.611 163.052 189.981 161.083 190.009 158.874L190.009 80.1736C190.1 78.8406 189.675 77.5243 188.82 76.4976ZM119.74 189.576 119.74 103.524M119.74 103.524 119.74 189.576M50.6604 76.9303 119.74 103.524 188.82 76.9303" stroke="#484848" stroke-width="8.81319" stroke-linecap="round" stroke-linejoin="round" stroke-miterlimit="4" stroke-opacity="1" fill="none" fill-rule="evenodd" transform="matrix(1.06421 0 0 1 2072.56 2094.85)"/><path d="M44.0659 44.0659 110.165 44.0659 175.823 44.0659" stroke="#484848" stroke-width="8.81319" stroke-linecap="round" stroke-linejoin="round" stroke-miterlimit="4" stroke-opacity="1" fill="none" fill-rule="evenodd" transform="matrix(1.06421 0 0 1 4074.68 2218.9)"/><path d="M105.107 105.107C105.107 134.324 128.792 158.009 158.009 158.009 187.226 158.009 210.912 134.324 210.912 105.107 210.912 75.8899 187.226 52.2049 158.009 52.2049 128.792 52.2049 105.107 75.8899 105.107 105.107M258.605 263.814C244.584 220.091 203.926 190.432 158.009 190.432 112.093 190.432 71.4348 220.091 57.4135 263.814Z" stroke="#484848" stroke-width="8.81319" stroke-linecap="round" stroke-linejoin="round" stroke-miterlimit="4" stroke-opacity="1" fill="none" fill-rule="evenodd" transform="matrix(1.06421 0 0 1 1778.14 1008.49)"/><path d="M44.0659 44.0659 44.0659 257.786 44.0659 471.505 44.0659 685.225 44.0659 899.386" stroke="#484848" stroke-width="8.81319" stroke-linecap="round" stroke-linejoin="round" stroke-miterlimit="4" stroke-opacity="1" fill="none" fill-rule="evenodd" transform="matrix(1.06421 0 0 1 2153.1 981.684)"/><path d="M148.685 140.935C148.685 145.215 145.215 148.685 140.935 148.685L55.6901 148.685C51.4104 148.685 47.9407 145.215 47.9407 140.935L47.9407 71.1894 71.1894 47.9407 140.935 47.9407C145.215 47.9407 148.685 51.4104 148.685 55.6901ZM71.1894 109.937 125.436 109.937 125.436 148.685 71.1894 148.685ZM78.9388 47.9407 125.436 47.9407 125.436 78.9388 78.9388 78.9388Z" stroke="#484848" stroke-width="8.81319" stroke-linecap="round" stroke-linejoin="round" stroke-miterlimit="4" stroke-opacity="1" fill="none" fill-rule="evenodd" transform="matrix(1.06421 0 0 1 2429.36 1008.49)"/><path d="M44.0659 44.0657 44.0659 85.0468 44.0659 126.469 109.724 126.469 175.382 126.469" stroke="#484848" stroke-width="8.81319" stroke-linecap="round" stroke-linejoin="round" stroke-miterlimit="4" stroke-opacity="1" fill="none" fill-rule="evenodd" transform="matrix(1.06421 0 0 1 3390.38 1012.99)"/><path d="M117.198 94.1037C117.198 104.732 108.582 113.349 97.9528 113.349 87.3237 113.349 78.7075 104.732 78.7075 94.1037L78.7075 67.1604C78.7075 56.5313 87.3237 47.9151 97.9528 47.9151 108.582 47.9151 117.198 56.5313 117.198 67.1604ZM136.443 97.9528C136.464 107.146 132.82 115.97 126.319 122.471 119.819 128.972 110.995 132.615 101.802 132.594L94.1037 132.594C84.9098 132.615 76.0869 128.972 69.5858 122.471 63.0848 115.97 59.4419 107.146 59.4621 97.9528M97.9528 132.594 97.9528 147.991" stroke="#484848" stroke-width="8.81319" stroke-linecap="round" stroke-linejoin="round" stroke-miterlimit="4" stroke-opacity="1" fill="none" fill-rule="evenodd" transform="matrix(1.06421 0 0 1 2431.84 147.311)"/><path d="M79.476 79.476C79.476 96.4251 93.2158 110.165 110.165 110.165 127.114 110.165 140.854 96.4251 140.854 79.476 140.854 62.5269 127.114 48.7872 110.165 48.7872 93.2158 48.7872 79.476 62.5269 79.476 79.476M168.521 171.543C160.387 146.179 136.801 128.973 110.165 128.973 83.5287 128.973 59.9429 146.179 51.8088 171.543Z" stroke="#484848" stroke-width="8.81319" stroke-linecap="round" stroke-linejoin="round" stroke-miterlimit="4" stroke-opacity="1" fill="none" fill-rule="evenodd" transform="matrix(1.06421 0 0 1 3586.59 1029.12)"/><path d="M52.8496 162.648C51.6523 162.647 50.5062 163.135 49.6773 163.999 48.848 164.863 48.4077 166.028 48.458 167.224 50.3462 210.907 78.5339 241.703 123.077 241.703 169.157 241.703 219.7 204.345 219.7 158.256 225.511 160.726 232.079 160.715 237.882 158.228 243.686 155.741 248.223 150.992 250.443 145.08 248.223 139.18 243.693 134.44 237.9 131.953 232.106 129.467 225.55 129.449 219.744 131.905 224.135 109.945 197.784 101.161 197.784 101.161 197.784 101.161 184.608 123.121 197.784 140.688 197.784 140.688 202.176 162.648 184.608 162.648ZM101.117 193.392C101.117 195.818 103.083 197.784 105.509 197.784 107.935 197.784 109.901 195.818 109.901 193.392 109.901 190.966 107.935 189 105.509 189 103.083 189 101.117 190.966 101.117 193.392M65.9817 127.513 101.117 127.513 101.117 162.648 65.9817 162.648ZM101.117 127.513 136.253 127.513 136.253 162.648 101.117 162.648ZM136.253 127.513 171.388 127.513 171.388 162.648 136.253 162.648ZM101.117 92.3772 136.253 92.3772 136.253 127.513 101.117 127.513ZM101.117 57.2416 136.253 57.2416 136.253 92.3772 101.117 92.3772ZM136.253 92.3772 171.388 92.3772 171.388 127.513 136.253 127.513Z" stroke="#484848" stroke-width="8.81319" stroke-linecap="round" stroke-linejoin="round" stroke-miterlimit="4" stroke-opacity="1" fill="none" fill-rule="evenodd" transform="matrix(1.06421 0 0 1 371.356 1152.63)"/><path d="M181.227 74.7966C180.681 74.0559 179.934 73.487 179.076 73.1574L117.615 49.9047C116.439 49.3917 115.102 49.3917 113.927 49.9047L52.4658 73.5672C51.6536 73.7822 50.912 74.2061 50.3145 74.7966 49.5989 75.6621 49.2014 76.7466 49.1877 77.8698L49.1877 152.852C49.215 154.945 50.5128 156.811 52.4658 157.564L113.927 181.227 115.77 181.227 117.615 181.227 179.076 157.564C181.029 156.811 182.326 154.945 182.354 152.852L182.354 78.2792C182.44 77.0167 182.037 75.7692 181.227 74.7966ZM115.77 181.944 115.77 100.406M115.77 100.406 115.77 181.944M50.3145 75.2064 115.77 100.406 181.227 75.2064" stroke="#484848" stroke-width="8.81319" stroke-linecap="round" stroke-linejoin="round" stroke-miterlimit="4" stroke-opacity="1" fill="none" fill-rule="evenodd" transform="matrix(1.06421 0 0 1 786.759 1119.41)"/><path d="M44.0659 44.0659 110.165 44.0659 176.264 44.0659" stroke="#484848" stroke-width="8.81319" stroke-linecap="round" stroke-linejoin="round" stroke-miterlimit="4" stroke-opacity="1" fill="none" fill-rule="evenodd" transform="matrix(1.06421 0 0 1 4074.35 1095.22)"/><path d="M44.0659 44.0659 44.0659 87.6912 44.0659 131.316" stroke="#484848" stroke-width="8.81319" stroke-linecap="round" stroke-linejoin="round" stroke-miterlimit="4" stroke-opacity="1" fill="none" fill-rule="evenodd" transform="matrix(1.06421 0 0 1 4214.94 1095.22)"/><path d="M131.807 95.8112 131.807 145.307C131.807 147.791 129.793 149.806 127.308 149.806L50.8151 149.806C48.3302 149.806 46.3155 147.791 46.3155 145.307L46.3155 59.8147C46.3155 57.3293 48.3302 55.3146 50.8151 55.3146L109.31 55.3146M101.769 107.091 79.4998 116.631 89.0436 94.3575 137.09 46.3155 149.815 59.0404 101.769 107.091ZM141.558 67.3019 128.829 54.5726M101.769 107.091 89.0436 94.3575" stroke="#484848" stroke-width="8.81319" stroke-linecap="round" stroke-linejoin="round" stroke-miterlimit="4" stroke-opacity="1" fill="none" fill-rule="evenodd" transform="matrix(1.06421 0 0 1 2431.84 1151.4)"/><path d="M162.1 133.771C162.1 105.444 138.871 86.5583 110.165 86.5583 81.459 86.5583 58.23 105.444 58.23 133.771L58.23 171.543 162.1 171.543ZM110.165 86.5583 110.165 48.7872M58.23 143.214 162.1 143.214M91.2795 143.214 91.2795 171.543M129.05 143.214 129.05 171.543M86.5583 119.608C86.5583 122.215 88.6721 124.329 91.2795 124.329 93.8869 124.329 96.0007 122.215 96.0007 119.608 96.0007 117 93.8869 114.886 91.2795 114.886 88.6721 114.886 86.5583 117 86.5583 119.608M124.329 119.608C124.329 122.215 126.443 124.329 129.05 124.329 131.658 124.329 133.771 122.215 133.771 119.608 133.771 117 131.658 114.886 129.05 114.886 126.443 114.886 124.329 117 124.329 119.608" stroke="#484848" stroke-width="8.81319" stroke-linecap="round" stroke-linejoin="round" stroke-miterlimit="4" stroke-opacity="1" fill="none" fill-rule="evenodd" transform="matrix(1.06421 0 0 1 3877.72 2152.8)"/><path d="M73.1102 48.9066 150.562 48.9066C156.371 48.9066 160.244 52.7791 160.244 58.5883L160.244 165.084C160.244 170.893 156.371 174.766 150.562 174.766L73.1102 174.766C67.3015 174.766 63.4289 170.893 63.4289 165.084L63.4289 58.5883C63.4289 52.7791 67.3015 48.9066 73.1102 48.9066ZM88.6007 73.1102C88.6007 74.1797 89.4675 75.0465 90.537 75.0465 91.6065 75.0465 92.4732 74.1797 92.4732 73.1102 92.4732 72.0412 91.6065 71.174 90.537 71.174 89.4675 71.174 88.6007 72.0412 88.6007 73.1102M88.6007 96.3458C88.6007 97.4152 89.4675 98.282 90.537 98.282 91.6065 98.282 92.4732 97.4152 92.4732 96.3458 92.4732 95.2767 91.6065 94.4095 90.537 94.4095 89.4675 94.4095 88.6007 95.2767 88.6007 96.3458M88.6007 121.518C88.6007 122.587 89.4675 123.454 90.537 123.454 91.6065 123.454 92.4732 122.587 92.4732 121.518 92.4732 120.449 91.6065 119.581 90.537 119.581 89.4675 119.581 88.6007 120.449 88.6007 121.518" stroke="#484848" stroke-width="8.81319" stroke-linecap="round" stroke-linejoin="round" stroke-miterlimit="4" stroke-opacity="1" fill="none" fill-rule="evenodd" transform="matrix(1.06421 0 0 1 4158.85 1217.54)"/><path d="M44.0659 44.0659 44.0659 85.9286 44.0659 127.351" stroke="#484848" stroke-width="8.81319" stroke-linecap="round" stroke-linejoin="round" stroke-miterlimit="4" stroke-opacity="1" fill="none" fill-rule="evenodd" transform="matrix(1.06421 0 0 1 4214.94 2135.48)"/><path d="M1023.43 263.49C1019.54 258.202 1014.2 254.141 1008.07 251.788L569.222 85.7567C560.827 82.0931 551.287 82.0931 542.892 85.7567L104.042 254.713C98.2441 256.249 92.9487 259.275 88.6823 263.49 83.5732 269.671 80.7341 277.414 80.6367 285.433L80.6367 820.829C80.8306 835.772 90.0985 849.093 104.042 854.474L542.892 1023.43 556.055 1023.43 569.222 1023.43 1008.07 854.474C1022.01 849.093 1031.28 835.772 1031.48 820.829L1031.48 288.359C1032.09 279.343 1029.21 270.435 1023.43 263.49ZM556.055 1028.55 556.055 446.344M556.055 446.344 556.055 1028.55M88.6823 266.416 556.055 446.344 1023.43 266.416" stroke="#484848" stroke-width="8.81319" stroke-linecap="round" stroke-linejoin="round" stroke-miterlimit="4" stroke-opacity="1" fill="none" fill-rule="evenodd" transform="matrix(1.06421 0 0 1 -60.1726 1355.47)"/><path d="M114.85 270.574 64.4517 342.773C59.8244 351.785 60.3646 362.582 65.8676 371.087 71.0519 379.383 80.1515 384.414 89.9337 384.394L394.587 384.394C404.37 384.414 413.469 379.383 418.654 371.087 423.712 362.327 423.712 351.534 418.654 342.773L369.671 270.574M143.163 100.693C127.526 100.693 114.85 113.369 114.85 129.007L114.85 270.574 369.671 270.574 369.671 129.007C369.671 113.369 356.995 100.693 341.358 100.693Z" stroke="#484848" stroke-width="8.81319" stroke-linecap="round" stroke-linejoin="round" stroke-miterlimit="4" stroke-opacity="1" fill="none" fill-rule="evenodd" transform="matrix(1.06421 0 0 1 1415.81 147.311)"/><path d="M162.1 133.771C162.1 105.444 138.871 86.5583 110.165 86.5583 81.459 86.5583 58.23 105.444 58.23 133.771L58.23 171.543 162.1 171.543ZM110.165 86.5583 110.165 48.7872M58.23 143.214 162.1 143.214M91.2795 143.214 91.2795 171.543M129.05 143.214 129.05 171.543M86.5583 119.608C86.5583 122.215 88.6721 124.329 91.2795 124.329 93.8869 124.329 96.0007 122.215 96.0007 119.608 96.0007 117 93.8869 114.886 91.2795 114.886 88.6721 114.886 86.5583 117 86.5583 119.608M124.329 119.608C124.329 122.215 126.443 124.329 129.05 124.329 131.658 124.329 133.771 122.215 133.771 119.608 133.771 117 131.658 114.886 129.05 114.886 126.443 114.886 124.329 117 124.329 119.608" stroke="#484848" stroke-width="8.81319" stroke-linecap="round" stroke-linejoin="round" stroke-miterlimit="4" stroke-opacity="1" fill="none" fill-rule="evenodd" transform="matrix(1.06421 0 0 1 3877.39 1412.49)"/><path d="M44.0659 44.0659 44.0659 94.3011 44.0659 144.536" stroke="#484848" stroke-width="8.81319" stroke-linecap="round" stroke-linejoin="round" stroke-miterlimit="4" stroke-opacity="1" fill="none" fill-rule="evenodd" transform="matrix(1.06421 0 0 1 4214.94 1378.03)"/><path d="M195.174 213.163C177.29 213.163 162.794 198.666 162.794 180.783L162.794 88.9378C163.136 68.1369 147.748 50.4211 127.103 47.8508 115.984 46.754 104.92 50.4079 96.641 57.911 88.3623 65.4137 83.6407 76.0666 83.642 87.2395 83.642 87.2395 65.653 94.4351 65.653 105.229 77.775 105.288 89.8791 106.168 101.883 107.862 116.164 109.79 126.819 121.982 126.816 136.393L126.816 141.3C126.816 141.3 118.958 139.595 107.69 150.863 102.132 156.263 97.7863 162.783 94.9387 169.989 94.9387 169.989 107.617 167.874 119.217 167.111 121.194 167 123.129 167.709 124.567 169.07 126.005 170.432 126.819 172.326 126.816 174.306L126.816 213.163ZM81.7062 124.139C78.2025 136.724 76.4328 149.729 76.446 162.794 75.7894 180.22 79.4998 197.535 87.2395 213.163M126.816 213.163 72.8485 213.163M111.993 79.339C111.993 80.3322 112.798 81.1377 113.791 81.1377 114.785 81.1377 115.59 80.3322 115.59 79.339 115.59 78.3453 114.785 77.5397 113.791 77.5397 112.798 77.5397 111.993 78.3453 111.993 79.339Z" stroke="#484848" stroke-width="8.81319" stroke-linecap="round" stroke-linejoin="round" stroke-miterlimit="4" stroke-opacity="1" fill="none" fill-rule="evenodd" transform="matrix(1.06421 0 0 1 392.787 1481.94)"/><path d="M83.0189 57.0504 368.674 57.0504C368.674 57.0504 394.643 57.0504 394.643 83.0189L394.643 368.674C394.643 368.674 394.643 394.643 368.674 394.643L83.0189 394.643C83.0189 394.643 57.0504 394.643 57.0504 368.674L57.0504 83.0189C57.0504 83.0189 57.0504 57.0504 83.0189 57.0504M57.0504 134.956 394.643 134.956" stroke="#484848" stroke-width="8.81319" stroke-linecap="round" stroke-linejoin="round" stroke-miterlimit="4" stroke-opacity="1" fill="none" fill-rule="evenodd" transform="matrix(1.06421 0 0 1 291.259 163.924)"/><path d="M44.0659 44.0659 44.0659 90.7758 44.0659 137.926" stroke="#484848" stroke-width="8.81319" stroke-linecap="round" stroke-linejoin="round" stroke-miterlimit="4" stroke-opacity="1" fill="none" fill-rule="evenodd" transform="matrix(1.06421 0 0 1 3390.38 1476.25)"/><path d="M175.382 46.2692 109.724 45.3879 44.0659 44.0659" stroke="#484848" stroke-width="8.81319" stroke-linecap="round" stroke-linejoin="round" stroke-miterlimit="4" stroke-opacity="1" fill="none" fill-rule="evenodd" transform="matrix(1.06421 0 0 1 3390.38 1476.25)"/><path d="M44.0659 44.0659 110.165 44.0659 176.264 44.0659" stroke="#484848" stroke-width="8.81319" stroke-linecap="round" stroke-linejoin="round" stroke-miterlimit="4" stroke-opacity="1" fill="none" fill-rule="evenodd" transform="matrix(1.06421 0 0 1 4074.35 1478.59)"/><path d="M271.544 216.95C271.544 162.355 226.777 125.958 171.454 125.958 116.131 125.958 71.3635 162.355 71.3635 216.95L71.3635 289.743 271.544 289.743ZM171.454 125.958 171.454 53.1651M71.3635 235.148 271.544 235.148M135.057 235.148 135.057 289.743M207.851 235.148 207.851 289.743M125.958 189.652C125.958 194.678 130.032 198.751 135.057 198.751 140.083 198.751 144.156 194.678 144.156 189.652 144.156 184.627 140.083 180.553 135.057 180.553 130.032 180.553 125.958 184.627 125.958 189.652M198.751 189.652C198.751 194.678 202.825 198.751 207.851 198.751 212.876 198.751 216.95 194.678 216.95 189.652 216.95 184.627 212.876 180.553 207.851 180.553 202.825 180.553 198.751 184.627 198.751 189.652" stroke="#484848" stroke-width="8.81319" stroke-linecap="round" stroke-linejoin="round" stroke-miterlimit="4" stroke-opacity="1" fill="none" fill-rule="evenodd" transform="matrix(1.06421 0 0 1 1763.83 1638.5)"/><path d="M73.1102 48.9066 150.562 48.9066C156.371 48.9066 160.244 52.7791 160.244 58.5883L160.244 165.084C160.244 170.893 156.371 174.766 150.562 174.766L73.1102 174.766C67.3015 174.766 63.4289 170.893 63.4289 165.084L63.4289 58.5883C63.4289 52.7791 67.3015 48.9066 73.1102 48.9066ZM88.6007 73.1102C88.6007 74.1797 89.4675 75.0465 90.537 75.0465 91.6065 75.0465 92.4732 74.1797 92.4732 73.1102 92.4732 72.0412 91.6065 71.174 90.537 71.174 89.4675 71.174 88.6007 72.0412 88.6007 73.1102M88.6007 96.3458C88.6007 97.4152 89.4675 98.282 90.537 98.282 91.6065 98.282 92.4732 97.4152 92.4732 96.3458 92.4732 95.2767 91.6065 94.4095 90.537 94.4095 89.4675 94.4095 88.6007 95.2767 88.6007 96.3458M88.6007 121.518C88.6007 122.587 89.4675 123.454 90.537 123.454 91.6065 123.454 92.4732 122.587 92.4732 121.518 92.4732 120.449 91.6065 119.581 90.537 119.581 89.4675 119.581 88.6007 120.449 88.6007 121.518" stroke="#484848" stroke-width="8.81319" stroke-linecap="round" stroke-linejoin="round" stroke-miterlimit="4" stroke-opacity="1" fill="none" fill-rule="evenodd" transform="matrix(1.06421 0 0 1 3330.59 1601.97)"/><path d="M55.7566 47.994 219.429 47.994C219.429 47.994 227.223 47.994 227.223 55.7879L227.223 219.46C227.223 219.46 227.223 227.254 219.429 227.254L55.7566 227.254C55.7566 227.254 47.9627 227.254 47.9627 219.46L47.9627 55.7879C47.9627 55.7879 47.9627 47.994 55.7566 47.994M133.696 149.284C133.696 157.893 126.717 164.872 118.108 164.872L102.52 164.872 102.52 133.696 118.108 133.696C126.717 133.696 133.696 140.675 133.696 149.284ZM102.52 196.078 102.52 164.903M133.696 196.078 102.52 164.903M180.46 149.284C180.46 157.893 173.481 164.872 164.872 164.872L149.284 164.872 149.284 133.696 164.872 133.696C173.481 133.696 180.46 140.675 180.46 149.284ZM180.46 180.46C180.46 189.068 173.481 196.047 164.872 196.047L149.284 196.047 149.284 164.872 164.872 164.872C173.481 164.872 180.46 171.851 180.46 180.46Z" stroke="#484848" stroke-width="8.81319" stroke-linecap="round" stroke-linejoin="round" stroke-miterlimit="4" stroke-opacity="1" fill="none" fill-rule="evenodd" transform="matrix(1.06421 0 0 1 68.8363 1746.33)"/><path d="M49.7125 77.9443C49.7125 93.5366 82.576 106.176 123.116 106.176 163.656 106.176 196.519 93.5366 196.519 77.9443 196.519 62.3524 163.656 49.7125 123.116 49.7125 82.576 49.7125 49.7125 62.3524 49.7125 77.9443M49.7125 77.9443 49.7125 168.287C49.7125 183.871 82.5747 196.519 123.116 196.519 163.657 196.519 196.519 183.871 196.519 168.287L196.519 77.9443M196.519 123.116C196.519 138.7 163.657 151.348 123.116 151.348 82.5747 151.348 49.7125 138.7 49.7125 123.116" stroke="#484848" stroke-width="8.81319" stroke-linecap="round" stroke-linejoin="round" stroke-miterlimit="4" stroke-opacity="1" fill="none" fill-rule="evenodd" transform="matrix(1.06421 0 0 1 769.966 1720.16)"/><path d="M70.5954 125.777 94.3963 70.2164C94.8554 69.1148 95.9315 68.3974 97.1248 68.3974 98.3186 68.3974 99.3947 69.1148 99.8539 70.2164L123.654 125.777M79.6157 104.705 114.634 104.705M55.4358 47.856 138.814 47.856C138.814 47.856 146.394 47.856 146.394 55.4358L146.394 138.814C146.394 138.814 146.394 146.394 138.814 146.394L55.4358 146.394C55.4358 146.394 47.856 146.394 47.856 138.814L47.856 55.4358C47.856 55.4358 47.856 47.856 55.4358 47.856" stroke="#484848" stroke-width="8.81319" stroke-linecap="round" stroke-linejoin="round" stroke-miterlimit="4" stroke-opacity="1" fill="none" fill-rule="evenodd" transform="matrix(1.06421 0 0 1 2432.73 0.967999)"/><path d="M44.0659 44.0659 44.0659 85.0472 44.0659 126.469 109.724 126.469 175.382 126.469" stroke="#484848" stroke-width="8.81319" stroke-linecap="round" stroke-linejoin="round" stroke-miterlimit="4" stroke-opacity="1" fill="none" fill-rule="evenodd" transform="matrix(1.06421 0 0 1 3390.38 1765.33)"/><path d="M79.476 79.476C79.476 96.4251 93.2158 110.165 110.165 110.165 127.114 110.165 140.854 96.4251 140.854 79.476 140.854 62.5269 127.114 48.7872 110.165 48.7872 93.2158 48.7872 79.476 62.5269 79.476 79.476M168.521 171.543C160.387 146.179 136.801 128.973 110.165 128.973 83.5287 128.973 59.9429 146.179 51.8088 171.543Z" stroke="#484848" stroke-width="8.81319" stroke-linecap="round" stroke-linejoin="round" stroke-miterlimit="4" stroke-opacity="1" fill="none" fill-rule="evenodd" transform="matrix(1.06421 0 0 1 3586.59 1781.45)"/><path d="M180.041 197.038 66.7286 197.038C60.4704 197.038 55.397 191.964 55.397 185.707L55.397 61.0626C55.397 54.8048 60.4704 49.7315 66.7286 49.7315L180.041 49.7315C186.299 49.7315 191.372 54.8048 191.372 61.0626L191.372 185.707C191.372 191.964 186.299 197.038 180.041 197.038ZM89.3908 49.7315 89.3908 197.038M129.05 89.3908 151.713 89.3908" stroke="#484848" stroke-width="8.81319" stroke-linecap="round" stroke-linejoin="round" stroke-miterlimit="4" stroke-opacity="1" fill="none" fill-rule="evenodd" transform="matrix(1.06421 0 0 1 549.277 1867.47)"/><path d="M216.304 146.676C216.313 136.729 212.27 127.207 205.108 120.305 197.944 113.403 188.279 109.717 178.338 110.096 168.359 88.9043 145.276 77.1824 122.278 81.6264 99.2797 86.0705 82.2257 105.548 80.8588 128.932 72.7551 127.234 64.3178 129.28 57.8907 134.499 51.4637 139.719 47.7313 147.558 47.7305 155.838 47.7305 183.762 77.048 183.323 77.048 183.323L183.323 183.323C183.323 183.323 216.304 179.028 216.304 146.676Z" stroke="#484848" stroke-width="8.81319" stroke-linecap="round" stroke-linejoin="round" stroke-miterlimit="4" stroke-opacity="1" fill="none" fill-rule="evenodd" transform="matrix(1.06421 0 0 1 2059.5 1863.25)"/><path d="M44.0659 44.0659 110.165 44.0659 176.264 44.0659" stroke="#484848" stroke-width="8.81319" stroke-linecap="round" stroke-linejoin="round" stroke-miterlimit="4" stroke-opacity="1" fill="none" fill-rule="evenodd" transform="matrix(1.06421 0 0 1 4074.35 1847.51)"/><path d="M44.0659 44.0659 44.0659 90.3352 44.0659 136.604" stroke="#484848" stroke-width="8.81319" stroke-linecap="round" stroke-linejoin="round" stroke-miterlimit="4" stroke-opacity="1" fill="none" fill-rule="evenodd" transform="matrix(1.06421 0 0 1 4214.94 1847.51)"/><path d="M55.475 47.8997 215.206 47.8997C215.206 47.8997 222.812 47.8997 222.812 55.5059L222.812 215.236C222.812 215.236 222.812 222.842 215.206 222.842L55.475 222.842C55.475 222.842 47.8693 222.842 47.8693 215.236L47.8693 55.5059C47.8693 55.5059 47.8693 47.8997 55.475 47.8997M177.175 131.537 177.175 146.75C177.175 155.151 170.364 161.962 161.962 161.962 153.561 161.962 146.75 155.151 146.75 146.75L146.75 131.537M161.962 161.993 161.962 192.417M131.537 146.75C131.537 155.151 124.726 161.962 116.325 161.962L101.112 161.962 101.112 131.537 116.325 131.537C124.726 131.537 131.537 138.348 131.537 146.75ZM101.112 192.417 101.112 161.993" stroke="#484848" stroke-width="8.81319" stroke-linecap="round" stroke-linejoin="round" stroke-miterlimit="4" stroke-opacity="1" fill="none" fill-rule="evenodd" transform="matrix(1.06421 0 0 1 211.631 2010.73)"/><path d="M47.5538 127.775C47.5538 172.08 83.4701 207.996 127.775 207.996 172.08 207.996 207.996 172.08 207.996 127.775 207.996 83.4701 172.08 47.5538 127.775 47.5538 83.4701 47.5538 47.5538 83.4701 47.5538 127.775M95.5609 127.775C95.5596 145.568 109.983 159.992 127.775 159.992 145.568 159.992 159.991 145.568 159.989 127.775 159.991 109.983 145.568 95.5583 127.775 95.5583 109.983 95.5583 95.5596 109.983 95.5609 127.775M127.775 95.5609 201.251 95.5609M138.797 158.057 113.51 206.706M95.8751 123.283 63.7793 79.4051" stroke="#484848" stroke-width="8.81319" stroke-linecap="round" stroke-linejoin="round" stroke-miterlimit="4" stroke-opacity="1" fill="none" fill-rule="evenodd" transform="matrix(1.06421 0 0 1 760.071 1979.93)"/><path d="M73.1102 48.9066 150.562 48.9066C156.371 48.9066 160.244 52.7791 160.244 58.5883L160.244 165.084C160.244 170.893 156.371 174.766 150.562 174.766L73.1102 174.766C67.3015 174.766 63.4289 170.893 63.4289 165.084L63.4289 58.5883C63.4289 52.7791 67.3015 48.9066 73.1102 48.9066ZM88.6007 73.1102C88.6007 74.1797 89.4675 75.0465 90.537 75.0465 91.6065 75.0465 92.4732 74.1797 92.4732 73.1102 92.4732 72.0412 91.6065 71.174 90.537 71.174 89.4675 71.174 88.6007 72.0412 88.6007 73.1102M88.6007 96.3458C88.6007 97.4152 89.4675 98.282 90.537 98.282 91.6065 98.282 92.4732 97.4152 92.4732 96.3458 92.4732 95.2767 91.6065 94.4095 90.537 94.4095 89.4675 94.4095 88.6007 95.2767 88.6007 96.3458M88.6007 121.518C88.6007 122.587 89.4675 123.454 90.537 123.454 91.6065 123.454 92.4732 122.587 92.4732 121.518 92.4732 120.449 91.6065 119.581 90.537 119.581 89.4675 119.581 88.6007 120.449 88.6007 121.518" stroke="#484848" stroke-width="8.81319" stroke-linecap="round" stroke-linejoin="round" stroke-miterlimit="4" stroke-opacity="1" fill="none" fill-rule="evenodd" transform="matrix(1.06421 0 0 1 4158.85 1971.11)"/><path d="M97.4558 163.081 51.8753 163.081C49.0784 163.081 46.8108 160.814 46.8108 158.016L46.8108 51.6625C46.8108 48.8656 49.0784 46.598 51.8753 46.598L119.197 46.598C120.545 46.6077 121.834 47.1545 122.778 48.1174L141.552 66.8559C142.502 67.8056 143.035 69.0936 143.036 70.4368L143.036 87.1139M77.1978 79.5377 62.0043 94.7307 77.1978 109.924M92.3913 79.5377 107.584 94.7307 92.3913 109.924M102.52 132.714C102.52 149.497 116.125 163.101 132.907 163.101 149.689 163.101 163.294 149.497 163.294 132.714 163.294 115.932 149.689 102.328 132.907 102.328 116.125 102.328 102.52 115.932 102.52 132.714ZM132.907 117.521 132.907 147.908M148.1 132.714 117.713 132.714" stroke="#484848" stroke-width="8.81319" stroke-linecap="round" stroke-linejoin="round" stroke-miterlimit="4" stroke-opacity="1" fill="none" fill-rule="evenodd" transform="matrix(1.06421 0 0 1 808.941 959.536)"/><path d="M44.0659 44.0659 217.686 44.0659 391.306 44.0659" stroke="#484848" stroke-width="4.40659" stroke-linecap="round" stroke-linejoin="round" stroke-miterlimit="4" stroke-opacity="1" fill="none" fill-rule="evenodd" transform="matrix(1.06421 0 0 1 -126.014 926.707)"/><path d="M678.615 44.0659 361.341 44.0659 52.8791 44.0659" stroke="#484848" stroke-width="8.81319" stroke-linecap="round" stroke-linejoin="round" stroke-miterlimit="4" stroke-dasharray="22.033 30.8462" stroke-opacity="1" fill="none" fill-rule="evenodd" transform="matrix(1.06421 0 0 1 1055.75 1122.44)"/><path d="M79.3187 15.4231 50.6758 44.0659 79.3187 72.7088" stroke="#484848" stroke-width="8.81319" stroke-linecap="round" stroke-linejoin="round" stroke-miterlimit="4" stroke-opacity="1" fill="none" fill-rule="evenodd" transform="matrix(1.06421 0 0 1 1055.75 1122.44)"/><path d="M397.034 44.0659 224.736 44.0659 52.8791 44.0659" stroke="#484848" stroke-width="8.81319" stroke-linecap="round" stroke-linejoin="round" stroke-miterlimit="4" stroke-dasharray="22.033 30.8462" stroke-opacity="1" fill="none" fill-rule="evenodd" transform="matrix(1.06421 0 0 1 2889.4 1160.17)"/><path d="M370.594 72.7088 399.237 44.0659 370.594 15.4231" stroke="#484848" stroke-width="8.81319" stroke-linecap="round" stroke-linejoin="round" stroke-miterlimit="4" stroke-opacity="1" fill="none" fill-rule="evenodd" transform="matrix(1.06421 0 0 1 2889.4 1160.17)"/><path d="M79.3187 15.4231 50.6758 44.0659 79.3187 72.7088" stroke="#484848" stroke-width="8.81319" stroke-linecap="round" stroke-linejoin="round" stroke-miterlimit="4" stroke-opacity="1" fill="none" fill-rule="evenodd" transform="matrix(1.06421 0 0 1 2889.4 1160.17)"/><path d="M44.0659 44.0659 217.686 44.0659 391.306 44.0659" stroke="#484848" stroke-width="4.40659" stroke-linecap="round" stroke-linejoin="round" stroke-miterlimit="4" stroke-opacity="1" fill="none" fill-rule="evenodd" transform="matrix(1.06421 0 0 1 -121.324 1239.58)"/><path d="M44.0659 52.8791 44.0659 174.06 44.0659 295.242" stroke="#000000" stroke-width="8.81319" stroke-linecap="round" stroke-linejoin="round" stroke-miterlimit="4" stroke-dasharray="22.033 30.8462" stroke-opacity="1" fill="none" fill-rule="evenodd" transform="matrix(1.06421 0 0 1 1899.4 1292.45)"/><path d="M72.7088 79.3187 44.0659 50.6758 15.4231 79.3187" stroke="#000000" stroke-width="8.81319" stroke-linecap="round" stroke-linejoin="round" stroke-miterlimit="4" stroke-opacity="1" fill="none" fill-rule="evenodd" transform="matrix(1.06421 0 0 1 1899.4 1292.45)"/><path d="M15.4231 268.802 44.0659 297.445 72.7088 268.802" stroke="#000000" stroke-width="8.81319" stroke-linecap="round" stroke-linejoin="round" stroke-miterlimit="4" stroke-opacity="1" fill="none" fill-rule="evenodd" transform="matrix(1.06421 0 0 1 1899.4 1292.45)"/><path d="M678.615 44.0659 361.341 44.0659 52.8791 44.0659" stroke="#000000" stroke-width="8.81319" stroke-linecap="round" stroke-linejoin="round" stroke-miterlimit="4" stroke-dasharray="22.033 30.8462" stroke-opacity="1" fill="none" fill-rule="evenodd" transform="matrix(1.06421 0 0 1 1055.75 1799.21)"/><path d="M79.3187 15.4231 50.6758 44.0659 79.3187 72.7088" stroke="#000000" stroke-width="8.81319" stroke-linecap="round" stroke-linejoin="round" stroke-miterlimit="4" stroke-opacity="1" fill="none" fill-rule="evenodd" transform="matrix(1.06421 0 0 1 1055.75 1799.21)"/><path d="M44.0659 44.0659 486.047 44.0659 919.215 44.0659" stroke="#484848" stroke-width="8.81319" stroke-linecap="round" stroke-linejoin="round" stroke-miterlimit="4" stroke-opacity="1" fill="none" fill-rule="evenodd" transform="matrix(1.06421 0 0 1 1055.75 2063.64)"/><path d="M892.776 72.7088 921.419 44.0659 892.776 15.4231" stroke="#484848" stroke-width="8.81319" stroke-linecap="round" stroke-linejoin="round" stroke-miterlimit="4" stroke-opacity="1" fill="none" fill-rule="evenodd" transform="matrix(1.06421 0 0 1 1055.75 2063.64)"/></g></g></g><text fill="#000000" fill-opacity="1" font-family="Noto Sans JP,Noto Sans JP_MSFontService,sans-serif" font-style="normal" font-variant="normal" font-weight="400" font-stretch="normal" font-size="55" text-anchor="start" direction="ltr" writing-mode="lr-tb" unicode-bidi="normal" text-decoration="none" transform="matrix(1 0 0 1 -82.4892 1058)">Ruby Container</text><text fill="#000000" fill-opacity="1" font-family="Noto Sans JP,Noto Sans JP_MSFontService,sans-serif" font-style="normal" font-variant="normal" font-weight="400" font-stretch="normal" font-size="55" text-anchor="start" direction="ltr" writing-mode="lr-tb" unicode-bidi="normal" text-decoration="none" transform="matrix(1 0 0 1 -82.4892 1124)">Python Container</text><text fill="#000000" fill-opacity="1" font-family="Noto Sans JP,Noto Sans JP_MSFontService,sans-serif" font-style="normal" font-variant="normal" font-weight="400" font-stretch="normal" font-size="55" text-anchor="start" direction="ltr" writing-mode="lr-tb" unicode-bidi="normal" text-decoration="none" transform="matrix(1 0 0 1 -82.4892 1190)">Selenium Container</text><text fill="#000000" fill-opacity="1" font-family="Noto Sans JP,Noto Sans JP_MSFontService,sans-serif" font-style="normal" font-variant="normal" font-weight="400" font-stretch="normal" font-size="55" text-anchor="start" direction="ltr" writing-mode="lr-tb" unicode-bidi="normal" text-decoration="none" transform="matrix(1 0 0 1 -82.4892 1256)">PGVector Container</text><text fill="#000000" fill-opacity="1" font-family="Noto Sans JP,Noto Sans JP_MSFontService,sans-serif" font-style="normal" font-variant="normal" font-weight="400" font-stretch="normal" font-size="55" text-anchor="start" direction="ltr" writing-mode="lr-tb" unicode-bidi="normal" text-decoration="none" transform="matrix(1 0 0 1 781.412 353)">Electron</text><text fill="#000000" fill-opacity="1" font-family="Noto Sans JP,Noto Sans JP_MSFontService,sans-serif" font-style="normal" font-variant="normal" font-weight="400" font-stretch="normal" font-size="55" text-anchor="start" direction="ltr" writing-mode="lr-tb" unicode-bidi="normal" text-decoration="none" transform="matrix(1 0 0 1 1915.08 229)">macOS</text><text fill="#000000" fill-opacity="1" font-family="Noto Sans JP,Noto Sans JP_MSFontService,sans-serif" font-style="normal" font-variant="normal" font-weight="400" font-stretch="normal" font-size="55" text-anchor="start" direction="ltr" writing-mode="lr-tb" unicode-bidi="normal" text-decoration="none" transform="matrix(1 0 0 1 1915.08 295)">Windows</text><text fill="#000000" fill-opacity="1" font-family="Noto Sans JP,Noto Sans JP_MSFontService,sans-serif" font-style="normal" font-variant="normal" font-weight="400" font-stretch="normal" font-size="55" text-anchor="start" direction="ltr" writing-mode="lr-tb" unicode-bidi="normal" text-decoration="none" transform="matrix(1 0 0 1 1915.08 361)">Linux</text><text fill="#000000" fill-opacity="1" font-family="Noto Sans JP,Noto Sans JP_MSFontService,sans-serif" font-style="normal" font-variant="normal" font-weight="400" font-stretch="normal" font-size="55" text-anchor="start" direction="ltr" writing-mode="lr-tb" unicode-bidi="normal" text-decoration="none" transform="matrix(1 0 0 1 2648.93 219)">Text</text><text fill="#000000" fill-opacity="1" font-family="Noto Sans JP,Noto Sans JP_MSFontService,sans-serif" font-style="normal" font-variant="normal" font-weight="400" font-stretch="normal" font-size="55" text-anchor="start" direction="ltr" writing-mode="lr-tb" unicode-bidi="normal" text-decoration="none" transform="matrix(1 0 0 1 2648.93 299)">Sound/Voice</text><text fill="#000000" fill-opacity="1" font-family="Noto Sans JP,Noto Sans JP_MSFontService,sans-serif" font-style="normal" font-variant="normal" font-weight="400" font-stretch="normal" font-size="55" text-anchor="start" direction="ltr" writing-mode="lr-tb" unicode-bidi="normal" text-decoration="none" transform="matrix(1 0 0 1 2648.93 378)">Images</text><text fill="#000000" fill-opacity="1" font-family="Noto Sans JP,Noto Sans JP_MSFontService,sans-serif" font-style="normal" font-variant="normal" font-weight="400" font-stretch="normal" font-size="55" text-anchor="start" direction="ltr" writing-mode="lr-tb" unicode-bidi="normal" text-decoration="none" transform="matrix(1 0 0 1 2648.93 457)">Video</text><text fill="#000000" fill-opacity="1" font-family="Noto Sans JP,Noto Sans JP_MSFontService,sans-serif" font-style="normal" font-variant="normal" font-weight="400" font-stretch="normal" font-size="55" text-anchor="start" direction="ltr" writing-mode="lr-tb" unicode-bidi="normal" text-decoration="none" transform="matrix(1 0 0 1 2648.93 536)">PDF</text><text fill="#000000" fill-opacity="1" font-family="Noto Sans JP,Noto Sans JP_MSFontService,sans-serif" font-style="normal" font-variant="normal" font-weight="400" font-stretch="normal" font-size="55" text-anchor="start" direction="ltr" writing-mode="lr-tb" unicode-bidi="normal" text-decoration="none" transform="matrix(1 0 0 1 2648.93 615)">Documents</text><text fill="#000000" fill-opacity="1" font-family="Noto Sans JP,Noto Sans JP_MSFontService,sans-serif" font-style="normal" font-variant="normal" font-weight="400" font-stretch="normal" font-size="55" text-anchor="start" direction="ltr" writing-mode="lr-tb" unicode-bidi="normal" text-decoration="none" transform="matrix(1 0 0 1 2648.93 695)">Web</text><text fill="#000000" fill-opacity="1" font-family="Noto Sans JP,Noto Sans JP_MSFontService,sans-serif" font-style="normal" font-variant="normal" font-weight="400" font-stretch="normal" font-size="55" text-anchor="start" direction="ltr" writing-mode="lr-tb" unicode-bidi="normal" text-decoration="none" transform="matrix(1 0 0 1 1380.45 1023)">Shared Folder</text><text fill="#92BD39" fill-opacity="1" font-family="Noto Sans JP,Noto Sans JP_MSFontService,sans-serif" font-style="normal" font-variant="normal" font-weight="700" font-stretch="normal" font-size="73" text-anchor="start" direction="ltr" writing-mode="lr-tb" unicode-bidi="normal" text-decoration="none" transform="matrix(1 0 0 1 -75.0317 161)">System</text><text fill="#000000" fill-opacity="1" font-family="Noto Sans JP,Noto Sans JP_MSFontService,sans-serif" font-style="normal" font-variant="normal" font-weight="400" font-stretch="normal" font-size="55" text-anchor="start" direction="ltr" writing-mode="lr-tb" unicode-bidi="normal" text-decoration="none" transform="matrix(1 0 0 1 1380.45 1260)">App Authoring</text><text fill="#000000" fill-opacity="1" font-family="Noto Sans JP,Noto Sans JP_MSFontService,sans-serif" font-style="normal" font-variant="normal" font-weight="400" font-stretch="normal" font-size="55" text-anchor="start" direction="ltr" writing-mode="lr-tb" unicode-bidi="normal" text-decoration="none" transform="matrix(1 0 0 1 706.37 717)">Data Files</text><text fill="#000000" fill-opacity="1" font-family="Noto Sans JP,Noto Sans JP_MSFontService,sans-serif" font-style="normal" font-variant="normal" font-weight="400" font-stretch="normal" font-size="55" text-anchor="start" direction="ltr" writing-mode="lr-tb" unicode-bidi="normal" text-decoration="none" transform="matrix(1 0 0 1 706.37 783)">Log Management</text><text fill="#E55753" fill-opacity="1" font-family="Noto Sans JP,Noto Sans JP_MSFontService,sans-serif" font-style="normal" font-variant="normal" font-weight="700" font-stretch="normal" font-size="73" text-anchor="start" direction="ltr" writing-mode="lr-tb" unicode-bidi="normal" text-decoration="none" transform="matrix(1 0 0 1 1413.4 1665)">AI / LLM</text><text fill="#000000" fill-opacity="1" font-family="Noto Sans JP,Noto Sans JP_MSFontService,sans-serif" font-style="normal" font-variant="normal" font-weight="400" font-stretch="normal" font-size="55" text-anchor="start" direction="ltr" writing-mode="lr-tb" unicode-bidi="normal" text-decoration="none" transform="matrix(1 0 0 1 1463.21 1937)">Tool Use</text><text fill="#000000" fill-opacity="1" font-family="Noto Sans JP,Noto Sans JP_MSFontService,sans-serif" font-style="normal" font-variant="normal" font-weight="400" font-stretch="normal" font-size="55" text-anchor="start" direction="ltr" writing-mode="lr-tb" unicode-bidi="normal" text-decoration="none" transform="matrix(1 0 0 1 1485.01 2223)">API Call</text><text fill="#000000" fill-opacity="1" font-family="Noto Sans JP,Noto Sans JP_MSFontService,sans-serif" font-style="normal" font-variant="normal" font-weight="400" font-stretch="normal" font-size="55" text-anchor="start" direction="ltr" writing-mode="lr-tb" unicode-bidi="normal" text-decoration="none" transform="matrix(1 0 0 1 2365.38 913)">API Token</text><text fill="#000000" fill-opacity="1" font-family="Noto Sans JP,Noto Sans JP_MSFontService,sans-serif" font-style="normal" font-variant="normal" font-weight="400" font-stretch="normal" font-size="55" text-anchor="start" direction="ltr" writing-mode="lr-tb" unicode-bidi="normal" text-decoration="none" transform="matrix(1 0 0 1 2630.87 1101)">Import</text><text fill="#000000" fill-opacity="1" font-family="Noto Sans JP,Noto Sans JP_MSFontService,sans-serif" font-style="normal" font-variant="normal" font-weight="400" font-stretch="normal" font-size="55" text-anchor="start" direction="ltr" writing-mode="lr-tb" unicode-bidi="normal" text-decoration="none" transform="matrix(1 0 0 1 2630.87 1181)">Export</text><text fill="#000000" fill-opacity="1" font-family="Noto Sans JP,Noto Sans JP_MSFontService,sans-serif" font-style="normal" font-variant="normal" font-weight="700" font-stretch="normal" font-size="55" text-anchor="start" direction="ltr" writing-mode="lr-tb" unicode-bidi="normal" text-decoration="none" transform="matrix(1 0 0 1 2347.33 1642)">ASR/TTS API</text><text fill="#000000" fill-opacity="1" font-family="Noto Sans JP,Noto Sans JP_MSFontService,sans-serif" font-style="normal" font-variant="normal" font-weight="400" font-stretch="normal" font-size="55" text-anchor="start" direction="ltr" writing-mode="lr-tb" unicode-bidi="normal" text-decoration="none" transform="matrix(1 0 0 1 2347.33 1722)">OpenAI, ElevenLabs</text><text fill="#000000" fill-opacity="1" font-family="Noto Sans JP,Noto Sans JP_MSFontService,sans-serif" font-style="normal" font-variant="normal" font-weight="700" font-stretch="normal" font-size="55" text-anchor="start" direction="ltr" writing-mode="lr-tb" unicode-bidi="normal" text-decoration="none" transform="matrix(1 0 0 1 2347.33 1880)">Chat/Text</text><text fill="#000000" fill-opacity="1" font-family="Noto Sans JP,Noto Sans JP_MSFontService,sans-serif" font-style="normal" font-variant="normal" font-weight="700" font-stretch="normal" font-size="55" text-anchor="start" direction="ltr" writing-mode="lr-tb" unicode-bidi="normal" text-decoration="none" transform="matrix(1 0 0 1 2628.06 1880)">API</text><text fill="#000000" fill-opacity="1" font-family="Noto Sans JP,Noto Sans JP_MSFontService,sans-serif" font-style="normal" font-variant="normal" font-weight="400" font-stretch="normal" font-size="55" text-anchor="start" direction="ltr" writing-mode="lr-tb" unicode-bidi="normal" text-decoration="none" transform="matrix(1 0 0 1 2347.33 1959)">OpenAI, Anthropic</text><text fill="#000000" fill-opacity="1" font-family="Noto Sans JP,Noto Sans JP_MSFontService,sans-serif" font-style="normal" font-variant="normal" font-weight="400" font-stretch="normal" font-size="55" text-anchor="start" direction="ltr" writing-mode="lr-tb" unicode-bidi="normal" text-decoration="none" transform="matrix(1 0 0 1 2347.33 2038)">Gemini, Cohere</text><text fill="#000000" fill-opacity="1" font-family="Noto Sans JP,Noto Sans JP_MSFontService,sans-serif" font-style="normal" font-variant="normal" font-weight="400" font-stretch="normal" font-size="55" text-anchor="start" direction="ltr" writing-mode="lr-tb" unicode-bidi="normal" text-decoration="none" transform="matrix(1 0 0 1 2347.33 2118)">xAI, DeepSeek,</text><text fill="#000000" fill-opacity="1" font-family="Noto Sans JP,Noto Sans JP_MSFontService,sans-serif" font-style="normal" font-variant="normal" font-weight="400" font-stretch="normal" font-size="55" text-anchor="start" direction="ltr" writing-mode="lr-tb" unicode-bidi="normal" text-decoration="none" transform="matrix(1 0 0 1 2347.33 2197)">Mistral, Perplexity,</text><text fill="#000000" fill-opacity="1" font-family="Noto Sans JP,Noto Sans JP_MSFontService,sans-serif" font-style="normal" font-variant="normal" font-weight="700" font-stretch="normal" font-size="55" text-anchor="start" direction="ltr" writing-mode="lr-tb" unicode-bidi="normal" text-decoration="none" transform="matrix(1 0 0 1 2347.33 2355)">Open Source</text><text fill="#000000" fill-opacity="1" font-family="Noto Sans JP,Noto Sans JP_MSFontService,sans-serif" font-style="normal" font-variant="normal" font-weight="700" font-stretch="normal" font-size="55" text-anchor="start" direction="ltr" writing-mode="lr-tb" unicode-bidi="normal" text-decoration="none" transform="matrix(1 0 0 1 2707.12 2355)">Models</text><text fill="#000000" fill-opacity="1" font-family="Noto Sans JP,Noto Sans JP_MSFontService,sans-serif" font-style="normal" font-variant="normal" font-weight="400" font-stretch="normal" font-size="55" text-anchor="start" direction="ltr" writing-mode="lr-tb" unicode-bidi="normal" text-decoration="none" transform="matrix(1 0 0 1 2347.33 2434)">Ollama</text><text fill="#DE8431" fill-opacity="1" font-family="Noto Sans JP,Noto Sans JP_MSFontService,sans-serif" font-style="normal" font-variant="normal" font-weight="700" font-stretch="normal" font-size="73" text-anchor="start" direction="ltr" writing-mode="lr-tb" unicode-bidi="normal" text-decoration="none" transform="matrix(1 0 0 1 3264.67 161)">Interaction</text><text fill="#000000" fill-opacity="1" font-family="Noto Sans JP,Noto Sans JP_MSFontService,sans-serif" font-style="normal" font-variant="normal" font-weight="400" font-stretch="normal" font-size="55" text-anchor="start" direction="ltr" writing-mode="lr-tb" unicode-bidi="normal" text-decoration="none" transform="matrix(1 0 0 1 -75.0317 924)">Docker</text><text fill="#000000" fill-opacity="1" font-family="Noto Sans JP,Noto Sans JP_MSFontService,sans-serif" font-style="normal" font-variant="normal" font-weight="400" font-stretch="normal" font-size="55" text-anchor="start" direction="ltr" writing-mode="lr-tb" unicode-bidi="normal" text-decoration="none" transform="matrix(1 0 0 1 -82.4888 1378)">JupyterLab</text><text fill="#000000" fill-opacity="1" font-family="Noto Sans JP,Noto Sans JP_MSFontService,sans-serif" font-style="normal" font-variant="normal" font-weight="400" font-stretch="normal" font-size="55" text-anchor="start" direction="ltr" writing-mode="lr-tb" unicode-bidi="normal" text-decoration="none" transform="matrix(1 0 0 1 2616.71 1291)">Edit/Delete</text><text fill="#4E88E7" fill-opacity="1" font-family="Noto Sans JP,Noto Sans JP_MSFontService,sans-serif" font-style="normal" font-variant="normal" font-weight="700" font-stretch="normal" font-size="73" text-anchor="start" direction="ltr" writing-mode="lr-tb" unicode-bidi="normal" text-decoration="none" transform="matrix(1 0 0 1 1413.4 161)">User</text><text fill="#000000" fill-opacity="1" font-family="Noto Sans JP,Noto Sans JP_MSFontService,sans-serif" font-style="normal" font-variant="normal" font-weight="400" font-stretch="normal" font-size="55" text-anchor="start" direction="ltr" writing-mode="lr-tb" unicode-bidi="normal" text-decoration="none" transform="matrix(1 0 0 1 3271.75 600)">Context Management</text><text fill="#000000" fill-opacity="1" font-family="Noto Sans JP,Noto Sans JP_MSFontService,sans-serif" font-style="normal" font-variant="normal" font-weight="400" font-stretch="normal" font-size="55" text-anchor="start" direction="ltr" writing-mode="lr-tb" unicode-bidi="normal" text-decoration="none" transform="matrix(1 0 0 1 3942.43 971)">Metadata Handling</text><text fill="#000000" fill-opacity="1" font-family="Noto Sans JP,Noto Sans JP_MSFontService,sans-serif" font-style="normal" font-variant="normal" font-weight="400" font-stretch="normal" font-size="55" text-anchor="start" direction="ltr" writing-mode="lr-tb" unicode-bidi="normal" text-decoration="none" transform="matrix(1 0 0 1 3276.17 1354)">Capturing Reasoning</text><text fill="#000000" fill-opacity="1" font-family="Noto Sans JP,Noto Sans JP_MSFontService,sans-serif" font-style="normal" font-variant="normal" font-weight="400" font-stretch="normal" font-size="55" text-anchor="start" direction="ltr" writing-mode="lr-tb" unicode-bidi="normal" text-decoration="none" transform="matrix(1 0 0 1 3334.57 2106)">Specifying Response Format</text><text fill="#000000" fill-opacity="1" font-family="Noto Sans JP,Noto Sans JP_MSFontService,sans-serif" font-style="normal" font-variant="normal" font-weight="400" font-stretch="normal" font-size="55" text-anchor="start" direction="ltr" writing-mode="lr-tb" unicode-bidi="normal" text-decoration="none" transform="matrix(1 0 0 1 -82.4888 605)">DB management</text><text fill="#000000" fill-opacity="1" font-family="Noto Sans JP,Noto Sans JP_MSFontService,sans-serif" font-style="normal" font-variant="normal" font-weight="400" font-stretch="normal" font-size="55" text-anchor="start" direction="ltr" writing-mode="lr-tb" unicode-bidi="normal" text-decoration="none" transform="matrix(1 0 0 1 -82.4888 685)">Building Containers</text><text fill="#000000" fill-opacity="1" font-family="Noto Sans JP,Noto Sans JP_MSFontService,sans-serif" font-style="normal" font-variant="normal" font-weight="400" font-stretch="normal" font-size="55" text-anchor="start" direction="ltr" writing-mode="lr-tb" unicode-bidi="normal" text-decoration="none" transform="matrix(1 0 0 1 -82.4888 764)">Start/Stop Servers</text></g></g></svg>