<?xml version="1.0" encoding="utf-8"?>
<svg style="fill:none;stroke:none;fill-rule:evenodd;clip-rule:evenodd;stroke-linecap:round;stroke-linejoin:round;stroke-miterlimit:1.5;" version="1.1" xmlns="http://www.w3.org/2000/svg" width="1101" height="707">
  <style class="text-font-style fontImports" data-font-family="Roboto">@import url(https://fonts.googleapis.com/css2?family=Roboto:wght@400;700&amp;amp;display=block);</style>
  <g id="g-root-ro_dhbns1pklngq-fill" data-item-order="-643350" transform="matrix(0.701692, 0, 0, 1, 16.983084, 38)" style="mix-blend-mode: normal; isolation: isolate;">
    <g id="ro_dhbns1pklngq-fill-merged" stroke="none" fill="#f5f5f5" fill-opacity="1">
      <g>
        <path d="M22 10 H1051C1051 10 1063 10 1063 22 V608.97C1063 608.97 1063 620.97 1051 620.97 H22C22 620.97 10 620.97 10 608.97 V22C10 22 10 10 22 10"/>
      </g>
    </g>
  </g>
  <g id="g-root-ro_i09sv4msbo5k-fill" data-item-order="-164236" transform="matrix(1, 0, 0, 1, 38.958282, 61.300507)" style="mix-blend-mode: normal; isolation: isolate;">
    <g id="ro_i09sv4msbo5k-fill-merged" stroke="none" fill="#f4ffdc" fill-opacity="1">
      <g>
        <path d="M22 10 H289.54C289.54 10 301.54 10 301.54 22 V561.34C301.54 561.34 301.54 573.34 289.54 573.34 H22C22 573.34 10 573.34 10 561.34 V22C10 22 10 10 22 10"/>
      </g>
    </g>
  </g>
  <g id="g-root-ro_i09sv4msbo5k-stroke" data-item-order="-164236" transform="matrix(1, 0, 0, 1, 38.958282, 61.300507)" style="mix-blend-mode: normal; isolation: isolate;">
    <g id="ro_i09sv4msbo5k-stroke" fill="none" stroke-linecap="round" stroke-linejoin="round" stroke-miterlimit="4" stroke="#92bd39" stroke-width="2" stroke-opacity="1">
      <g>
        <path d="M 22.000008 10.000061L 289.540008 10.000061C 289.540008 10.000061 301.540008 10.000061 301.540008 22.000061L 301.540008 561.340061C 301.540008 561.340061 301.540008 573.340061 289.540008 573.340061L 22.000008 573.340061C 22.000008 573.340061 10.000008 573.340061 10.000008 561.340061L 10.000008 22.000061C 10.000008 22.000061 10.000008 10.000061 22.000008 10.000061"/>
      </g>
    </g>
  </g>
  <g id="g-root-ro_1qd76n4mirksj-fill" data-item-order="-120558" transform="matrix(1, 0, 0, 1, 354.498291, 60.890533)" style="mix-blend-mode: normal; isolation: isolate;">
    <g id="ro_1qd76n4mirksj-fill-merged" stroke="none" fill="#edf4ff" fill-opacity="1">
      <g>
        <path d="M22 10 H370C370 10 382 10 382 22 V322.08C382 322.08 382 334.08 370 334.08 H22C22 334.08 10 334.08 10 322.08 V22C10 22 10 10 22 10"/>
      </g>
    </g>
  </g>
  <g id="g-root-ro_1qd76n4mirksj-stroke" data-item-order="-120558" transform="matrix(1, 0, 0, 1, 354.498291, 60.890533)" style="mix-blend-mode: normal; isolation: isolate;">
    <g id="ro_1qd76n4mirksj-stroke" fill="none" stroke-linecap="round" stroke-linejoin="round" stroke-miterlimit="4" stroke="#4e88e7" stroke-width="2" stroke-opacity="1">
      <g>
        <path d="M 22 10.000015L 370 10.000015C 370 10.000015 382 10.000015 382 22.000015L 382 322.080015C 382 322.080015 382 334.080015 370 334.080015L 22 334.080015C 22 334.080015 10 334.080015 10 322.080015L 10 22.000015C 10 22.000015 10 10.000015 22 10.000015"/>
      </g>
    </g>
  </g>
  <g id="g-root-ro_1qbc40wq4b1n1-fill" data-item-order="-89939" transform="matrix(1, 0, 0, 1, 353.12616, 387.232269)" style="mix-blend-mode: normal; isolation: isolate;">
    <g id="ro_1qbc40wq4b1n1-fill-merged" stroke="none" fill="#ffeceb" fill-opacity="1">
      <g>
        <path d="M22 10 H372.74C372.74 10 384.74 10 384.74 22 V238C384.74 238 384.74 250 372.74 250 H22C22 250 10 250 10 238 V22C10 22 10 10 22 10"/>
      </g>
    </g>
  </g>
  <g id="g-root-ro_1qbc40wq4b1n1-stroke" data-item-order="-89939" transform="matrix(1, 0, 0, 1, 353.12616, 387.232269)" style="mix-blend-mode: normal; isolation: isolate;">
    <g id="ro_1qbc40wq4b1n1-stroke" fill="none" stroke-linecap="round" stroke-linejoin="round" stroke-miterlimit="4" stroke="#e55753" stroke-width="2" stroke-opacity="1">
      <g>
        <path d="M 22.000031 10L 372.740031 10C 372.740031 10 384.740031 10 384.740031 22L 384.740031 238C 384.740031 238 384.740031 250 372.740031 250L 22.000031 250C 22.000031 250 10.000031 250 10.000031 238L 10.000031 22C 10.000031 22 10.000031 10 22.000031 10"/>
      </g>
    </g>
  </g>
  <g id="g-root-id-3_1upaa5ogyvg94-fill" data-item-order="0" transform="matrix(1, 0, 0, 1, 143.478287, 109.870544)" style="mix-blend-mode: normal; isolation: isolate;"/>
  <g id="g-root-id-3_1upaa5ogyvg94-stroke" data-item-order="0" transform="matrix(1, 0, 0, 1, 143.478287, 109.870544)" style="mix-blend-mode: normal; isolation: isolate;">
    <g id="id-3_1upaa5ogyvg94-stroke" fill="none" stroke-linecap="round" stroke-linejoin="round" stroke-miterlimit="4" stroke="#484848" stroke-width="2" stroke-opacity="1">
      <g>
        <path d="M 18.83971 12.946569L 83.664246 12.946569C 83.664246 12.946569 89.557388 12.946569 89.557388 18.839708L 89.557388 83.66423C 89.557388 83.66423 89.557388 89.557365 83.664246 89.557365L 18.83971 89.557365C 18.83971 89.557365 12.946569 89.557365 12.946569 83.66423L 12.946569 18.839708C 12.946569 18.839708 12.946569 12.946569 18.83971 12.946569M 12.946569 30.625984L 89.557388 30.625984"/>
      </g>
    </g>
  </g>
  <g id="g-root-scri_metqssg53pjj-fill" data-item-order="0" transform="matrix(1, 0, 0, 1, 164.598297, 140.710541)" style="mix-blend-mode: normal; isolation: isolate;"/>
  <g id="g-root-scri_metqssg53pjj-stroke" data-item-order="0" transform="matrix(1, 0, 0, 1, 164.598297, 140.710541)" style="mix-blend-mode: normal; isolation: isolate;">
    <g id="scri_metqssg53pjj-stroke" fill="none" stroke-linecap="round" stroke-linejoin="round" stroke-miterlimit="4" stroke="#484848" stroke-width="2" stroke-opacity="1">
      <g>
        <path d="M 12.516113 10.838702L 47.741592 10.838702C 47.741592 10.838702 49.418999 10.838702 49.418999 12.516106L 49.418999 47.741585C 49.418999 47.741585 49.418999 49.418991 47.741592 49.418991L 12.516113 49.418991C 12.516113 49.418991 10.83871 49.418991 10.83871 47.741585L 10.83871 12.516106C 10.83871 12.516106 10.83871 10.838702 12.516113 10.838702M 35.999767 40.193268C 35.999767 42.509281 37.877262 44.38678 40.193275 44.38678C 42.509289 44.38678 44.386787 42.509281 44.386787 40.193268C 44.386787 37.878452 42.709381 36.838463 40.193275 35.99976C 37.67717 35.161057 35.999767 34.121067 35.999767 31.80625C 35.999767 29.490238 37.877262 27.61274 40.193275 27.61274C 42.509289 27.61274 44.386787 29.490238 44.386787 31.80625M 20.903131 39.354568C 20.903133 42.133781 23.15613 44.38678 25.935345 44.38678C 28.714558 44.38678 30.967556 42.133781 30.967556 39.354568L 30.967556 27.61274"/>
      </g>
    </g>
  </g>
  <g id="g-root-id-2_91ic4w1anwf7z-fill" data-item-order="0" transform="matrix(1, 0, 0, 1, 598.668274, 137.950562)" style="mix-blend-mode: normal; isolation: isolate;"/>
  <g id="g-root-id-2_91ic4w1anwf7z-stroke" data-item-order="0" transform="matrix(1, 0, 0, 1, 598.668274, 137.950562)" style="mix-blend-mode: normal; isolation: isolate;">
    <g id="id-2_91ic4w1anwf7z-stroke" fill="none" stroke-linecap="round" stroke-linejoin="round" stroke-miterlimit="4" stroke="#484848" stroke-width="2" stroke-opacity="1">
      <g>
        <path d="M 32.313362 34.098431L 12.677604 34.098431C 12.677604 34.098431 10.892534 34.098431 10.892534 32.313362L 10.892534 12.677604C 10.892534 12.677604 10.892534 10.892534 12.677604 10.892534L 32.313362 10.892534C 32.313362 10.892534 34.098434 10.892534 34.098434 12.677604L 34.098434 32.313362C 34.098434 32.313362 34.098434 34.098431 32.313362 34.098431M 10.892534 29.635759L 34.098434 29.635759M 16.854666 29.635759L 26.154877 20.924622C 26.485811 20.648977 26.966385 20.648977 27.297319 20.924622L 34.098434 25.797861M 15.355207 18.03281C 15.355207 19.51161 16.554012 20.710415 18.03281 20.710415C 19.511612 20.710415 20.710415 19.51161 20.710415 18.03281C 20.710415 16.55401 19.511612 15.355207 18.03281 15.355207C 16.554012 15.355207 15.355207 16.55401 15.355207 18.03281"/>
      </g>
    </g>
  </g>
  <g id="g-root-sing_i0a2g0pa9fd1-fill" data-item-order="0" transform="matrix(1.000002, 0, 0, 1, 846.248291, 135.210541)" style="mix-blend-mode: normal; isolation: isolate;"/>
  <g id="g-root-tx_1ulkb8gpua2gz-stroke" data-item-order="0" transform="matrix(0.999999, 0, 0, 1, 882.248291, 138.210541)" style="mix-blend-mode: normal; isolation: isolate;"/>
  <g id="g-root-cn_magi8gmseiof-fill" data-item-order="0" transform="matrix(1, 0, 0, 1, 230.928284, 151.080536)" style="mix-blend-mode: normal; isolation: isolate;"/>
  <g id="g-root-cn_magi8gmseiof-stroke" data-item-order="0" transform="matrix(1, 0, 0, 1, 230.928284, 151.080536)" style="mix-blend-mode: normal; isolation: isolate;">
    <g id="cn_magi8gmseiof-stroke" fill="none" stroke-linecap="round" stroke-linejoin="round" stroke-miterlimit="4" stroke="#484848" stroke-width="2" stroke-opacity="1">
      <g>
        <path d="M 10 10L 83.8 10L 157.7 10"/>
      </g>
    </g>
  </g>
  <g id="g-root-tx_1hd77ep1annzt7-fill" data-item-order="0" transform="matrix(1, 0, 0, 1, 241.378296, 156.970551)" style="mix-blend-mode: normal; isolation: isolate;">
    <g id="tx_1hd77ep1annzt7-fill-merged" stroke="none" fill="#484848" fill-opacity="1">
      <g>
        <text style="font: 15px Roboto, sans-serif; white-space: pre;" transform="translate(10, 10)" font-size="15px" font-family="Roboto, sans-serif"><tspan x="2" y="20.5" dominant-baseline="ideographic">Electron</tspan></text>
      </g>
    </g>
  </g>
  <g id="g-root-tx_1hd77ep1annzt7-stroke" data-item-order="0" transform="matrix(1, 0, 0, 1, 241.378296, 156.970551)" style="mix-blend-mode: normal; isolation: isolate;"/>
  <g id="g-root-cn_qvwdd4pkd91i-fill" data-item-order="0" transform="matrix(1, 0, 0, 1, 478.298248, 150.970551)" style="mix-blend-mode: normal; isolation: isolate;"/>
  <g id="g-root-cn_qvwdd4pkd91i-stroke" data-item-order="0" transform="matrix(1, 0, 0, 1, 478.298248, 150.970551)" style="mix-blend-mode: normal; isolation: isolate;">
    <g id="cn_qvwdd4pkd91i-stroke" fill="none" stroke-linecap="round" stroke-linejoin="round" stroke-miterlimit="4" stroke="#484848" stroke-width="2" stroke-opacity="1">
      <g>
        <path d="M 10.000031 10.1L 40.300031 10.1L 70.600031 10"/>
      </g>
    </g>
  </g>
  <g id="g-root-cn_hx4we9ogkiku-fill" data-item-order="0" transform="matrix(1.000002, 0, 0, 1, 950.258301, 576.210571)" style="mix-blend-mode: normal; isolation: isolate;"/>
  <g id="g-root-cn_18k1r00pufnk4-fill" data-item-order="0" transform="matrix(1.000002, 0, 0, 1, 950.258301, 150.210541)" style="mix-blend-mode: normal; isolation: isolate;"/>
  <g id="g-root-id-1_18jgf001brw8p5-fill" data-item-order="0" transform="matrix(1, 0, 0, 1, 597.818298, 170.440521)" style="mix-blend-mode: normal; isolation: isolate;"/>
  <g id="g-root-id-1_18jgf001brw8p5-stroke" data-item-order="0" transform="matrix(1, 0, 0, 1, 597.818298, 170.440521)" style="mix-blend-mode: normal; isolation: isolate;">
    <g id="id-1_18jgf001brw8p5-stroke" fill="none" stroke-linecap="round" stroke-linejoin="round" stroke-miterlimit="4" stroke="#484848" stroke-width="2" stroke-opacity="1">
      <g>
        <path d="M 10.533746 19.073689L 35.086037 19.073689L 35.086037 19.073689L 35.086037 31.883581C 35.086037 33.062698 34.130173 34.018562 32.951054 34.018562L 12.668727 34.018562C 11.48961 34.018562 10.533746 33.062698 10.533746 31.883581L 10.533746 19.073689L 10.533746 19.073689ZM 12.668727 11.601253L 32.951054 11.601253C 34.130173 11.601253 35.086037 12.557117 35.086037 13.736235L 35.086037 16.938707L 35.086037 16.938707L 10.533746 16.938707L 10.533746 16.938707L 10.533746 13.736235C 10.533746 12.557117 11.48961 11.601253 12.668727 11.601253ZM 20.051495 22.703157C 19.835512 22.608725 19.586462 22.629658 19.389275 22.75882C 19.192087 22.887981 19.073395 23.107929 19.073673 23.343653L 19.073673 29.748598C 19.073395 29.984322 19.192087 30.204269 19.389275 30.333431C 19.586462 30.462593 19.835512 30.483526 20.051495 30.389093L 27.124689 27.293369C 27.421618 27.163528 27.613495 26.870199 27.613495 26.546125C 27.613495 26.22205 27.421618 25.928722 27.124689 25.798882ZM 14.803709 16.938707L 20.141165 11.601253M 20.141165 16.938707L 25.478619 11.601253M 25.478619 16.938707L 30.816072 11.601253M 30.816072 16.938707L 34.897091 12.85769M 10.533746 15.871217L 14.803709 11.601253"/>
      </g>
    </g>
  </g>
  <g id="g-root-id-2_zmjua61brw8i0-fill" data-item-order="0" transform="matrix(1.000002, 0, 0, 1, 968.208374, 177.590546)" style="mix-blend-mode: normal; isolation: isolate;"/>
  <g id="g-root-cn_quo18wo6ups0-fill" data-item-order="0" transform="matrix(1, 0, 0, 1, 184.478287, 197.330536)" style="mix-blend-mode: normal; isolation: isolate;"/>
  <g id="g-root-cn_quo18wo6ups0-stroke" data-item-order="0" transform="matrix(1, 0, 0, 1, 184.478287, 197.330536)" style="mix-blend-mode: normal; isolation: isolate;">
    <g id="cn_quo18wo6ups0-stroke" fill="none" stroke-linecap="round" stroke-linejoin="round" stroke-miterlimit="4" stroke="#484848" stroke-width="2" stroke-opacity="1">
      <g>
        <path d="M 10.3 10L 10.3 42.7L 10.3 75.5L 10.1 75.5L 10 75.5L 10 108.2L 10 141"/>
      </g>
    </g>
  </g>
  <g id="g-root-appl_143n018f0r9je-fill" data-item-order="0" transform="matrix(1, 0, 0, 1, 383.27829, 192.330536)" style="mix-blend-mode: normal; isolation: isolate;"/>
  <g id="g-root-appl_143n018f0r9je-stroke" data-item-order="0" transform="matrix(1, 0, 0, 1, 383.27829, 192.330536)" style="mix-blend-mode: normal; isolation: isolate;">
    <g id="appl_143n018f0r9je-stroke" fill="none" stroke-linecap="round" stroke-linejoin="round" stroke-miterlimit="4" stroke="#484848" stroke-width="2" stroke-opacity="1">
      <g>
        <path d="M 28.381971 23.542709C 28.385405 21.584154 29.656275 19.853138 31.52388 19.263214C 30.810764 17.94956 29.571928 17.001785 28.117476 16.657127C 26.663023 16.312469 25.130621 16.603556 23.903849 17.45752C 23.345163 17.780075 22.656837 17.780075 22.098154 17.45752C 20.770575 16.615484 19.149372 16.372581 17.633307 16.788553C 16.117243 17.204525 14.847009 18.24077 14.13504 19.642408C 13.129146 21.494928 12.785185 23.63513 13.159966 25.709543C 13.464268 28.558607 14.694879 31.229158 16.663013 33.311516C 18.002926 34.582615 20.065922 34.697224 21.538387 33.582371L 21.538387 33.582371C 22.380671 32.95932 23.531048 32.95932 24.373329 33.582371C 25.786123 34.723705 27.81658 34.677902 29.176476 33.47403C 30.663052 31.973312 31.722664 30.103409 32.246159 28.056946C 30.001461 27.746624 28.342346 25.808409 28.381971 23.542709ZM 24.770582 13.611389L 27.479124 10.902847"/>
      </g>
    </g>
  </g>
  <g id="g-root-id-1_13zvmjwf0snpg-fill" data-item-order="0" transform="matrix(1, 0, 0, 1, 417.498291, 196.100555)" style="mix-blend-mode: normal; isolation: isolate;"/>
  <g id="g-root-id-1_13zvmjwf0snpg-stroke" data-item-order="0" transform="matrix(1, 0, 0, 1, 417.498291, 196.100555)" style="mix-blend-mode: normal; isolation: isolate;">
    <g id="id-1_13zvmjwf0snpg-stroke" fill="none" stroke-linecap="round" stroke-linejoin="round" stroke-miterlimit="4" stroke="#484848" stroke-width="2" stroke-opacity="1">
      <g>
        <path d="M 11.444675 13.073778L 29.887346 10.952871C 30.104946 10.921452 30.325413 10.986692 30.490871 11.13147C 30.656332 11.276247 30.750261 11.486101 30.748005 11.705947L 30.748005 29.871977C 30.746408 30.096308 30.646862 30.308739 30.475496 30.453516C 30.304129 30.598291 30.078054 30.660952 29.856609 30.625053L 11.413939 27.797176C 11.041499 27.730408 10.769926 27.407106 10.768445 27.028732L 10.768445 13.780747C 10.79536 13.41351 11.078997 13.11698 11.444675 13.073778ZM 19.221334 12.120907L 19.221334 28.995951M 30.748005 20.389372L 10.768445 20.389372"/>
      </g>
    </g>
  </g>
  <g id="g-root-peng_1cvi6v4nmhiio-fill" data-item-order="0" transform="matrix(1, 0, 0, 1, 449.918304, 195.190552)" style="mix-blend-mode: normal; isolation: isolate;"/>
  <g id="g-root-peng_1cvi6v4nmhiio-stroke" data-item-order="0" transform="matrix(1, 0, 0, 1, 449.918304, 195.190552)" style="mix-blend-mode: normal; isolation: isolate;">
    <g id="peng_1cvi6v4nmhiio-stroke" fill="none" stroke-linecap="round" stroke-linejoin="round" stroke-miterlimit="4" stroke="#484848" stroke-width="2" stroke-opacity="1">
      <g>
        <path d="M 30.404806 32.83392C 27.989965 32.83392 26.032351 30.876305 26.032351 28.461466L 26.032351 16.059237C 26.078686 13.250384 24.000647 10.858126 21.212931 10.511076C 19.711494 10.362947 18.217396 10.856367 17.099472 11.869533C 15.981547 12.882698 15.343967 14.321198 15.344124 15.829926C 15.344124 15.829926 12.914982 16.801582 12.914982 18.259068C 14.551902 18.267076 16.186403 18.385891 17.807274 18.614695C 19.73576 18.874968 21.174522 20.521345 21.174065 22.467314L 21.174065 23.129984C 21.174065 23.129984 20.113016 22.899702 18.591402 24.421316C 17.840986 25.150501 17.254097 26.030832 16.869625 27.003981C 16.869625 27.003981 18.581684 26.718311 20.147995 26.615318C 20.414986 26.600342 20.676348 26.696064 20.870514 26.879932C 21.06468 27.063801 21.174484 27.319563 21.174065 27.586975L 21.174065 32.83392ZM 15.082748 20.812582C 14.609646 22.512085 14.370681 24.2682 14.372467 26.032324C 14.2838 28.385561 14.784816 30.723637 15.829952 32.83392M 21.174065 32.83392L 13.886639 32.83392M 19.172451 14.763046C 19.172451 14.897204 19.281208 15.00596 19.415365 15.00596C 19.549524 15.00596 19.658279 14.897204 19.658279 14.763046C 19.658279 14.628889 19.549524 14.520132 19.415365 14.520132C 19.281208 14.520132 19.172451 14.628889 19.172451 14.763046Z"/>
      </g>
    </g>
  </g>
  <g id="g-root-id-1_v8loce1clcpah-fill" data-item-order="0" transform="matrix(1, 0, 0, 1, 597.978271, 202.840546)" style="mix-blend-mode: normal; isolation: isolate;"/>
  <g id="g-root-id-1_v8loce1clcpah-stroke" data-item-order="0" transform="matrix(1, 0, 0, 1, 597.978271, 202.840546)" style="mix-blend-mode: normal; isolation: isolate;">
    <g id="id-1_v8loce1clcpah-stroke" fill="none" stroke-linecap="round" stroke-linejoin="round" stroke-miterlimit="4" stroke="#484848" stroke-width="2" stroke-opacity="1">
      <g>
        <path d="M 11.582123 10.52632L 33.731842 10.52632C 33.731842 10.52632 34.786591 10.52632 34.786591 11.581068L 34.786591 33.730789C 34.786591 33.730789 34.786591 34.785538 33.731842 34.785538L 11.582123 34.785538C 11.582123 34.785538 10.527374 34.785538 10.527374 33.730789L 10.527374 11.581068C 10.527374 11.581068 10.527374 10.52632 11.582123 10.52632M 18.965363 24.239105C 18.965363 25.404148 18.020908 26.348602 16.855865 26.348602L 14.746368 26.348602L 14.746368 22.129608L 16.855865 22.129608C 18.020908 22.129608 18.965363 23.074062 18.965363 24.239105ZM 14.746368 30.566542L 14.746368 26.347548M 21.07486 22.129608C 23.404945 22.129608 25.293854 24.018517 25.293854 26.348602C 25.293854 28.678688 23.404945 30.567596 21.07486 30.567596ZM 27.403351 30.567596L 27.403351 23.711731C 27.403351 22.83795 28.111692 22.129608 28.985474 22.129608L 31.622345 22.129608M 27.403351 26.347548L 30.040222 26.347548"/>
      </g>
    </g>
  </g>
  <g id="g-root-tx_1cvipxs18zgmx5-fill" data-item-order="0" transform="matrix(1, 0, 0, 1, 639.958313, 96.440552)" style="mix-blend-mode: normal; isolation: isolate;">
    <g id="tx_1cvipxs18zgmx5-fill-merged" stroke="none" fill="#484848" fill-opacity="1">
      <g>
        <text style="font: 15px Roboto, sans-serif; white-space: pre;" transform="translate(10, 10)" font-size="15px" font-family="Roboto, sans-serif"><tspan x="2" y="17.5" dominant-baseline="ideographic">Text</tspan><tspan x="2" y="35.5" dominant-baseline="ideographic">Audio</tspan><tspan x="2" y="53.5" dominant-baseline="ideographic">Image</tspan><tspan x="2" y="71.5" dominant-baseline="ideographic">Video</tspan><tspan x="2" y="89.5" dominant-baseline="ideographic">PDF</tspan><tspan x="2" y="107.5" dominant-baseline="ideographic">etc.</tspan></text>
      </g>
    </g>
  </g>
  <g id="g-root-tx_1cvipxs18zgmx5-stroke" data-item-order="0" transform="matrix(0.999998, 0, 0, 1, 639.958313, 96.440552)" style="mix-blend-mode: normal; isolation: isolate;"/>
  <g id="g-root-tx_4kgn901j94f0o-fill" data-item-order="0" transform="matrix(1, 0, 0, 1, 374.126221, 560.80542)" style="mix-blend-mode: normal; isolation: isolate;">
    <g id="tx_4kgn901j94f0o-fill-merged" stroke="none" fill="#484848" fill-opacity="1">
      <g>
        <text style="font: 15px Roboto, sans-serif; white-space: pre;" transform="translate(10, 10)" font-size="15px" font-family="Roboto, sans-serif"><tspan x="2" y="20.5" dominant-baseline="ideographic">API Call</tspan></text>
      </g>
    </g>
  </g>
  <g id="g-root-tx_4kgn901j94f0o-stroke" data-item-order="0" transform="matrix(1, 0, 0, 1, 374.126221, 560.80542)" style="mix-blend-mode: normal; isolation: isolate;"/>
  <g id="g-root-tx_hx52wgm8nrwu-stroke" data-item-order="0" transform="matrix(1, 0, 0, 1, 878.188293, 224.960541)" style="mix-blend-mode: normal; isolation: isolate;"/>
  <g id="g-root-cybo_8vvsv4p0cpaa-fill" data-item-order="0" transform="matrix(0.999998, 0, 0, 1, 908.188293, 221.960541)" style="mix-blend-mode: normal; isolation: isolate;"/>
  <g id="g-root-cn_1hbceeopue80f-fill" data-item-order="0" transform="matrix(1, 0, 0, 1, 950.188293, 214.390533)" style="mix-blend-mode: normal; isolation: isolate;"/>
  <g id="g-root-fold_13zw8nj1anxvyb-fill" data-item-order="0" transform="matrix(1, 0, 0, 1, 250.988281, 246.950531)" style="mix-blend-mode: normal; isolation: isolate;"/>
  <g id="g-root-fold_13zw8nj1anxvyb-stroke" data-item-order="0" transform="matrix(1, 0, 0, 1, 250.988281, 246.950531)" style="mix-blend-mode: normal; isolation: isolate;">
    <g id="fold_13zw8nj1anxvyb-stroke" fill="none" stroke-linecap="round" stroke-linejoin="round" stroke-miterlimit="4" stroke="#484848" stroke-width="2" stroke-opacity="1">
      <g>
        <path d="M 37.816036 22.362682C 37.816036 20.655754 36.432297 19.272013 34.725365 19.272013L 24.42313 19.272013L 21.456087 13.090671L 14.120894 13.090671C 12.413964 13.090671 11.030224 14.474411 11.030224 16.181341L 11.030224 32.664921C 11.030224 34.371849 12.413964 35.755589 14.120894 35.755589L 34.725365 35.755589C 36.432297 35.755589 37.816036 34.371849 37.816036 32.664921Z"/>
      </g>
    </g>
  </g>
  <g id="g-root-fold_1hgcgjz1cljq4l-fill" data-item-order="0" transform="matrix(1, 0, 0, 1, 377.578186, 246.373657)" style="mix-blend-mode: normal; isolation: isolate;"/>
  <g id="g-root-fold_1hgcgjz1cljq4l-stroke" data-item-order="0" transform="matrix(1, 0, 0, 1, 377.578186, 246.373657)" style="mix-blend-mode: normal; isolation: isolate;">
    <g id="fold_1hgcgjz1cljq4l-stroke" fill="none" stroke-linecap="round" stroke-linejoin="round" stroke-miterlimit="4" stroke="#484848" stroke-width="2" stroke-opacity="1">
      <g>
        <path d="M 38.928581 22.857147C 38.928581 21.081945 37.489494 19.64286 35.714294 19.64286L 25.000004 19.64286L 21.914289 13.214287L 14.285715 13.214287C 12.510514 13.214287 11.071429 14.653372 11.071429 16.428574L 11.071429 33.571434C 11.071429 35.346638 12.510514 36.785721 14.285715 36.785721L 35.714294 36.785721C 37.489494 36.785721 38.928581 35.346638 38.928581 33.571434Z"/>
      </g>
    </g>
  </g>
  <g id="g-root-cn_1cu9bsxn2pde7-fill" data-item-order="0" transform="matrix(1, 0, 0, 1, 804.338318, 236.960541)" style="mix-blend-mode: normal; isolation: isolate;"/>
  <g id="g-root-cn_1utnfg0qeq39n-fill" data-item-order="0" transform="matrix(1, 0, 0, 1, 804.338318, 236.960541)" style="mix-blend-mode: normal; isolation: isolate;"/>
  <g id="g-root-sk_24nof1anl81x-fill" data-item-order="0" transform="matrix(1, 0, 0, 1, 285.608276, 261.370544)" style="mix-blend-mode: normal; isolation: isolate;"/>
  <g id="g-root-sk_24nof1anl81x-stroke" data-item-order="0" transform="matrix(1, 0, 0, 1, 285.608276, 261.370544)" style="mix-blend-mode: normal; isolation: isolate;">
    <g id="sk_24nof1anl81x-stroke" fill="none" stroke-linecap="round" stroke-linejoin="round" stroke-miterlimit="4" stroke="#484848" stroke-width="2" stroke-dasharray="5.0, 7.0" stroke-opacity="1">
      <g>
        <path d="M 10 10L 53 10L 96 10"/>
      </g>
    </g>
  </g>
  <g id="g-root-tx_1hd7wqm19jplho-fill" data-item-order="0" transform="matrix(1, 0, 0, 1, 413.578186, 249.373657)" style="mix-blend-mode: normal; isolation: isolate;">
    <g id="tx_1hd7wqm19jplho-fill-merged" stroke="none" fill="#484848" fill-opacity="1">
      <g>
        <text style="font: 15px Roboto, sans-serif; white-space: pre;" transform="translate(10, 22)" font-size="15px" font-family="Roboto, sans-serif"><tspan x="2" y="8.5" dominant-baseline="ideographic">Shared folder</tspan></text>
      </g>
    </g>
  </g>
  <g id="g-root-tx_1hd7wqm19jplho-stroke" data-item-order="0" transform="matrix(1, 0, 0, 1, 413.578186, 249.373657)" style="mix-blend-mode: normal; isolation: isolate;"/>
  <g id="g-root-pass_1cy03bwfkrw23-fill" data-item-order="0" transform="matrix(1, 0, 0, 1, 524.105042, 256.660553)" style="mix-blend-mode: normal; isolation: isolate;"/>
  <g id="g-root-pass_1cy03bwfkrw23-stroke" data-item-order="0" transform="matrix(1, 0, 0, 1, 524.105042, 256.660553)" style="mix-blend-mode: normal; isolation: isolate;">
    <g id="pass_1cy03bwfkrw23-stroke" fill="none" stroke-linecap="round" stroke-linejoin="round" stroke-miterlimit="4" stroke="#484848" stroke-width="2" stroke-opacity="1">
      <g>
        <path d="M 31.077053 31.498596L 39.273685 31.498596C 39.273685 31.498596 41.615582 31.498596 41.615582 33.840492L 41.615582 39.273685C 41.615582 39.273685 41.615582 41.615582 39.273685 41.615582L 31.077053 41.615582C 31.077053 41.615582 28.735159 41.615582 28.735159 39.273685L 28.735159 33.840492C 28.735159 33.840492 28.735159 31.498596 31.077053 31.498596M 39.765484 31.545433L 39.765484 29.507984C 39.322216 27.325035 37.40287 25.756256 35.175369 25.756256C 32.947868 25.756256 31.028522 27.325035 30.585257 29.507984L 30.585257 31.545433M 22.880423 27.564211L 13.512842 27.564211C 12.219449 27.564211 11.170947 26.515709 11.170947 25.222317L 11.170947 13.512842C 11.170947 12.219449 12.219449 11.170947 13.512842 11.170947L 34.589897 11.170947C 35.883289 11.170947 36.931789 12.219449 36.931789 13.512842L 36.931789 18.196632M 18.196632 19.36758C 18.196632 20.014277 18.720882 20.538527 19.36758 20.538527C 20.014277 20.538527 20.538527 20.014277 20.538527 19.36758C 20.538527 18.720882 20.014277 18.196632 19.36758 18.196632C 18.720882 18.196632 18.196632 18.720882 18.196632 19.36758M 27.564211 19.36758C 27.564211 20.014277 28.088463 20.538527 28.735159 20.538527C 29.381855 20.538527 29.906107 20.014277 29.906107 19.36758C 29.906107 18.720882 29.381855 18.196632 28.735159 18.196632C 28.088463 18.196632 27.564211 18.720882 27.564211 19.36758"/>
      </g>
    </g>
  </g>
  <g id="g-root-tx_hrit4h19jinm2-fill" data-item-order="0" transform="matrix(1, 0, 0, 1, 588.498291, 256.660553)" style="mix-blend-mode: normal; isolation: isolate;">
    <g id="tx_hrit4h19jinm2-fill-merged" stroke="none" fill="#484848" fill-opacity="1">
      <g>
        <text style="font: 15px Roboto, sans-serif; white-space: pre;" transform="translate(10, 10)" font-size="15px" font-family="Roboto, sans-serif"><tspan x="2" y="20.5" dominant-baseline="ideographic">API Token</tspan></text>
      </g>
    </g>
  </g>
  <g id="g-root-tx_hrit4h19jinm2-stroke" data-item-order="0" transform="matrix(1, 0, 0, 1, 588.498291, 256.660553)" style="mix-blend-mode: normal; isolation: isolate;"/>
  <g id="g-root-tx_rubysina_hz0l691c1exac-fill" data-item-order="0" transform="matrix(1, 0, 0, 1, 56.273956, 180.970551)" style="mix-blend-mode: normal; isolation: isolate;">
    <g id="tx_rubysina_hz0l691c1exac-fill-merged" stroke="none" fill="#484848" fill-opacity="1">
      <g>
        <text style="font: 15px Roboto, sans-serif; white-space: pre;" transform="translate(10, 100)" font-size="15px" font-family="Roboto, sans-serif"><tspan x="2" y="-72.5" dominant-baseline="ideographic">Docker</tspan><tspan x="2" y="-54.5" dominant-baseline="ideographic">Containers</tspan><tspan x="2" y="-18.5" dominant-baseline="ideographic">Ruby</tspan><tspan x="2" y="-0.5" dominant-baseline="ideographic">Python</tspan><tspan x="2" y="17.5" dominant-baseline="ideographic">JupyterLab</tspan><tspan x="2" y="35.5" dominant-baseline="ideographic">Selenium</tspan><tspan x="2" y="53.5" dominant-baseline="ideographic">Embeddings</tspan><tspan x="2" y="71.5" dominant-baseline="ideographic">Qdrant</tspan><tspan x="2" y="89.5" dominant-baseline="ideographic">Privacy</tspan></text>
      </g>
    </g>
  </g>
  <g id="g-root-tx_rubysina_hz0l691c1exac-stroke" data-item-order="0" transform="matrix(1, 0, 0, 1, 56.273956, 180.970551)" style="mix-blend-mode: normal; isolation: isolate;"/>
  <g id="g-root-id-2_13ylyxa1clbaq6-fill" data-item-order="0" transform="matrix(1, 0, 0, 1, 791.588379, 264.970551)" style="mix-blend-mode: normal; isolation: isolate;"/>
  <g id="g-root-id-1_hz148118ph1c7-fill" data-item-order="0" transform="matrix(1, 0, 0, 1, 253.869293, 290.420715)" style="mix-blend-mode: normal; isolation: isolate;"/>
  <g id="g-root-id-1_hz148118ph1c7-stroke" data-item-order="0" transform="matrix(1, 0, 0, 1, 253.869293, 290.420715)" style="mix-blend-mode: normal; isolation: isolate;">
    <g id="id-1_hz148118ph1c7-stroke" fill="none" stroke-linecap="round" stroke-linejoin="round" stroke-miterlimit="4" stroke="#484848" stroke-width="2" stroke-opacity="1">
      <g>
        <path d="M 22.115858 37.008408L 11.772211 37.008408C 11.137474 37.008408 10.622917 36.493851 10.622917 35.859116L 10.622917 11.723941C 10.622917 11.089204 11.137474 10.574647 11.772211 10.574647L 27.049776 10.574647C 27.355722 10.57684 27.648167 10.700933 27.862328 10.919436L 32.122761 15.171824C 32.33831 15.387307 32.459438 15.679587 32.459503 15.984374L 32.459503 19.768999M 17.518681 18.049656L 14.0708 21.497538L 17.518681 24.945419M 20.966564 18.049656L 24.414446 21.497538L 20.966564 24.945419M 23.265152 30.117243C 23.265152 33.925667 26.352491 37.013008 30.160915 37.013008C 33.969341 37.013008 37.056679 33.925667 37.056679 30.117243C 37.056679 26.308819 33.969341 23.221479 30.160915 23.221479C 26.352491 23.221479 23.265152 26.308819 23.265152 30.117243ZM 30.160915 26.669359L 30.160915 33.565125M 33.608799 30.117243L 26.713034 30.117243"/>
      </g>
    </g>
  </g>
  <g id="g-root-tx_1qegb2q1cltm2r-fill" data-item-order="0" transform="matrix(1, 0, 0, 1, 365.231934, 284.513245)" style="mix-blend-mode: normal; isolation: isolate;">
    <g id="tx_1qegb2q1cltm2r-fill-merged" stroke="none" fill="#484848" fill-opacity="1">
      <g>
        <text style="font: 15px Roboto, sans-serif; white-space: pre;" transform="translate(10, 10)" font-size="15px" font-family="Roboto, sans-serif"><tspan x="2" y="32.5" dominant-baseline="ideographic">Create apps</tspan></text>
      </g>
    </g>
  </g>
  <g id="g-root-tx_1qegb2q1cltm2r-stroke" data-item-order="0" transform="matrix(1, 0, 0, 1, 365.231934, 284.513245)" style="mix-blend-mode: normal; isolation: isolate;"/>
  <g id="g-root-sing_1qf381cnwbi17-fill" data-item-order="0" transform="matrix(1, 0, 0, 1, 460.541779, 301.530548)" style="mix-blend-mode: normal; isolation: isolate;"/>
  <g id="g-root-sing_1qf381cnwbi17-stroke" data-item-order="0" transform="matrix(1, 0, 0, 1, 460.541779, 301.530548)" style="mix-blend-mode: normal; isolation: isolate;">
    <g id="sing_1qf381cnwbi17-stroke" fill="none" stroke-linecap="round" stroke-linejoin="round" stroke-miterlimit="4" stroke="#484848" stroke-width="2" stroke-opacity="1">
      <g>
        <path d="M 23.852234 23.852232C 23.852236 30.482559 29.227177 35.857498 35.857506 35.857498C 42.487831 35.857498 47.86277 30.482559 47.86277 23.852232C 47.86277 17.221907 42.487831 11.846965 35.857506 11.846965C 29.227177 11.846965 23.852236 17.221907 23.852236 23.852232M 58.685982 59.868034C 55.504082 49.945877 46.277374 43.215221 35.857502 43.215221C 25.43763 43.215221 16.210926 49.945877 13.029023 59.868034Z"/>
      </g>
    </g>
  </g>
  <g id="g-root-cn_1lw59e71cvumme-fill" data-item-order="0" transform="matrix(1.000001, 0, 0, 1, 540.498291, 295.447052)" style="mix-blend-mode: normal; isolation: isolate;"/>
  <g id="g-root-cn_1lw59e71cvumme-stroke" data-item-order="0" transform="matrix(0.999998, 0, 0, 1, 540.498291, 295.447052)" style="mix-blend-mode: normal; isolation: isolate;">
    <g id="cn_1lw59e71cvumme-stroke" fill="none" stroke-linecap="round" stroke-linejoin="round" stroke-miterlimit="4" stroke="#484848" stroke-width="2" stroke-opacity="1">
      <g>
        <path d="M 9.999939 10.000031L 9.999939 56.500031L 9.999939 102.900031L 9.999939 102.900031L 9.999939 102.900031L 9.999939 149.400031L 9.999939 195.800031"/>
      </g>
    </g>
  </g>
  <g id="g-root-save_909amo1f3kb9q-fill" data-item-order="0" transform="matrix(1, 0, 0, 1, 599.408264, 301.530548)" style="mix-blend-mode: normal; isolation: isolate;"/>
  <g id="g-root-save_909amo1f3kb9q-stroke" data-item-order="0" transform="matrix(1, 0, 0, 1, 599.408264, 301.530548)" style="mix-blend-mode: normal; isolation: isolate;">
    <g id="save_909amo1f3kb9q-stroke" fill="none" stroke-linecap="round" stroke-linejoin="round" stroke-miterlimit="4" stroke="#484848" stroke-width="2" stroke-opacity="1">
      <g>
        <path d="M 33.741386 31.982775C 33.741386 32.954037 32.954025 33.741398 31.982763 33.741398L 12.63792 33.741398C 11.666659 33.741398 10.879297 32.954037 10.879297 31.982775L 10.879297 16.155178L 16.155165 10.879311L 31.982763 10.879311C 32.954025 10.879311 33.741386 11.666673 33.741386 12.637933ZM 16.155165 24.948288L 28.465519 24.948288L 28.465519 33.741398L 16.155165 33.741398ZM 17.913786 10.879311L 28.465519 10.879311L 28.465519 17.913799L 17.913786 17.913799Z"/>
      </g>
    </g>
  </g>
  <g id="g-root-tx_18itl6p1a3dmh6-fill" data-item-order="0" transform="matrix(1, 0, 0, 1, 639.958313, 305.950531)" style="mix-blend-mode: normal; isolation: isolate;">
    <g id="tx_18itl6p1a3dmh6-fill-merged" stroke="none" fill="#484848" fill-opacity="1">
      <g>
        <text style="font: 15px Roboto, sans-serif; white-space: pre;" transform="translate(10, 10)" font-size="15px" font-family="Roboto, sans-serif"><tspan x="2" y="20.5" dominant-baseline="ideographic">Import</tspan><tspan x="2" y="38.5" dominant-baseline="ideographic">Export</tspan><tspan x="2" y="56.5" dominant-baseline="ideographic">Edit</tspan></text>
      </g>
    </g>
  </g>
  <g id="g-root-tx_18itl6p1a3dmh6-stroke" data-item-order="0" transform="matrix(0.999998, 0, 0, 1, 639.958313, 305.950531)" style="mix-blend-mode: normal; isolation: isolate;"/>
  <g id="g-root-cn_1q87dvlmsvbwp-fill" data-item-order="0" transform="matrix(1, 0, 0, 1, 804.338318, 302.550568)" style="mix-blend-mode: normal; isolation: isolate;"/>
  <g id="g-root-mail_v64ni918fg0ej-fill" data-item-order="0" transform="matrix(1, 0, 0, 1, 599.938354, 106.100571)" style="mix-blend-mode: normal; isolation: isolate;"/>
  <g id="g-root-mail_v64ni918fg0ej-stroke" data-item-order="0" transform="matrix(1, 0, 0, 1, 599.938354, 106.100571)" style="mix-blend-mode: normal; isolation: isolate;">
    <g id="mail_v64ni918fg0ej-stroke" fill="none" stroke-linecap="round" stroke-linejoin="round" stroke-miterlimit="4" stroke="#484848" stroke-width="2" stroke-opacity="1">
      <g>
        <path d="M 26.595989 21.355192C 26.595989 23.767231 24.640646 25.722574 22.228607 25.722574C 19.81657 25.722574 17.861225 23.767231 17.861225 21.355192L 17.861225 15.240858C 17.861225 12.82882 19.81657 10.873476 22.228607 10.873476C 24.640646 10.873476 26.595989 12.82882 26.595989 15.240858ZM 30.963371 22.228668L 30.963371 22.228668C 30.968021 24.315033 30.141275 26.317286 28.665989 27.792574C 27.190701 29.267859 25.188448 30.094606 23.102083 30.089954L 21.355131 30.089956C 19.268764 30.094606 17.266512 29.267859 15.791225 27.792574C 14.315939 26.317286 13.489192 24.315033 13.493844 22.228668L 13.493844 22.228668M 22.228607 30.089956L 22.228607 33.583862"/>
      </g>
    </g>
  </g>
  <g id="g-root-sing_mfh6nkmirjsx-fill" data-item-order="0" transform="matrix(0.999999, 0, 0, 1, 846.178284, 306.210541)" style="mix-blend-mode: normal; isolation: isolate;"/>
  <g id="g-root-tx_mfh6nkmirjsy-stroke" data-item-order="0" transform="matrix(1.000002, 0, 0, 1, 882.178284, 309.210541)" style="mix-blend-mode: normal; isolation: isolate;"/>
  <g id="g-root-dock_1q7lywcdmrwul-fill" data-item-order="0" transform="matrix(1, 0, 0, 1, 160.558289, 334.24054)" style="mix-blend-mode: normal; isolation: isolate;"/>
  <g id="g-root-dock_1q7lywcdmrwul-stroke" data-item-order="0" transform="matrix(1, 0, 0, 1, 160.558289, 334.24054)" style="mix-blend-mode: normal; isolation: isolate;">
    <g id="dock_1q7lywcdmrwul-stroke" fill="none" stroke-linecap="round" stroke-linejoin="round" stroke-miterlimit="4" stroke="#484848" stroke-width="2" stroke-opacity="1">
      <g>
        <path d="M 11.993347 36.910191C 11.721598 36.90995 11.461534 37.020687 11.27337 37.216751C 11.085206 37.412819 10.98526 37.677216 10.996674 37.948727C 11.425243 47.861641 17.821896 54.850319 27.930162 54.850319C 38.387264 54.850319 49.856987 46.372612 49.856987 35.913517C 51.175808 36.473927 52.666256 36.471634 53.983341 35.907166C 55.30043 35.342701 56.329987 34.264996 56.833706 32.9235C 56.3298 31.584524 55.301903 30.508787 53.987217 29.944546C 52.672527 29.380302 51.184654 29.376307 49.866955 29.933477C 50.863628 24.950106 44.883583 22.956758 44.883583 22.956758C 44.883583 22.956758 41.893562 27.940128 44.883583 31.926823C 44.883583 31.926823 45.880257 36.910191 41.893562 36.910191ZM 22.946793 43.886909C 22.946793 44.437355 23.393019 44.883583 23.943466 44.883583C 24.493916 44.883583 24.94014 44.437355 24.94014 43.886909C 24.94014 43.33646 24.493916 42.890236 23.943466 42.890236C 23.393019 42.890236 22.946793 43.33646 22.946793 43.886909M 14.973402 28.936802L 22.946793 28.936802L 22.946793 36.910191L 14.973402 36.910191ZM 22.946793 28.936802L 30.920183 28.936802L 30.920183 36.910191L 22.946793 36.910191ZM 30.920183 28.936802L 38.893574 28.936802L 38.893574 36.910191L 30.920183 36.910191ZM 22.946793 20.963411L 30.920183 20.963411L 30.920183 28.936802L 22.946793 28.936802ZM 22.946793 12.990022L 30.920183 12.990022L 30.920183 20.963411L 22.946793 20.963411ZM 30.920183 20.963411L 38.893574 20.963411L 38.893574 28.936802L 30.920183 28.936802Z"/>
      </g>
    </g>
  </g>
  <g id="g-root-modu_1uo27jj1e97j0n-fill" data-item-order="0" transform="matrix(1, 0, 0, 1, 249.139282, 326.700714)" style="mix-blend-mode: normal; isolation: isolate;"/>
  <g id="g-root-modu_1uo27jj1e97j0n-stroke" data-item-order="0" transform="matrix(1, 0, 0, 1, 249.139282, 326.700714)" style="mix-blend-mode: normal; isolation: isolate;">
    <g id="modu_1uo27jj1e97j0n-stroke" fill="none" stroke-linecap="round" stroke-linejoin="round" stroke-miterlimit="4" stroke="#484848" stroke-width="2" stroke-opacity="1">
      <g>
        <path d="M 41.126278 16.973774C 41.002434 16.805702 40.833031 16.676632 40.638115 16.601841L 26.690565 11.325017C 26.423767 11.208576 26.120514 11.208576 25.853714 11.325017L 11.906165 16.694824C 11.721895 16.743629 11.553601 16.839798 11.418001 16.973774C 11.255624 17.17021 11.165386 17.416311 11.162295 17.671152L 11.162295 34.687164C 11.168464 35.162113 11.463007 35.585518 11.906165 35.756474L 25.853714 41.126282L 26.272141 41.126282L 26.690565 41.126282L 40.638115 35.756474C 41.081272 35.585518 41.375816 35.162113 41.381985 34.687164L 41.381985 17.764135C 41.401649 17.477591 41.310059 17.194498 41.126278 16.973774ZM 26.272141 41.289005L 26.272141 22.785254M 26.272141 22.785254L 26.272141 41.289005M 11.418001 17.066759L 26.272141 22.785254L 41.126278 17.066759"/>
      </g>
    </g>
  </g>
  <g id="g-root-modu_2qfe71fn6v42-fill" data-item-order="0" transform="matrix(1, 0, 0, 1, 523.325317, 550.321655)" style="mix-blend-mode: normal; isolation: isolate;"/>
  <g id="g-root-modu_2qfe71fn6v42-stroke" data-item-order="0" transform="matrix(1, 0, 0, 1, 523.325317, 550.321655)" style="mix-blend-mode: normal; isolation: isolate;">
    <g id="modu_2qfe71fn6v42-stroke" fill="none" stroke-linecap="round" stroke-linejoin="round" stroke-miterlimit="4" stroke="#484848" stroke-width="2" stroke-opacity="1">
      <g>
        <path d="M 42.849411 17.359837C 42.718708 17.182459 42.539925 17.046244 42.334221 16.967312L 27.614544 11.398369C 27.332975 11.275482 27.012934 11.275482 26.731365 11.398369L 12.011689 17.065443C 11.817218 17.116951 11.639607 17.218443 11.4965 17.359837C 11.325134 17.567144 11.229901 17.826872 11.22664 18.095819L 11.22664 36.053822C 11.233149 36.555061 11.543998 37.001907 12.011689 37.182327L 26.731365 42.849403L 27.172955 42.849403L 27.614544 42.849403L 42.334221 37.182327C 42.80191 37.001907 43.112762 36.555061 43.11927 36.053822L 43.11927 18.193951C 43.140022 17.891542 43.043362 17.592779 42.849407 17.359837ZM 27.172955 43.021133L 27.172955 23.493032M 27.172955 23.493032L 27.172955 43.021133M 11.4965 17.457968L 27.172955 23.493032L 42.849411 17.457968"/>
      </g>
    </g>
  </g>
  <g id="g-root-cn_1uoolc1nwmp6z-fill" data-item-order="0" transform="matrix(1, 0, 0, 1, 950.188293, 321.210541)" style="mix-blend-mode: normal; isolation: isolate;"/>
  <g id="g-root-cn_zmkd8hn2qp6y-fill" data-item-order="0" transform="matrix(0.999999, 0, 0, 1, 980.168274, 321.210541)" style="mix-blend-mode: normal; isolation: isolate;"/>
  <g id="g-root-id-1_1qegqvk1fxq3nt-fill" data-item-order="0" transform="matrix(1, 0, 0, 1, 599.938293, 333.960541)" style="mix-blend-mode: normal; isolation: isolate;"/>
  <g id="g-root-id-1_1qegqvk1fxq3nt-stroke" data-item-order="0" transform="matrix(1, 0, 0, 1, 599.938293, 333.960541)" style="mix-blend-mode: normal; isolation: isolate;">
    <g id="id-1_1qegqvk1fxq3nt-stroke" fill="none" stroke-linecap="round" stroke-linejoin="round" stroke-miterlimit="4" stroke="#484848" stroke-width="2" stroke-opacity="1">
      <g>
        <path d="M 29.911436 21.742651L 29.911436 32.974751C 29.911436 33.538689 29.454273 33.99585 28.890335 33.99585L 11.531635 33.99585C 10.967697 33.99585 10.510534 33.538689 10.510534 32.974751L 10.510534 13.573851C 10.510534 13.009912 10.967697 12.55275 11.531635 12.55275L 24.805935 12.55275M 23.094572 24.302547L 18.041147 26.467281L 20.206902 21.412836L 31.110207 10.51055L 33.997879 13.398221L 23.094572 24.302547ZM 32.124161 15.272961L 29.235466 12.384269M 23.094572 24.302547L 20.206902 21.412836"/>
      </g>
    </g>
  </g>
  <g id="g-root-squa_mdludd18zp2io-fill" data-item-order="0" transform="matrix(1, 0, 0, 1, 600.128296, 72.890549)" style="mix-blend-mode: normal; isolation: isolate;"/>
  <g id="g-root-squa_mdludd18zp2io-stroke" data-item-order="0" transform="matrix(1, 0, 0, 1, 600.128296, 72.890549)" style="mix-blend-mode: normal; isolation: isolate;">
    <g id="squa_mdludd18zp2io-stroke" fill="none" stroke-linecap="round" stroke-linejoin="round" stroke-miterlimit="4" stroke="#484848" stroke-width="2" stroke-opacity="1">
      <g>
        <path d="M 16.020416 28.542883L 21.421591 15.934411C 21.525753 15.684422 21.770012 15.521582 22.040833 15.521582C 22.311655 15.521582 22.555914 15.684422 22.660076 15.934411L 28.061249 28.542883M 18.067358 23.760952L 26.014309 23.760952M 12.580178 10.86006L 31.501488 10.86006C 31.501488 10.86006 33.221607 10.86006 33.221607 12.580178L 33.221607 31.501488C 33.221607 31.501488 33.221607 33.221607 31.501488 33.221607L 12.580178 33.221607C 12.580178 33.221607 10.86006 33.221607 10.86006 31.501488L 10.86006 12.580178C 10.86006 12.580178 10.86006 10.86006 12.580178 10.86006"/>
      </g>
    </g>
  </g>
  <g id="g-root-tx_1uuafggpahukg-fill" data-item-order="0" transform="matrix(1, 0, 0, 1, 366.498291, 348.972198)" style="mix-blend-mode: normal; isolation: isolate;">
    <g id="tx_1uuafggpahukg-fill-merged" stroke="none" fill="#4e88e7" fill-opacity="1">
      <g>
        <text style="font: bold 20px Roboto, sans-serif; white-space: pre;" transform="translate(10, 10)" font-weight="bold" font-size="20px" font-family="Roboto, sans-serif"><tspan x="15.2" y="23.5" dominant-baseline="ideographic">User</tspan></text>
      </g>
    </g>
  </g>
  <g id="g-root-tx_1uuafggpahukg-stroke" data-item-order="0" transform="matrix(1, 0, 0, 1, 366.498291, 348.972198)" style="mix-blend-mode: normal; isolation: isolate;"/>
  <g id="g-root-id-2_145hszy1clqsjz-fill" data-item-order="0" transform="matrix(1.000002, 0, 0, 1, 968.208374, 348.970551)" style="mix-blend-mode: normal; isolation: isolate;"/>
  <g id="g-root-tx_mgp628msboxy-stroke" data-item-order="0" transform="matrix(1.000002, 0, 0, 1, 878.258301, 564.210571)" style="mix-blend-mode: normal; isolation: isolate;"/>
  <g id="g-root-modu_18gblrgh8jtoo-fill" data-item-order="0" transform="matrix(1, 0, 0, 1, 68.5383, 380.270508)" style="mix-blend-mode: normal; isolation: isolate;"/>
  <g id="g-root-modu_18gblrgh8jtoo-stroke" data-item-order="0" transform="matrix(1, 0, 0, 1, 68.5383, 380.270508)" style="mix-blend-mode: normal; isolation: isolate;">
    <g id="modu_18gblrgh8jtoo-stroke" fill="none" stroke-linecap="round" stroke-linejoin="round" stroke-miterlimit="4" stroke="#484848" stroke-width="2" stroke-opacity="1">
      <g>
        <path d="M 232.249802 59.794609C 231.365524 58.594528 230.15593 57.672928 228.764191 57.138893L 129.175018 19.461C 127.270012 18.629581 125.104706 18.629581 123.199684 19.461L 23.610525 57.802826C 22.294788 58.151306 21.093124 58.837975 20.124905 59.794609C 18.965488 61.197201 18.321169 62.954437 18.299103 64.774063L 18.299103 186.272827C 18.343143 189.664093 20.446259 192.687332 23.610525 193.908005L 123.199684 232.249832L 126.187355 232.249832L 129.175018 232.249832L 228.764191 193.908005C 231.928436 192.687332 234.03157 189.664093 234.075607 186.272827L 234.075607 65.437988C 234.216003 63.391983 233.562042 61.370632 232.249786 59.794601ZM 126.187355 233.411697L 126.187355 101.290085M 126.187355 101.290085L 126.187355 233.411697M 20.124905 60.458534L 126.187355 101.290085L 232.249802 60.458534"/>
      </g>
    </g>
  </g>
  <g id="g-root-lapt_18lbhm4fb4xe3-fill" data-item-order="0" transform="matrix(1, 0, 0, 1, 383.27832, 106.100571)" style="mix-blend-mode: normal; isolation: isolate;"/>
  <g id="g-root-lapt_18lbhm4fb4xe3-stroke" data-item-order="0" transform="matrix(1, 0, 0, 1, 383.27832, 106.100571)" style="mix-blend-mode: normal; isolation: isolate;">
    <g id="lapt_18lbhm4fb4xe3-stroke" fill="none" stroke-linecap="round" stroke-linejoin="round" stroke-miterlimit="4" stroke="#484848" stroke-width="2" stroke-opacity="1">
      <g>
        <path d="M 26.063122 61.402088L 14.626158 77.786507C 13.576116 79.831512 13.698626 82.2817 14.94742 84.211769C 16.123985 86.094269 18.188955 87.236076 20.408892 87.231644L 89.544701 87.231644C 91.764633 87.236076 93.829605 86.094269 95.006172 84.211769C 96.153938 82.223778 96.153938 79.774483 95.006172 77.786507L 83.890472 61.402088M 32.488384 22.850521C 28.93981 22.850521 26.063122 25.727209 26.063122 29.275784L 26.063122 61.402088L 83.890472 61.402088L 83.890472 29.275784C 83.890472 25.727209 81.013786 22.850521 77.46521 22.850521Z"/>
      </g>
    </g>
  </g>
  <g id="g-root-tx_1lt0phtqealfs-stroke" data-item-order="0" transform="matrix(0.999998, 0, 0, 1, 837.27832, 72.970551)" style="mix-blend-mode: normal; isolation: isolate;"/>
  <g id="g-root-peng_142zap8e6y5mq-fill" data-item-order="0" transform="matrix(1, 0, 0, 1, 165.128296, 408.970551)" style="mix-blend-mode: normal; isolation: isolate;"/>
  <g id="g-root-peng_142zap8e6y5mq-stroke" data-item-order="0" transform="matrix(1, 0, 0, 1, 165.128296, 408.970551)" style="mix-blend-mode: normal; isolation: isolate;">
    <g id="peng_142zap8e6y5mq-stroke" fill="none" stroke-linecap="round" stroke-linejoin="round" stroke-miterlimit="4" stroke="#484848" stroke-width="2" stroke-opacity="1">
      <g>
        <path d="M 44.291294 48.373596C 40.233032 48.373596 36.943161 45.083721 36.943161 41.025459L 36.943161 20.182882C 37.02103 15.462463 33.528778 11.44215 28.843884 10.858915C 26.320641 10.609976 23.809732 11.439195 21.931004 13.14187C 20.052275 14.844546 18.980789 17.26202 18.981054 19.797514C 18.981054 19.797514 14.898756 21.430433 14.898756 23.87981C 17.649685 23.89327 20.396545 24.092943 23.120502 24.477459C 26.36142 24.914862 28.779335 27.681683 28.778566 30.951984L 28.778566 32.065632C 28.778566 32.065632 26.995419 31.678633 24.438269 34.235783C 23.177156 35.461216 22.190861 36.940659 21.544737 38.57608C 21.544737 38.57608 24.421938 38.096001 27.054205 37.922916C 27.502895 37.897747 27.942125 38.058613 28.268433 38.367611C 28.594738 38.676613 28.779272 39.106438 28.778566 39.555832L 28.778566 48.373596ZM 18.541798 28.171122C 17.746725 31.027222 17.345133 33.978462 17.348135 36.943161C 17.199125 40.8979 18.041107 44.827156 19.797512 48.373592M 28.778566 48.373596L 16.531675 48.373596M 25.414753 18.004568C 25.414753 18.230028 25.597525 18.412798 25.822983 18.412798C 26.048443 18.412798 26.231213 18.230028 26.231213 18.004568C 26.231213 17.77911 26.048443 17.596338 25.822983 17.596338C 25.597525 17.596338 25.414753 17.77911 25.414753 18.004568Z"/>
      </g>
    </g>
  </g>
  <g id="g-root-tx_142znb4pkiwaz-fill" data-item-order="0" transform="matrix(1, 0, 0, 1, 365.12619, 399.232269)" style="mix-blend-mode: normal; isolation: isolate;">
    <g id="tx_142znb4pkiwaz-fill-merged" stroke="none" fill="#e55753" fill-opacity="1">
      <g>
        <text style="font: bold 20px Roboto, sans-serif; white-space: pre;" transform="translate(46, 10)" font-weight="bold" font-size="20px" font-family="Roboto, sans-serif"><tspan x="-9.64" y="23.5" dominant-baseline="ideographic">AI </tspan><tspan x="-26.82" y="47.5" dominant-baseline="ideographic">Agent</tspan></text>
      </g>
    </g>
  </g>
  <g id="g-root-tx_142znb4pkiwaz-stroke" data-item-order="0" transform="matrix(1, 0, 0, 1, 365.12619, 399.232269)" style="mix-blend-mode: normal; isolation: isolate;"/>
  <g id="g-root-tx_mfh6nkmirjt0-stroke" data-item-order="0" transform="matrix(1, 0, 0, 1, 878.188293, 396.210541)" style="mix-blend-mode: normal; isolation: isolate;"/>
  <g id="g-root-cybo_mfh6nkmirjt1-fill" data-item-order="0" transform="matrix(0.999998, 0, 0, 1, 908.188293, 393.210541)" style="mix-blend-mode: normal; isolation: isolate;"/>
  <g id="g-root-cn_hznbpdnmahvt-fill" data-item-order="0" transform="matrix(0.999999, 0, 0, 1, 980.168274, 385.390594)" style="mix-blend-mode: normal; isolation: isolate;"/>
  <g id="g-root-cn_1ltnpj5ogucjw-fill" data-item-order="0" transform="matrix(1, 0, 0, 1, 804.338318, 407.680511)" style="mix-blend-mode: normal; isolation: isolate;"/>
  <g id="g-root-cn_1ltnpj5ogucjy-fill" data-item-order="0" transform="matrix(1, 0, 0, 1, 804.338318, 407.680511)" style="mix-blend-mode: normal; isolation: isolate;"/>
  <g id="g-root-cn_m7d9ttnmrb44-fill" data-item-order="0" transform="matrix(1, 0, 0, 1, 950.188293, 408.210541)" style="mix-blend-mode: normal; isolation: isolate;"/>
  <g id="g-root-cybo_mb3c3gddam12-fill" data-item-order="0" transform="matrix(1, 0, 0, 1, 457.490784, 425.775299)" style="mix-blend-mode: normal; isolation: isolate;"/>
  <g id="g-root-cybo_mb3c3gddam12-stroke" data-item-order="0" transform="matrix(1, 0, 0, 1, 457.490784, 425.775299)" style="mix-blend-mode: normal; isolation: isolate;">
    <g id="cybo_mb3c3gddam12-stroke" fill="none" stroke-linecap="round" stroke-linejoin="round" stroke-miterlimit="4" stroke="#484848" stroke-width="2" stroke-opacity="1">
      <g>
        <path d="M 61.622368 49.232975C 61.622368 36.843616 51.463093 28.584042 38.908539 28.584042C 26.353987 28.584042 16.194712 36.843616 16.194712 49.232975L 16.194712 65.752121L 61.622368 65.752121ZM 38.908539 28.584042L 38.908539 12.064894M 16.194712 53.362762L 61.622368 53.362762M 30.648966 53.362762L 30.648966 65.752121M 47.168114 53.362762L 47.168114 65.752121M 28.584072 43.038296C 28.584072 44.178703 29.508554 45.103188 30.648966 45.103188C 31.789375 45.103188 32.71386 44.178703 32.71386 43.038296C 32.71386 41.897884 31.789375 40.973404 30.648966 40.973404C 29.508554 40.973404 28.584072 41.897884 28.584072 43.038296M 45.103218 43.038296C 45.103218 44.178703 46.027706 45.103188 47.168114 45.103188C 48.308521 45.103188 49.233006 44.178703 49.233006 43.038296C 49.233006 41.897884 48.308521 40.973404 47.168114 40.973404C 46.027706 40.973404 45.103218 41.897884 45.103218 43.038296"/>
      </g>
    </g>
  </g>
  <g id="g-root-cybo_mgp628msboxz-fill" data-item-order="0" transform="matrix(1, 0, 0, 1, 908.258301, 561.210571)" style="mix-blend-mode: normal; isolation: isolate;"/>
  <g id="g-root-id-2_18gb5su18fpts5-fill" data-item-order="0" transform="matrix(1, 0, 0, 1, 791.588379, 436.210541)" style="mix-blend-mode: normal; isolation: isolate;"/>
  <g id="g-root-id-1_1qd7svge6wphn-fill" data-item-order="0" transform="matrix(1, 0, 0, 1, 96.048294, 468.970551)" style="mix-blend-mode: normal; isolation: isolate;"/>
  <g id="g-root-id-1_1qd7svge6wphn-stroke" data-item-order="0" transform="matrix(1, 0, 0, 1, 96.048294, 468.970551)" style="mix-blend-mode: normal; isolation: isolate;">
    <g id="id-1_1qd7svge6wphn-stroke" fill="none" stroke-linecap="round" stroke-linejoin="round" stroke-miterlimit="4" stroke="#484848" stroke-width="2" stroke-opacity="1">
      <g>
        <path d="M 12.653042 10.891422L 49.795628 10.891422C 49.795628 10.891422 51.564323 10.891422 51.564323 12.660116L 51.564323 49.802704C 51.564323 49.802704 51.564323 51.5714 49.795628 51.5714L 12.653042 51.5714C 12.653042 51.5714 10.884347 51.5714 10.884347 49.802704L 10.884347 12.660116C 10.884347 12.660116 10.884347 10.891422 12.653042 10.891422M 30.339989 33.877377C 30.339989 35.831024 28.756245 37.414768 26.802599 37.414768L 23.265209 37.414768L 23.265209 30.339989L 26.802599 30.339989C 28.756245 30.339989 30.339989 31.923731 30.339989 33.877377ZM 23.265209 44.49662L 23.265209 37.421841M 30.339989 44.49662L 23.265209 37.421841M 40.952156 33.877377C 40.952156 35.831024 39.368416 37.414768 37.414768 37.414768L 33.877377 37.414768L 33.877377 30.339989L 37.414768 30.339989C 39.368416 30.339989 40.952156 31.923731 40.952156 33.877377ZM 40.952156 40.952156C 40.952156 42.905804 39.368416 44.489544 37.414768 44.489544L 33.877377 44.489544L 33.877377 37.414768L 37.414768 37.414768C 39.368416 37.414768 40.952156 38.998508 40.952156 40.952156Z"/>
      </g>
    </g>
  </g>
  <g id="g-root-data_qn5zosegs45h-fill" data-item-order="0" transform="matrix(1, 0, 0, 1, 245.558289, 463.030609)" style="mix-blend-mode: normal; isolation: isolate;"/>
  <g id="g-root-data_qn5zosegs45h-stroke" data-item-order="0" transform="matrix(1, 0, 0, 1, 245.558289, 463.030609)" style="mix-blend-mode: normal; isolation: isolate;">
    <g id="data_qn5zosegs45h-stroke" fill="none" stroke-linecap="round" stroke-linejoin="round" stroke-miterlimit="4" stroke="#484848" stroke-width="2" stroke-opacity="1">
      <g>
        <path d="M 11.281357 17.68808C 11.281358 21.22645 18.739237 24.094864 27.938997 24.094864C 37.138756 24.094864 44.596634 21.22645 44.596634 17.68808C 44.596634 14.149711 37.138756 11.281296 27.938997 11.281296C 18.739237 11.281296 11.281358 14.149711 11.281358 17.68808M 11.281357 17.68808L 11.281357 38.189789C 11.281357 41.726334 18.738853 44.596573 27.938995 44.596573C 37.139137 44.596573 44.596634 41.726334 44.596634 38.189789L 44.596634 17.68808M 44.596634 27.938934C 44.596634 31.475479 37.139137 34.345718 27.938995 34.345718C 18.738853 34.345718 11.281357 31.475479 11.281357 27.938934"/>
      </g>
    </g>
  </g>
  <g id="g-root-cn_hx4we9ogkiks-fill" data-item-order="0" transform="matrix(0.999999, 0, 0, 1, 980.168274, 557.280518)" style="mix-blend-mode: normal; isolation: isolate;"/>
  <g id="g-root-cn_1q9h7nlogucjm-fill" data-item-order="0" transform="matrix(1, 0, 0, 1, 804.338318, 473.280609)" style="mix-blend-mode: normal; isolation: isolate;"/>
  <g id="g-root-tx_8vwogw1a3yp6v-fill" data-item-order="0" transform="matrix(1, 0, 0, 1, 474.498291, 84.970551)" style="mix-blend-mode: normal; isolation: isolate;">
    <g id="tx_8vwogw1a3yp6v-fill-merged" stroke="none" fill="#484848" fill-opacity="1">
      <g>
        <text style="font: 15px Roboto, sans-serif; white-space: pre;" transform="translate(10, 10)" font-size="15px" font-family="Roboto, sans-serif"><tspan x="2" y="20.5" dominant-baseline="ideographic">macOS</tspan><tspan x="2" y="38.5" dominant-baseline="ideographic">Windows</tspan><tspan x="2" y="56.5" dominant-baseline="ideographic">Linux</tspan></text>
      </g>
    </g>
  </g>
  <g id="g-root-tx_8vwogw1a3yp6v-stroke" data-item-order="0" transform="matrix(1, 0, 0, 1, 474.498291, 84.970551)" style="mix-blend-mode: normal; isolation: isolate;"/>
  <g id="g-root-phon_1lws9f4p0qp6o-fill" data-item-order="0" transform="matrix(1, 0, 0, 1, 198.498291, 496.460541)" style="mix-blend-mode: normal; isolation: isolate;"/>
  <g id="g-root-phon_1lws9f4p0qp6o-stroke" data-item-order="0" transform="matrix(1, 0, 0, 1, 198.498291, 496.460541)" style="mix-blend-mode: normal; isolation: isolate;">
    <g id="phon_1lws9f4p0qp6o-stroke" fill="none" stroke-linecap="round" stroke-linejoin="round" stroke-miterlimit="4" stroke="#484848" stroke-width="2" stroke-opacity="1">
      <g>
        <path d="M 40.857143 44.714287L 15.142857 44.714287C 13.722696 44.714287 12.571428 43.563019 12.571428 42.142857L 12.571428 13.857142C 12.571428 12.436982 13.722696 11.285714 15.142857 11.285714L 40.857143 11.285714C 42.277306 11.285714 43.42857 12.436982 43.42857 13.857142L 43.42857 42.142857C 43.42857 43.563019 42.277306 44.714287 40.857143 44.714287ZM 20.285713 11.285714L 20.285713 44.714287M 29.285713 20.285713L 34.42857 20.285713"/>
      </g>
    </g>
  </g>
  <g id="g-root-clou_18f307wfv6xvx-fill" data-item-order="0" transform="matrix(1, 0, 0, 1, 520.539185, 487.273102)" style="mix-blend-mode: normal; isolation: isolate;"/>
  <g id="g-root-clou_18f307wfv6xvx-stroke" data-item-order="0" transform="matrix(1, 0, 0, 1, 520.539185, 487.273102)" style="mix-blend-mode: normal; isolation: isolate;">
    <g id="clou_18f307wfv6xvx-stroke" fill="none" stroke-linecap="round" stroke-linejoin="round" stroke-miterlimit="4" stroke="#484848" stroke-width="2" stroke-opacity="1">
      <g>
        <path d="M 49.086514 33.285587C 49.0886 31.028231 48.171127 28.867407 46.545559 27.301146C 44.919983 25.734884 42.726566 24.898323 40.470848 24.984276C 38.206081 20.175304 32.967834 17.515177 27.7488 18.523668C 22.529766 19.532158 18.659664 23.95232 18.349545 29.258846C 16.510506 28.873636 14.595798 29.337776 13.137281 30.522337C 11.678766 31.706898 10.831792 33.48571 10.831628 35.364658C 10.831628 41.701664 17.484652 41.601868 17.484652 41.601868L 41.601864 41.601868C 41.601864 41.601868 49.086514 40.627201 49.086514 33.285587Z"/>
      </g>
    </g>
  </g>
  <g id="g-root-sing_mgp628msboxv-fill" data-item-order="0" transform="matrix(0.999999, 0, 0, 1, 846.178284, 476.940521)" style="mix-blend-mode: normal; isolation: isolate;"/>
  <g id="g-root-tx_mgp628msboxw-stroke" data-item-order="0" transform="matrix(1.000002, 0, 0, 1, 882.178284, 479.940521)" style="mix-blend-mode: normal; isolation: isolate;"/>
  <g id="g-root-tx_quoe011anpeyq-fill" data-item-order="0" transform="matrix(1, 0, 0, 1, 374.126221, 500.54306)" style="mix-blend-mode: normal; isolation: isolate;">
    <g id="tx_quoe011anpeyq-fill-merged" stroke="none" fill="#484848" fill-opacity="1">
      <g>
        <text style="font: 15px Roboto, sans-serif; white-space: pre;" transform="translate(10, 10)" font-size="15px" font-family="Roboto, sans-serif"><tspan x="2" y="20.5" dominant-baseline="ideographic">Tool use</tspan></text>
      </g>
    </g>
  </g>
  <g id="g-root-tx_quoe011anpeyq-stroke" data-item-order="0" transform="matrix(1, 0, 0, 1, 374.126221, 500.54306)" style="mix-blend-mode: normal; isolation: isolate;"/>
  <g id="g-root-cn_mcyeipogkhse-fill" data-item-order="0" transform="matrix(1, 0, 0, 1, 950.188293, 491.930511)" style="mix-blend-mode: normal; isolation: isolate;"/>
  <g id="g-root-cn_hx4we9ogkiko-fill" data-item-order="0" transform="matrix(0.999999, 0, 0, 1, 980.168274, 491.930511)" style="mix-blend-mode: normal; isolation: isolate;"/>
  <g id="g-root-tx_dikvk019jsfez-fill" data-item-order="0" transform="matrix(1, 0, 0, 1, 571.8703, 399.232269)" style="mix-blend-mode: normal; isolation: isolate;">
    <g id="tx_dikvk019jsfez-fill-merged" stroke="none" fill="#484848" fill-opacity="1">
      <g>
        <text style="font: 15px Roboto, sans-serif; white-space: pre;" transform="translate(10, 118)" font-size="15px" font-family="Roboto, sans-serif"><tspan x="2" y="-90.5" dominant-baseline="ideographic">ASR &amp; TTS API</tspan><tspan x="2" y="-54.5" dominant-baseline="ideographic">OpenAI, Gemini, </tspan><tspan x="2" y="-36.5" dominant-baseline="ideographic">Cohere, xAI, Mistral,  </tspan><tspan x="2" y="-18.5" dominant-baseline="ideographic">ElevenLabs</tspan><tspan x="2" y="17.5" dominant-baseline="ideographic">Chat API</tspan><tspan x="2" y="53.5" dominant-baseline="ideographic">OpenAI, Anthropic,</tspan><tspan x="2" y="71.5" dominant-baseline="ideographic">Gemini, Cohere</tspan><tspan x="2" y="89.5" dominant-baseline="ideographic">xAI, DeepSeek,</tspan><tspan x="2" y="107.5" dominant-baseline="ideographic">Mistral, Ollama</tspan></text>
      </g>
    </g>
  </g>
  <g id="g-root-tx_dikvk019jsfez-stroke" data-item-order="0" transform="matrix(1, 0, 0, 1, 571.8703, 399.232269)" style="mix-blend-mode: normal; isolation: isolate;"/>
  <g id="g-root-id-1_mbpjosdna4n8-fill" data-item-order="0" transform="matrix(1, 0, 0, 1, 126.498291, 528.970581)" style="mix-blend-mode: normal; isolation: isolate;"/>
  <g id="g-root-id-1_mbpjosdna4n8-stroke" data-item-order="0" transform="matrix(1, 0, 0, 1, 126.498291, 528.970581)" style="mix-blend-mode: normal; isolation: isolate;">
    <g id="id-1_mbpjosdna4n8-stroke" fill="none" stroke-linecap="round" stroke-linejoin="round" stroke-miterlimit="4" stroke="#484848" stroke-width="2" stroke-opacity="1">
      <g>
        <path d="M 12.589149 10.869954L 48.837238 10.869954C 48.837238 10.869954 50.563339 10.869954 50.563339 12.596053L 50.563339 48.844143C 50.563339 48.844143 50.563339 50.570244 48.837238 50.570244L 12.589149 50.570244C 12.589149 50.570244 10.86305 50.570244 10.86305 48.844143L 10.86305 12.596053C 10.86305 12.596053 10.86305 10.869954 12.589149 10.869954M 40.206741 29.850143L 40.206741 33.302341C 40.206741 35.208939 38.66114 36.754543 36.754543 36.754543C 34.847946 36.754543 33.302341 35.208939 33.302341 33.302341L 33.302341 29.850143M 36.754543 36.761448L 36.754543 43.665844M 29.850143 33.302341C 29.850143 35.208939 28.304543 36.754543 26.397945 36.754543L 22.945745 36.754543L 22.945745 29.850143L 26.397945 29.850143C 28.304543 29.850143 29.850143 31.395746 29.850143 33.302341ZM 22.945745 43.665844L 22.945745 36.761448"/>
      </g>
    </g>
  </g>
  <g id="g-root-chro_5vrosfl33es-fill" data-item-order="0" transform="matrix(1, 0, 0, 1, 243.448303, 521.980591)" style="mix-blend-mode: normal; isolation: isolate;"/>
  <g id="g-root-chro_5vrosfl33es-stroke" data-item-order="0" transform="matrix(1, 0, 0, 1, 243.448303, 521.980591)" style="mix-blend-mode: normal; isolation: isolate;">
    <g id="chro_5vrosfl33es-stroke" fill="none" stroke-linecap="round" stroke-linejoin="round" stroke-miterlimit="4" stroke="#484848" stroke-width="2" stroke-opacity="1">
      <g>
        <path d="M 10.791515 28.996368C 10.791515 39.050632 18.942106 47.201221 28.996368 47.201221C 39.050632 47.201221 47.201221 39.050632 47.201221 28.996368C 47.201221 18.942106 39.050632 10.791515 28.996368 10.791515C 18.942106 10.791515 10.791515 18.942106 10.791515 28.996368M 21.685932 28.996368C 21.685579 33.034061 24.958677 36.307446 28.996368 36.307446C 33.034061 36.307446 36.307156 33.034061 36.306805 28.996368C 36.307156 24.958677 33.034061 21.685291 28.996368 21.685291C 24.958677 21.685291 21.685579 24.958677 21.685932 28.996368M 28.996368 21.685932L 45.670433 21.685932M 31.497557 35.868305L 25.759071 46.908363M 21.75717 27.976896L 14.473644 18.019634"/>
      </g>
    </g>
  </g>
  <g id="g-root-id-2_vb46qm18zjeo8-fill" data-item-order="0" transform="matrix(1.000002, 0, 0, 1, 968.208374, 519.980591)" style="mix-blend-mode: normal; isolation: isolate;"/>
  <g id="g-root-tx_74a0wpuqvb5-fill" data-item-order="0" transform="matrix(1, 0, 0, 1, 142.728287, 73.300552)" style="mix-blend-mode: normal; isolation: isolate;">
    <g id="tx_74a0wpuqvb5-fill-merged" stroke="none" fill="#92bd39" fill-opacity="1">
      <g>
        <text style="font: bold 20px Roboto, sans-serif; white-space: pre;" transform="translate(10, 10)" font-weight="bold" font-size="20px" font-family="Roboto, sans-serif"><tspan x="8.25" y="23.5" dominant-baseline="ideographic">System</tspan></text>
      </g>
    </g>
  </g>
  <g id="g-root-tx_74a0wpuqvb5-stroke" data-item-order="0" transform="matrix(1, 0, 0, 1, 142.728287, 73.300552)" style="mix-blend-mode: normal; isolation: isolate;"/>
  <g id="g-root-sk_qv9t6818fhe6i-fill" data-item-order="0" transform="matrix(1, 0, 0, 1, 538.874878, 150.970551)" style="mix-blend-mode: normal; isolation: isolate;"/>
  <g id="g-root-sk_qv9t6818fhe6i-stroke" data-item-order="0" transform="matrix(0.999999, 0, 0, 1, 538.874878, 150.970551)" style="mix-blend-mode: normal; isolation: isolate;">
    <g id="sk_qv9t6818fhe6i-stroke" fill="none" stroke-linecap="round" stroke-linejoin="round" stroke-miterlimit="4" stroke="#484848" stroke-width="2" stroke-opacity="1">
      <g>
        <path d="M 10 10L 10 52.8L 10 95.7"/>
      </g>
    </g>
  </g>
  <g id="g-root-cn_zn5xt01izlpfw-fill" data-item-order="2" transform="matrix(1, 0, 0, 1, 59.273956, 224.970551)" style="mix-blend-mode: normal; isolation: isolate;"/>
  <g id="g-root-cn_zn5xt01izlpfw-stroke" data-item-order="2" transform="matrix(1, 0, 0, 1, 59.273956, 224.970551)" style="mix-blend-mode: normal; isolation: isolate;">
    <g id="cn_zn5xt01izlpfw-stroke" fill="none" stroke-linecap="round" stroke-linejoin="round" stroke-miterlimit="4" stroke="#484848" stroke-width="1" stroke-opacity="1">
      <g>
        <path d="M 10 10L 46 10L 82 10"/>
      </g>
    </g>
  </g>
  <g id="g-root-cn_dhc3o11clfjf3-fill" data-item-order="2" transform="matrix(1, 0, 0, 1, 306.498291, 327.388031)" style="mix-blend-mode: normal; isolation: isolate;"/>
  <g id="g-root-cn_dhc3o11clfjf3-stroke" data-item-order="2" transform="matrix(1, 0, 0, 1, 306.498291, 327.388031)" style="mix-blend-mode: normal; isolation: isolate;">
    <g id="cn_dhc3o11clfjf3-stroke" fill="none" stroke-linecap="round" stroke-linejoin="round" stroke-miterlimit="4" stroke="#484848" stroke-width="2" stroke-dasharray="5.0, 7.0" stroke-opacity="1">
      <g>
        <path d="M 154 10L 82 10L 12 10"/>
        <path d="M 18 3.5L 11.5 10L 18 16.5" stroke-dasharray="none"/>
      </g>
    </g>
  </g>
  <g id="g-root-cn_mgpv8x1clcqa7-fill" data-item-order="2" transform="matrix(0.999999, 0, 0, 1, 697.508301, 335.950562)" style="mix-blend-mode: normal; isolation: isolate;"/>
  <g id="g-root-cn_4j7cd01jt3ksg-fill" data-item-order="2" transform="matrix(1, 0, 0, 1, 486.399292, 365.970551)" style="mix-blend-mode: normal; isolation: isolate;"/>
  <g id="g-root-cn_4j7cd01jt3ksg-stroke" data-item-order="2" transform="matrix(1, 0, 0, 1, 486.399292, 365.970551)" style="mix-blend-mode: normal; isolation: isolate;">
    <g id="cn_4j7cd01jt3ksg-stroke" fill="none" stroke-linecap="round" stroke-linejoin="round" stroke-miterlimit="4" stroke="#000000" stroke-width="2" stroke-dasharray="5.0, 7.0" stroke-opacity="1">
      <g>
        <path d="M 10 12L 10 39.5L 10 67"/>
        <path d="M 16.5 18L 10 11.5L 3.5 18" stroke-dasharray="none"/>
        <path d="M 3.5 61L 10 67.5L 16.5 61" stroke-dasharray="none"/>
      </g>
    </g>
  </g>
  <g id="g-root-cn_qrjb3qm0qlfp-fill" data-item-order="2" transform="matrix(1, 0, 0, 1, 575.191467, 429.232269)" style="mix-blend-mode: normal; isolation: isolate;"/>
  <g id="g-root-cn_qrjb3qm0qlfp-stroke" data-item-order="2" transform="matrix(1, 0, 0, 1.000002, 575.191467, 429.232269)" style="mix-blend-mode: normal; isolation: isolate;">
    <g id="cn_qrjb3qm0qlfp-stroke" fill="none" stroke-linecap="round" stroke-linejoin="round" stroke-miterlimit="4" stroke="#484848" stroke-width="1" stroke-opacity="1">
      <g>
        <path d="M 10 10L 46 10L 82 10"/>
      </g>
    </g>
  </g>
  <g id="g-root-cn_1uo1f0x1axum86-fill" data-item-order="2" transform="matrix(1, 0, 0, 1, 306.498291, 480.969574)" style="mix-blend-mode: normal; isolation: isolate;"/>
  <g id="g-root-cn_1uo1f0x1axum86-stroke" data-item-order="2" transform="matrix(1, 0, 0, 1, 306.498291, 480.969574)" style="mix-blend-mode: normal; isolation: isolate;">
    <g id="cn_1uo1f0x1axum86-stroke" fill="none" stroke-linecap="round" stroke-linejoin="round" stroke-miterlimit="4" stroke="#000000" stroke-width="2" stroke-dasharray="5.0, 7.0" stroke-opacity="1">
      <g>
        <path d="M 154 10L 82 10L 12 10"/>
        <path d="M 18 3.5L 11.5 10L 18 16.5" stroke-dasharray="none"/>
      </g>
    </g>
  </g>
  <g id="g-root-cn_v9upof1cvf403-fill" data-item-order="2" transform="matrix(1, 0, 0, 1, 306.498291, 540.976929)" style="mix-blend-mode: normal; isolation: isolate;"/>
  <g id="g-root-cn_v9upof1cvf403-stroke" data-item-order="2" transform="matrix(1, 0, 0, 1.000001, 306.498291, 540.976929)" style="mix-blend-mode: normal; isolation: isolate;">
    <g id="cn_v9upof1cvf403-stroke" fill="none" stroke-linecap="round" stroke-linejoin="round" stroke-miterlimit="4" stroke="#484848" stroke-width="2" stroke-opacity="1">
      <g>
        <path d="M 10 10L 110.3 10L 210.6 10"/>
      </g>
    </g>
  </g>
  <g id="g-root-cn_zpottim0te6f-fill" data-item-order="2" transform="matrix(1, 0, 0, 1, 575.8703, 534.101318)" style="mix-blend-mode: normal; isolation: isolate;"/>
  <g id="g-root-cn_zpottim0te6f-stroke" data-item-order="2" transform="matrix(1, 0, 0, 1, 575.8703, 534.101318)" style="mix-blend-mode: normal; isolation: isolate;">
    <g id="cn_zpottim0te6f-stroke" fill="none" stroke-linecap="round" stroke-linejoin="round" stroke-miterlimit="4" stroke="#484848" stroke-width="1" stroke-opacity="1">
      <g>
        <path d="M 10 10L 46 10L 82 10"/>
      </g>
    </g>
  </g>
</svg>